<ttFont>
<head>
    <!-- Most of this table will be recalculated by the compiler -->
    <tableVersion value="1.0"/>
    <fontRevision value="1.0"/>
    <checkSumAdjustment value="0xba14a6d0"/>
    <magicNumber value="0x5f0f3cf5"/>
    <flags value="00000000 00000011"/>
    <unitsPerEm value="1000"/>
    <created value="Thu Feb  6 15:30:51 2014"/>
    <modified value="Thu Feb  6 15:30:51 2014"/>
    <xMin value="-147"/>
    <yMin value="-258"/>
    <xMax value="1236"/>
    <yMax value="1003"/>
    <macStyle value="00000000 00000000"/>
    <lowestRecPPEM value="3"/>
    <fontDirectionHint value="2"/>
    <indexToLocFormat value="0"/>
    <glyphDataFormat value="0"/>
  </head>
          <CharString index="0" raw="1">
            6df87df7 1415251d ce65e81b e3c3ada9
            b01ffbf4 f7a02f1d 0b 
          </CharString>
          <CharString index="1" raw="1">
            86f7b280 15e8c8b7 c1b01fae bea1d3e7
            1adf79d1 60be1ebf 5f4ba046 550a3a9b
            44b5551e 55b5c96e d71b97ea 1555659d
            ad721f6c b581c9c5 1ac595b9 a2a91ea8
            a1ad9cc3 1bc0b07c 6ca51faa 66954f4d
            1a508260 766a1e64 72637c5a 1b0b
          </CharString>
          <CharString index="2" raw="1">
            8ff835f8 cd15fbc6 07658c5c 8c5e280a
            6f8d6f8d 7108df06 6e1d070b 
          </CharString>
          <CharString index="3" raw="1">
            dcb18ecd ab1ad87a b667a91e a76a5a9a
            511b394d 6e6d641f 91470596 b0be95c3
            1bb7ad85 7aa21fa6 778e676a 1a720764
            8863866d 4a0ad349 e6c9b8a9 bfc31e0b
          </CharString>
          <CharString index="4" raw="1">
            76f89916 231d0b  
          </CharString>
          <CharString index="5" raw="1">
            e6f8eb91 0a2bfc6e 06330a49 994eba59
            1e5bb8cf 71e01be7 cfa9bcb6 1fb6bc9a
            cdcd1a0b   
          </CharString>
          <CharString index="6" raw="1">
            15b4b7b3 bbb4bf08 24066a5c 6b5b6c5a
            080e   
          </CharString>
          <CharString index="7" raw="1">
            15341d93 1df7b416 341d8e6d 1e0e
          </CharString>
          <CharString index="8" raw="1">
            1e756d60 734f1b6c 704f1dfc 1b07529b
            58aa6b1e 6ca9b879 ba1bc9b9 aac9cb8d
            0a0b   
          </CharString>
          <CharString index="9" raw="1">
            20f7eef7 3215821d 6c86811d 84390576
            b0c079d0 1bd2bf9e a8af1fb5 ada6beca
            1aee519b fb04a61e 26a37092 bb1aa494
            9c9f971e 969ea58f b11bc3be 827fba1f
            91df05a2 69509e4c 1b47770a 22d176e9
            761eec76 b081571a 0b 
          </CharString>
          <CharString index="10" raw="1">
            731b6e51 8221831f c38305af 919999a1
            1b9f9f80 7fa01f77 ae9d86a3 1ba8c594
            f5931f0e   
          </CharString>
          <CharString index="11" raw="1">
            f7eff761 16f70d06 ecf82b9b ce9acb98
            c8820a98 4f9a4b9b 49edfc2d 18f70b06
            f74cf96a 05fb0506 3dfc147a 3879317c
            3d7a1d7b db79e37a de3cf814 18fb2206
            3cfc147a 3879337b 3b7a1d7c d979e57a
            de3df814 18fb0b06 0b 
          </CharString>
          <CharString index="12" raw="1">
            f764f742 16f70806 d5f7bc98 bf95b695
            b9820a95 5e975b97 5cd7fbbd 18f70306
            f72cf8cd 05270649 fbc17e50 7c437f50
            7a1d7fc7 7dce7ec7 49f7c418 fb09064a
            fbc07e4f 7c447f4f 7a1d7fc7 7dcc7dcb
            49f7c218 21060b  
          </CharString>
          <CharString index="13" raw="1">
            97f8bef7 22157060 4b71441b 404fa8be
            641f5fc5 7cdcdc1a e19cc5ab b01eb3ad
            c09edd1b d2c67d74 c21f95e1 05ae5e48
            a3381b25 3b674754 1f5a4e6c 33fb0a1a
            fb0fad34 b6521e0b  
          </CharString>
          <CharString index="14" raw="1">
            24f858f7 113d0a05 a86954a0 4c1b384d
            6759611f 6d0a0b  
          </CharString>
          <CharString index="15" raw="1">
            2d0a4eb9 d55af701 1be8cfae b4bc1f0b
          </CharString>
          <CharString index="16" raw="1">
            fb9bf96a 05fb0b06 fb99fd6a 058b0ac5
            f749058a addd8aaa 1babdb8c 8cad1fc5
            fb49050b   
          </CharString>
          <CharString index="17" raw="1">
            1577758a 8a761f8d b08baeaf 1a8aa9a9
            8ba81bac c96b066d 6d8b8a6d 1fb607a2
            8d9f9b98 1e95979a 90a81baa aa8585a2
            1f96cb05 99736d95 641b5866 7973741f
            72727d65 591a6607 5b890557 07bb8905
            658b668c 651e7989 7a8a7d89 084ff7bd
            d3070e   
          </CharString>
          <CharString index="18" raw="1">
            158f7f79 90741b40 6c58467f 1f856a6c
            8870887b 88198253 9d8aa48a a88a196f
            fb37056b 8683846d 1b7c7d8d 8e801f7f
            4e05869a 9d87a01b d3acbacb 961fa6f7
            2e05d506 98d60560 0681808b 8a811f91
            af05ac91 9296ad1b 95998a89 971f0e
          </CharString>
          <CharString index="19" raw="1">
            53826473 6f1e696e 5e825c1b 4f6199aa
            6f1f6cad 82bcb11a f86e27fc 7a070b
          </CharString>
          <CharString index="20" raw="1">
            15516da4 aeafab9e b1991fcd 73a78065
            1a636d7b 5d1e7ef7 be15b3b4 7e636b70
            7a687e1f 589b6797 b31aada7 98b31ed9
            fb1a15ba a1a7a9ba 1ad842a8 48394460
            3b57a974 ba771e89 0753766e 685b1a43
            cf65dae2 d7b8debf 6ca556a0 1e0e
          </CharString>
          <CharString index="21" raw="1">
            157b4779 45784908 ce06a8c9 a8d69cce
            080e   
          </CharString>
          <CharString index="22" raw="1">
            4ef827f8 cd157a3e 76357741 6f247441
            71520889 067bc674 d97ac438 f7a918fb
            0206f757 fcc85f55 556d3863 19c141d9
            acdbc3c9 ec19b8d1 aee7bdf7 389ec9ac
            f7059fd6 080b  
          </CharString>
          <CharString index="23" raw="1">
            7d1d9697 761f9f69 78902a0a 
          </CharString>
          <CharString index="24" raw="1">
            1563618a 8a661f8a 8db5d4be dab3bb82
            0a8a6f8a 66681a27 07f71e16 4af79e2a
            06595240 fb025824 0851f75c 2fd4e7ca
            070e   
          </CharString>
          <CharString index="25" raw="1">
            560afc02 eaf8245b 0a0b 
          </CharString>
          <CharString index="26" raw="1">
            d74f0ad1 ba7561ac 1fb45697 40381a31
            7d0b   
          </CharString>
          <CharString index="27" raw="1">
            97bb8d15 89dcde8b e41bf78b 068eef05
            fb85065e 408b8970 1f8d07f7 13f743f7
            14f749f7 0ff74508 e6078d3c 3f8b381b
            fb8a0688 2005f764 06b8d48b 8da71f89
            07fb0dfb 42fb0dfb 46fb0afb 45080b
          </CharString>
          <CharString index="28" raw="1">
            b2f79b16 eff7b606 adc4adc5 adc6f72b
            f79a18fb 0f0628fb 55725a6f 54735b7a
            1d74b973 ba70c025 f75b18fb 1506f729
            fb97ad50 ae4fae50 190b 
          </CharString>
          <CharString index="29" raw="1">
            1573665d 7a521b50 5d9eb36e 1f6db480
            c5c41ac5 96b9a5a9 1ea9a5b6 97c11bbb
            c1817ab5 1f93dd0b  
          </CharString>
          <CharString index="30" raw="1">
            157d8c7e 8d7f1e72 72697d63 1b677597
            a37a1f7a a37fb1bc 1ab092ad 98a01ea0
            98a197b2 1bb4b37d 78a91f88 6689666b
            1a9bf763 15897e89 7c897808 8906b16f
            64a4571b 51606c5f 701f7364 7f58521a
            4d995aa6 651e64a7 b374ba1b c0b4a8b3
            b41f5c9f b475bd1b e2dfccf7 39f568ed
            4bd21fd5 492abbfb 091bfb07 2d5d444b
            1f484164 22fb0b1a 21aa22d3 3c1e42cd
            e960f70a 1bf6deaf bfc81f75 bc055f4e
            3f74391b 263eaec5 551f52c8 6ae4f31a
            eda9e4bf c51ec6c0 d6a9e71b f0d9674d
            c11fc747 a42f341a 23675f59 6073acda
            1eb507c3 8ddb8ec8 1e0e 
          </CharString>
          <CharString index="31" raw="1">
            154278c8 ca881f92 a0a390a5 1bc0b677
            57606e76 601f2df7 3715e290 b1b7ec1b
            a0a18989 9c1f92ca 05927c72 93671bfb
            0e392ffb 27fb11c6 45ebe8c9 ccdcd755
            b342606b 7d776a1f 0e 
          </CharString>
          <CharString index="32" raw="1">
            311d0e   
          </CharString>
          <CharString index="33" raw="1">
            1534065a 387d737c 7080767a 1d819e7b
            a77ba65b dc182e06 f702fb37 3d8c0555
            f7045c07 fb048c05 5507f704 8c0522d4
            f407f704 8a05c107 fb048a05 baf704c1
            073c8a05 0e  
          </CharString>
          <CharString index="34" raw="1">
            15450af7 2416450a 0e 
          </CharString>
          <CharString index="35" raw="1">
            15ccbfbd cccc5cbb 4a4a5759 4a4aba5b
            cc1f8fbd 156371a9 aeaea1a7 b4b3a56d
            6868756f a81d  
          </CharString>
          <CharString index="36" raw="1">
            bcb2a9c6 d61af713 39a6fb15 aa1e24a4
            4e98de1a ab94a5a6 9c1e9ba5 b192be1b
            ced27f7b c01f0b  
          </CharString>
          <CharString index="37" raw="1">
            2b06695d 6b5a6d5a 08d206b4 b7b4bbb2
            bf080b   
          </CharString>
          <CharString index="38" raw="1">
            781df7b4 471d0b  
          </CharString>
          <CharString index="39" raw="1">
            153b83df cfd795c1 cfd79946 3d427f4d
            471f8246 15f705ba eff712f7 0069e6fb
            08fb1168 fb002121 ae22f707 1f0b
          </CharString>
          <CharString index="40" raw="1">
            f75ef8d6 15541d5d 07698966 87778808
            3a07a18a aa8ab18a 08fc43ea f841078a
            a1a28ba1 1bd70690 f0054306 72718b8a
            721f0b   
          </CharString>
          <CharString index="41" raw="1">
            fa39370a   
          </CharString>
          <CharString index="42" raw="1">
            863d7e5a 796b7208 6a717463 551a2e0b
          </CharString>
          <CharString index="43" raw="1">
            8d9d8ba0 9d1a9e8b a0899d1e 0b
          </CharString>
          <CharString index="44" raw="1">
            153c84e4 cede96be cdd89745 3c428147
            451f8346 15f711af f70ff6ef 6cf3fb0d
            fb1168fb 052022ad fb01f709 1f0e
          </CharString>
          <CharString index="45" raw="1">
            740ab18b acb31af7 01070b 
          </CharString>
          <CharString index="46" raw="1">
            eaf88bf8 ae15a659 934b469b 1d5c6398
            a66b1f5c ca156ec3 82d3cb4f 0abdb180
            75a91ff7 49f71d15 4eb55033 05ad5c51
            9a4c941d 30bc491e 4523c861 c9e70569
            b9c578ca 1b971df2 76e25bcb 1e0b
          </CharString>
          <CharString index="47" raw="1">
            1ad497ca a9b61eb8 aabba1d1 1b0b
          </CharString>
          <CharString index="48" raw="1">
            54f89216 effb3c07 554b740a c78bd0dc
            1af83527 fd680789 d9e68bcb 1b0b
          </CharString>
          <CharString index="49" raw="1">
            f834f794 15708c55 8c58660a 8af7bf15
            8c318b41 621a680a 8d06840a f78307d7
            8be08deb 1e0b  
          </CharString>
          <CharString index="50" raw="1">
            daf7a8ef 15800af6 f731e5fb 31e1530a
            8e27155b 1dfbcd46 31d0fbd3 078abbc0
            8abd1b0e   
          </CharString>
          <CharString index="51" raw="1">
            07b68bb2 8ab41e8a a9ac8ba9 1b9c06ed
            be7466aa 1faf609d 43321a4a 8141645b
            1e5c654f 76381b0b  
          </CharString>
          <CharString index="52" raw="1">
            f7ba16f8 2ef95005 3906fc2e fd50058a
            f7f7470a f893fb78 470a0b 
          </CharString>
          <CharString index="53" raw="1">
            1b2a5061 5b681f65 57784432 1a0b
          </CharString>
          <CharString index="54" raw="1">
            c31baba9 867b9f1f a179946f 641a0b
          </CharString>
          <CharString index="55" raw="1">
            15db6707 527ba3c8 1fba8fe9 bc1af706
            57ba3572 7387867b 1e8e3a05 8d989a8c
            971bbe9a 79558d1f 8d6689fb 0d8f5a90
            49a16ac6 81088907 5081756a 8649875a
            8dfb0e89 66085589 7c79581b 7f7c8c8d
            7e1f883a 05869ba3 87a41be1 bfbaf706
            1fbc87ea ba1ac89b a3c41e0e 
          </CharString>
          <CharString index="56" raw="1">
            fa41271d   
          </CharString>
          <CharString index="57" raw="1">
            daf7be16 5b1dfd66 078abbc0 8abd1bc9
            ef157806 800af7af 530a0b 
          </CharString>
          <CharString index="58" raw="1">
            f9c9270a   
          </CharString>
          <CharString index="59" raw="1">
            07c27eb9 6bac1ea9 6e629b5a 1b0b
          </CharString>
          <CharString index="60" raw="1">
            db06f72c f7fd05c6 fbae0789 4105f717
            06a3a88c 8c9e1f8c 8980757f 717e6d19
            0e   
          </CharString>
          <CharString index="61" raw="1">
            910a27fc aa066986 717d791e 757b7283
            6b1b6a69 93966e1f 7f380579 a8af7eb9
            1bccbaa5 ada71fa9 b09ec3ca 1a0b
          </CharString>
          <CharString index="62" raw="1">
            066e8b66 0b  
          </CharString>
          <CharString index="63" raw="1">
            153a06f7 39fb88fb 39fb8805 dc06f73a
            f788050b   
          </CharString>
          <CharString index="64" raw="1">
            acdfa6ed 98e2082f 0680347d 317b2f08
            0b   
          </CharString>
          <CharString index="65" raw="1">
            fbe2670a 0b  
          </CharString>
          <CharString index="66" raw="1">
            73631e54 6a53744c 1b0b 
          </CharString>
          <CharString index="67" raw="1">
            531df757 06d7571d 0b 
          </CharString>
          <CharString index="68" raw="1">
            5e0a8e6d 1e0e  
          </CharString>
          <CharString index="69" raw="1">
            1a5fb05f e4a9aa90 92a01e0b 
          </CharString>
          <CharString index="70" raw="1">
            1e74685d 7c5a1b53 699fac75 1f70b383
            c4c01ac4 94bca1ab 1eaea3b3 97c11bba
            b4827eb1 1f0b  
          </CharString>
          <CharString index="71" raw="1">
            f7421677 1d0b  
          </CharString>
          <CharString index="72" raw="1">
            9d695f9b 591b414b 684e5f1f 64557947
            341a4099 46ae551e 59abbf65 d61bceb0
            a9c3c41f 0b  
          </CharString>
          <CharString index="73" raw="1">
            f760f7ac 154b1d0b  
          </CharString>
          <CharString index="74" raw="1">
            67857d7d 751b7777 0b 
          </CharString>
          <CharString index="75" raw="1">
            891df84b f72e380a  
          </CharString>
          <CharString index="76" raw="1">
            95dd16ef f7fd8d06 ae5ab157 bd49f727
            fb5618f7 2206fb59 f77d60be 5bc26dad
            19adb1b9 bfb0b6f7 52f77018 fb1c06fb
            1efb485b 4c625465 571989f7 f227060b
          </CharString>
          <CharString index="77" raw="1">
            5e547742 361a389e 46b2571e 0b
          </CharString>
          <CharString index="78" raw="1">
            15461d0b   
          </CharString>
          <CharString index="79" raw="1">
            16711d0b   
          </CharString>
          <CharString index="80" raw="1">
            84a4f8ff 158f0afd 00eff900 860a060b
          </CharString>
          <CharString index="81" raw="1">
            35881891 4191fb05 391a0b 
          </CharString>
          <CharString index="82" raw="1">
            15842d85 24862881 fb7818f7 0c0681f7
            7887ee84 f284e919 a4e21540 0a
          </CharString>
          <CharString index="83" raw="1">
            8a84808a 811b5576 a1c21f0b 
          </CharString>
          <CharString index="84" raw="1">
            8b8a601f 8c0b  
          </CharString>
          <CharString index="85" raw="1">
            15667a78 7c651b6d 6e949869 1f9d5c6d
            96661b5a 5677356f 1fbf7105 b09c9e9a
            b21baba6 817fab1f 79bba880 b01bbcc0
            9fe1a81f 0b  
          </CharString>
          <CharString index="86" raw="1">
            23157c1d a6a1e8b3 1f0b 
          </CharString>
          <CharString index="87" raw="1">
            56756666 1f6a6a78 5c561a0b 
          </CharString>
          <CharString index="88" raw="1">
            f3dd167d 0af96a27 fbc4078d 1df7c427
            070b   
          </CharString>
          <CharString index="89" raw="1">
            601d85fb 88601d0e  
          </CharString>
          <CharString index="90" raw="1">
            1542f653 f72ff74d 1af74ec3 f72ed4f7
            001e4eae 0531fb00 48fb37fb 681afb67
            cefb38e5 fb001e0e  
          </CharString>
          <CharString index="91" raw="1">
            921dfb06 16600a0e  
          </CharString>
          <CharString index="92" raw="1">
            91f0053f 0671718b 8a0b 
          </CharString>
          <CharString index="93" raw="1">
            eff7d706 8abdc88a c21bc1c6 8c8cbb1f
            fbd7ef0b   
          </CharString>
          <CharString index="94" raw="1">
            c30693e5 8fe48ee5 0835068e 318f3293
            31080b   
          </CharString>
          <CharString index="95" raw="1">
            078aacc2 8aa21bf3 cba0b4b7 1fbcb9a1
            d2d71ad4 77c65db0 1eb25b48 94391b0e
          </CharString>
          <CharString index="96" raw="1">
            6f658b8a 6e1f8cb2 8baeb41a 0b
          </CharString>
          <CharString index="97" raw="1">
            f7069ac7 aff71b1a 0b 
          </CharString>
          <CharString index="98" raw="1">
            198d060b   
          </CharString>
          <CharString index="99" raw="1">
            154c1d8b 0a4b0a0e  
          </CharString>
          <CharString index="100" raw="1">
            8c6e8d70 8d7808df 068ccc8c f723be1a
            0b   
          </CharString>
          <CharString index="101" raw="1">
            b688bb87 b91e0b  
          </CharString>
          <CharString index="102" raw="1">
            07890afc a60b  
          </CharString>
          <CharString index="103" raw="1">
            f88efb70 05e507fc 16f73305 8d07f816
            f73105e3 07fc8efb 70050e 
          </CharString>
          <CharString index="104" raw="1">
            8705e407 fb53878e f77a0532 068efb7a
            900a0b   
          </CharString>
          <CharString index="105" raw="1">
            8aadbf8b b61be1f6 0b 
          </CharString>
          <CharString index="106" raw="1">
            b4c8a9e1 0b  
          </CharString>
          <CharString index="107" raw="1">
            f706060b   
          </CharString>
          <CharString index="108" raw="1">
            6f5b597b 551b4d58 9fb26c1f 0b
          </CharString>
          <CharString index="109" raw="1">
            9a1d8c0b   
          </CharString>
          <CharString index="110" raw="1">
            15e4069b cf9dd19e cd084806 6e4d6e40
            7a48080e   
          </CharString>
          <CharString index="111" raw="1">
            e106b7be 8b8cad1f 0b 
          </CharString>
          <CharString index="112" raw="1">
            fb528f05 3207f752 8f050b 
          </CharString>
          <CharString index="113" raw="1">
            f96a150b   
          </CharString>
          <CharString index="114" raw="1">
            15f768fa 37fb6837 f70ffd8f fb0f060e
          </CharString>
          <CharString index="115" raw="1">
            867d9d1f a07b9570 661afc09 eaf82807
            0b   
          </CharString>
          <CharString index="116" raw="1">
            15b48bae 8ab31e8a aeb58bae 1b9c06c8
            0b   
          </CharString>
          <CharString index="117" raw="1">
            981d6a6c 90a29ea0 a00b 
          </CharString>
          <CharString index="118" raw="1">
            1e737163 86608908 895c458b 601b0b
          </CharString>
          <CharString index="119" raw="1">
            fb85c1f7 a6961d  
          </CharString>
          <CharString index="120" raw="1">
            f86ed7fc 6e060b  
          </CharString>
          <CharString index="121" raw="1">
            b8aa979d a50b  
          </CharString>
          <CharString index="122" raw="1">
            1e6b7568 7c561b51 629da564 1f0b
          </CharString>
          <CharString index="123" raw="1">
            1f89060b   
          </CharString>
          <CharString index="124" raw="1">
            064afb76 050b  
          </CharString>
          <CharString index="125" raw="1">
            9bc31b0b   
          </CharString>
          <CharString index="126" raw="1">
            2315911d 0b  
          </CharString>
          <CharString index="127" raw="1">
            8cf78dfb 4615e406 880b 
          </CharString>
          <CharString index="128" raw="1">
            15f96fd1 fd6f060e  
          </CharString>
          <CharString index="129" raw="1">
            078cc929 878c5105 0b 
          </CharString>
          <CharString index="130" raw="1">
            fb7df7be 0b  
          </CharString>
          <CharString index="131" raw="1">
            fb79f76d 0b  
          </CharString>
          <CharString index="132" raw="1">
            fb9df7b4 0b  
          </CharString>
          <CharString index="133" raw="1">
            fb67f753 0b  
          </CharString>
          <CharString index="134" raw="1">
            fb6cf753 0b  
          </CharString>
          <CharString index="135" raw="1">
            fb57f80d 0b  
          </CharString>
        <CharString name=".notdef">
          57 10 -21 746 -20 hstem
          150 344 vstem
          150 604 rmoveto
          100 -101 -100 -100 100 -101 -100 -100 212 -213 132 132 -101 100 101 101 -101 100 101 101 -213 212 rlineto
          endchar
        </CharString>
        <CharString name="A">
          68 21 -21 181 97 352 96 0 -20 hstemhm
          6 643 hintmask 11011000
          440 278 rmoveto
          -230 hlineto
          49 150 rlineto
          hintmask 11101000
          21 64 22 68 22 70 rrcurveto
          2 hlineto
          20 -64 24 -74 21 -64 rrcurveto
          258 -428 rmoveto
          -263 726 rlineto
          -119 hlineto
          -261 -726 rlineto
          114 hlineto
          58 181 rlineto
          34 -1 82 -1 31 32 80 1 34 hflex1
          58 -181 rlineto
          endchar
        </CharString>
        <CharString name="AE">
          253 0 100 79 99 37 99 205 107 -80 80 hstemhm
          390 99 hintmask 11110100
          319 480 rmoveto
          hintmask 11101100
          12 28 50 114 8 24 rrcurveto
          2 hlineto
          -1 -60 0 -57 -59 vvcurveto
          -192 -160 vlineto
          384 -178 rmoveto
          -54 -29 0 -1 -43 hvcurveto
          1 38 0 33 40 vvcurveto
          109 vlineto
          24 -1 55 -2 61 -1 119 -2 rcurveline
          3 103 -119 -2 -62 -1 -33 -1 -48 -2 rlinecurve
          99 vlineto
          hintmask 11110100
          40 0 33 -1 38 vhcurveto
          -1 42 27 0 53 hhcurveto
          174 107 -450 hlineto
          -334 -726 rlineto
          109 hlineto
          79 181 rlineto
          -1 35 41 -1 38 hhcurveto
          29 31 0 1 28 hvcurveto
          -178 vlineto
          -2 65 36 0 71 hhcurveto
          229 100 hlineto
          endchar
        </CharString>
        <CharString name="AEacute">
          253 0 100 79 99 37 99 205 107 -80 80 71 144 hstemhm
          390 99 hintmask 11110110
          319 480 rmoveto
          hintmask 11101110
          12 28 50 114 8 24 rrcurveto
          2 hlineto
          -1 -60 0 -57 -59 vvcurveto
          -192 -160 vlineto
          384 -178 rmoveto
          -54 -29 0 -1 -43 hvcurveto
          1 38 0 33 40 vvcurveto
          109 vlineto
          24 -1 55 -2 61 -1 119 -2 rcurveline
          3 103 -119 -2 -62 -1 -33 -1 -48 -2 rlinecurve
          99 vlineto
          hintmask 11110110
          40 0 33 -1 38 vhcurveto
          -1 42 27 0 53 hhcurveto
          174 107 -450 hlineto
          -334 -726 rlineto
          109 hlineto
          79 181 rlineto
          -1 35 41 -1 38 hhcurveto
          29 31 0 1 28 hvcurveto
          -178 vlineto
          -2 65 36 0 71 hhcurveto
          229 100 hlineto
          -266 697 rmoveto
          41 44 40 48 41 52 rrcurveto
          -103 hlineto
          -33 -47 -32 -48 -31 -49 rrcurveto
          endchar
        </CharString>
        <CharString name="Aacute">
          68 21 -21 181 97 352 96 0 -20 91 144 hstemhm
          6 643 hintmask 11011100
          440 278 rmoveto
          -230 hlineto
          49 150 rlineto
          hintmask 11101100
          21 64 22 68 22 70 rrcurveto
          2 hlineto
          20 -64 24 -74 21 -64 rrcurveto
          258 -428 rmoveto
          -263 726 rlineto
          -119 hlineto
          -261 -726 rlineto
          114 hlineto
          58 181 rlineto
          34 -1 82 -1 31 32 80 1 34 hflex1
          58 -181 rlineto
          -194 797 rmoveto
          41 44 40 48 41 52 rrcurveto
          -103 hlineto
          -33 -47 -32 -48 -31 -49 rrcurveto
          endchar
        </CharString>
        <CharString name="Abreve">
          68 21 -21 181 97 352 96 0 -20 87 58 hstemhm
          186 58 163 56 hintmask 11011110
          440 278 rmoveto
          -230 hlineto
          49 150 rlineto
          hintmask 11101110
          21 64 22 68 22 70 rrcurveto
          2 hlineto
          20 -64 24 -74 21 -64 rrcurveto
          258 -428 rmoveto
          -263 726 rlineto
          -119 hlineto
          -261 -726 rlineto
          114 hlineto
          58 181 rlineto
          34 -1 82 -1 31 32 80 1 34 hflex1
          58 -181 rlineto
          -122 941 rmoveto
          -46 -5 -19 -44 -58 hhcurveto
          -56 -20 44 46 -5 hvcurveto
          -58 hlineto
          -84 3 44 -64 91 hhcurveto
          92 44 64 84 3 hvcurveto
          endchar
        </CharString>
        <CharString name="Acircumflex">
          68 21 -21 181 97 352 96 0 -20 91 144 hstemhm
          6 643 hintmask 11011100
          440 278 rmoveto
          -230 hlineto
          49 150 rlineto
          hintmask 11101100
          21 64 22 68 22 70 rrcurveto
          2 hlineto
          20 -64 24 -74 21 -64 rrcurveto
          258 -428 rmoveto
          -263 726 rlineto
          -119 hlineto
          -261 -726 rlineto
          114 hlineto
          58 181 rlineto
          34 -1 82 -1 31 32 80 1 34 hflex1
          58 -181 rlineto
          -272 797 rmoveto
          23 28 22 28 21 30 21 -30 22 -28 23 -28 rrcurveto
          85 hlineto
          -34 47 -36 48 -40 49 rrcurveto
          -79 hlineto
          -40 -49 -36 -48 -34 -47 rrcurveto
          endchar
        </CharString>
        <CharString name="Adieresis">
          68 21 -21 181 97 352 96 0 -20 115 96 hstemhm
          178 98 97 98 hintmask 11011110
          440 278 rmoveto
          -230 hlineto
          49 150 rlineto
          hintmask 11101110
          21 64 22 68 22 70 rrcurveto
          2 hlineto
          20 -64 24 -74 21 -64 rrcurveto
          258 -428 rmoveto
          -263 726 rlineto
          -119 hlineto
          -261 -726 rlineto
          114 hlineto
          58 181 rlineto
          34 -1 82 -1 31 32 80 1 34 hflex1
          58 -181 rlineto
          -256 821 rmoveto
          3 30 0 37 29 vvcurveto
          -98 hlineto
          -29 0 -37 2 -30 vhcurveto
          288 hmoveto
          3 30 0 37 29 vvcurveto
          -98 hlineto
          -29 0 -37 3 -30 vhcurveto
          endchar
        </CharString>
        <CharString name="Agrave">
          68 21 -21 181 97 352 96 0 -20 91 144 hstemhm
          6 643 hintmask 11011100
          440 278 rmoveto
          -230 hlineto
          49 150 rlineto
          hintmask 11101100
          21 64 22 68 22 70 rrcurveto
          2 hlineto
          20 -64 24 -74 21 -64 rrcurveto
          258 -428 rmoveto
          -263 726 rlineto
          -119 hlineto
          -261 -726 rlineto
          114 hlineto
          58 181 rlineto
          34 -1 82 -1 31 32 80 1 34 hflex1
          58 -181 rlineto
          -139 797 rmoveto
          -31 49 -32 48 -33 47 rrcurveto
          -103 hlineto
          41 -52 40 -48 41 -44 rrcurveto
          endchar
        </CharString>
        <CharString name="Amacron">
          68 21 -21 181 97 352 96 0 -20 129 68 hstemhm
          6 643 -461 273 hintmask 11011100
          440 278 rmoveto
          -230 hlineto
          49 150 rlineto
          hintmask 11101100
          21 64 22 68 22 70 rrcurveto
          2 hlineto
          20 -64 24 -74 21 -64 rrcurveto
          258 -428 rmoveto
          -263 726 rlineto
          -119 hlineto
          -261 -726 rlineto
          114 hlineto
          58 181 rlineto
          34 -1 82 -1 31 32 80 1 34 hflex1
          58 -181 rlineto
          hintmask 11011010
          -341 835 rmoveto
          273 68 -273 hlineto
          endchar
        </CharString>
        <CharString name="Aogonek">
          68 -189 81 129 -21 181 97 352 96 0 -20 hstemhm
          448 81 hintmask 11101100
          652 -104 rmoveto
          -2 -17 -21 -2 -20 hhcurveto
          -32 -33 5 22 19 27 22 93 40 hvcurveto
          -263 726 rlineto
          -119 hlineto
          -261 -726 rlineto
          114 hlineto
          58 181 rlineto
          34 -1 82 -1 31 32 80 1 34 hflex1
          58 -181 rlineto
          -53 -30 -28 -33 -38 vvcurveto
          -44 37 -44 89 30 31 5 7 21 vhcurveto
          -216 455 rmoveto
          -230 hlineto
          49 150 rlineto
          hintmask 11110100
          21 64 22 68 22 70 rrcurveto
          2 hlineto
          20 -64 24 -74 21 -64 rrcurveto
          endchar
        </CharString>
        <CharString name="Aring">
          68 21 -21 181 97 352 96 0 -20 69 50 128 50 hstemhm
          210 50 129 50 hintmask 11011111
          440 278 rmoveto
          -230 hlineto
          49 150 rlineto
          hintmask 11101111
          21 64 22 68 22 70 rrcurveto
          2 hlineto
          20 -64 24 -74 21 -64 rrcurveto
          258 -428 rmoveto
          -263 726 rlineto
          -119 hlineto
          -261 -726 rlineto
          114 hlineto
          58 181 rlineto
          34 -1 82 -1 31 32 80 1 34 hflex1
          58 -181 rlineto
          -207 775 rmoveto
          65 52 50 65 65 -47 48 -65 -65 -52 -50 -65 -65 47 -48 65 hvcurveto
          4 50 rmoveto
          -40 -26 30 35 35 22 28 41 40 26 -30 -35 -35 -22 -28 -41 hvcurveto
          endchar
        </CharString>
        <CharString name="Atilde">
          68 21 -21 181 97 352 96 0 -20 104 73 -25 73 hstemhm
          159 56 219 56 hintmask 11010111
          440 278 rmoveto
          -230 hlineto
          49 150 rlineto
          hintmask 11101011
          21 64 22 68 22 70 rrcurveto
          2 hlineto
          20 -64 24 -74 21 -64 rrcurveto
          258 -428 rmoveto
          -263 726 rlineto
          -119 hlineto
          -261 -726 rlineto
          114 hlineto
          58 181 rlineto
          34 -1 82 -1 31 32 80 1 34 hflex1
          58 -181 rlineto
          -95 933 rmoveto
          -36 -6 -14 -14 -22 hhcurveto
          -20 -20 11 12 -21 hvcurveto
          hintmask 11010111
          20 -34 -19 5 -24 hhcurveto
          -29 -58 -9 -106 -8 hvcurveto
          56 -8 rlineto
          36 6 14 14 22 hhcurveto
          20 20 -11 -12 21 hvcurveto
          hintmask 11011011
          -20 35 18 -5 24 hhcurveto
          29 58 9 106 8 hvcurveto
          endchar
        </CharString>
        <CharString name="B">
          43 0 99 222 84 215 106 hstemhm
          82 99 286 99 -81 99 hintmask 11110100
          307 99 rmoveto
          -39 -48 0 -1 -40 hvcurveto
          1 41 0 35 43 vvcurveto
          104 vlineto
          123 -1 37 -1 23 -2 31 -3 29 -6 22 -14 rrcurveto
          27 -17 12 -27 -39 vvcurveto
          -29 -7 -29 -19 -19 vhcurveto
          -25 -25 -43 -10 -63 hhcurveto
          -147 409 rmoveto
          41 0 33 -1 39 vhcurveto
          -1 39 46 0 39 hhcurveto
          18 hlineto
          hintmask 11111000
          42 35 -3 -13 26 hvcurveto
          26 -13 16 -24 -42 vvcurveto
          -36 -11 -28 -19 -19 vhcurveto
          -17 -17 -28 -13 -38 -3 -27 -2 -58 -1 -88 -1 rrcurveto
          127 -405 rmoveto
          hintmask 11110100
          91 73 26 46 49 hvcurveto
          39 37 24 49 65 vvcurveto
          93 -49 48 -85 17 vhcurveto
          2 vlineto
          hintmask 11111000
          72 34 44 46 88 vvcurveto
          66 -25 43 -40 27 vhcurveto
          30 -45 -64 9 -67 hhcurveto
          -43 hlineto
          -64 -65 0 -2 -71 hvcurveto
          -722 vlineto
          -2 65 69 0 61 hhcurveto
          endchar
        </CharString>
        <CharString name="C">
          12 -11 100 540 108 hstem
          44 99 vstem
          554 142 rmoveto
          -27 -43 -64 -26 -71 hhcurveto
          -75 -60 29 51 -39 hvcurveto
          -44 58 -15 81 81 vvcurveto
          86 17 58 32 37 vhcurveto
          40 34 53 19 82 hhcurveto
          71 59 -14 -23 55 hvcurveto
          10 86 rlineto
          35 -45 -67 24 -83 hhcurveto
          -102 -80 -36 -68 -55 hvcurveto
          -49 -61 -31 -88 -118 vvcurveto
          -123 34 -87 43 -57 vhcurveto
          -61 46 74 -49 109 hhcurveto
          93 68 35 41 49 hvcurveto
          endchar
        </CharString>
        <CharString name="CR">
          -371 endchar
        </CharString>
        <CharString name="Cacute">
          12 -11 100 540 108 60 144 hstem
          44 99 vstem
          554 142 rmoveto
          -27 -43 -64 -26 -71 hhcurveto
          -75 -60 29 51 -39 hvcurveto
          -44 58 -15 81 81 vvcurveto
          86 17 58 32 37 vhcurveto
          40 34 53 19 82 hhcurveto
          71 59 -14 -23 55 hvcurveto
          10 86 rlineto
          35 -45 -67 24 -83 hhcurveto
          -102 -80 -36 -68 -55 hvcurveto
          -49 -61 -31 -88 -118 vvcurveto
          -123 34 -87 43 -57 vhcurveto
          -61 46 74 -49 109 hhcurveto
          93 68 35 41 49 hvcurveto
          -191 732 rmoveto
          41 44 40 48 41 52 rrcurveto
          -103 hlineto
          -33 -47 -32 -48 -31 -49 rrcurveto
          endchar
        </CharString>
        <CharString name="Ccaron">
          12 -11 100 540 108 60 144 hstem
          44 99 vstem
          554 142 rmoveto
          -27 -43 -64 -26 -71 hhcurveto
          -75 -60 29 51 -39 hvcurveto
          -44 58 -15 81 81 vvcurveto
          86 17 58 32 37 vhcurveto
          40 34 53 19 82 hhcurveto
          71 59 -14 -23 55 hvcurveto
          10 86 rlineto
          35 -45 -67 24 -83 hhcurveto
          -102 -80 -36 -68 -55 hvcurveto
          -49 -61 -31 -88 -118 vvcurveto
          -123 34 -87 43 -57 vhcurveto
          -61 46 74 -49 109 hhcurveto
          93 68 35 41 49 hvcurveto
          -78 876 rmoveto
          -82 hlineto
          -23 -28 -22 -28 -21 -30 -21 30 -22 28 -23 28 rrcurveto
          -85 hlineto
          34 -47 36 -48 40 -49 rrcurveto
          79 hlineto
          40 49 36 48 34 47 rrcurveto
          endchar
        </CharString>
        <CharString name="Ccedilla">
          12 -190 63 43 47 26 100 -73 -21 634 108 hstemhm
          44 99 141 61.5 22.5 63 hintmask 10101101
          554 142 rmoveto
          -27 -43 -64 -26 -71 hhcurveto
          -75 -60 29 51 -39 hvcurveto
          -44 58 -15 81 81 vvcurveto
          86 17 58 32 37 vhcurveto
          40 34 53 19 82 hhcurveto
          71 59 -14 -23 55 hvcurveto
          10 86 rlineto
          35 -45 -67 24 -83 hhcurveto
          -102 -80 -36 -68 -55 hvcurveto
          -49 -61 -31 -88 -118 vvcurveto
          -123 34 -87 43 -57 vhcurveto
          hintmask 11011111
          37 -49 54 -41 77 -14 -10 -81 rcurveline
          hintmask 11101101
          1 9 17 1 12 hhcurveto
          28 23 -5 -17 -15 -19 -6 -32 -23 -32 3 5 -19 hvcurveto
          -10 -57 rlineto
          -7 18 28 -7 32 hhcurveto
          72 48 33 54 38 -25 27 -62 1 hvcurveto
          hintmask 10101111
          3 26 rlineto
          3 hlineto
          93 68 35 41 49 hvcurveto
          endchar
        </CharString>
        <CharString name="Ccircumflex">
          12 -11 100 540 108 60 144 hstem
          44 99 vstem
          554 142 rmoveto
          -27 -43 -64 -26 -71 hhcurveto
          -75 -60 29 51 -39 hvcurveto
          -44 58 -15 81 81 vvcurveto
          86 17 58 32 37 vhcurveto
          40 34 53 19 82 hhcurveto
          71 59 -14 -23 55 hvcurveto
          10 86 rlineto
          35 -45 -67 24 -83 hhcurveto
          -102 -80 -36 -68 -55 hvcurveto
          -49 -61 -31 -88 -118 vvcurveto
          -123 34 -87 43 -57 vhcurveto
          -61 46 74 -49 109 hhcurveto
          93 68 35 41 49 hvcurveto
          -295 732 rmoveto
          23 28 22 28 21 30 21 -30 22 -28 23 -28 rrcurveto
          85 hlineto
          -34 47 -36 48 -40 49 rrcurveto
          -79 hlineto
          -40 -49 -36 -48 -34 -47 rrcurveto
          endchar
        </CharString>
        <CharString name="Cdotaccent">
          12 -11 100 540 108 84 96 hstem
          44 99 140 99 vstem
          554 142 rmoveto
          -27 -43 -64 -26 -71 hhcurveto
          -75 -60 29 51 -39 hvcurveto
          -44 58 -15 81 81 vvcurveto
          86 17 58 32 37 vhcurveto
          40 34 53 19 82 hhcurveto
          71 59 -14 -23 55 hvcurveto
          10 86 rlineto
          35 -45 -67 24 -83 hhcurveto
          -102 -80 -36 -68 -55 hvcurveto
          -49 -61 -31 -88 -118 vvcurveto
          -123 34 -87 43 -57 vhcurveto
          -61 46 74 -49 109 hhcurveto
          93 68 35 41 49 hvcurveto
          -181 756 rmoveto
          3 30 0 37 29 vvcurveto
          -99 hlineto
          -29 0 -37 3 -30 vhcurveto
          endchar
        </CharString>
        <CharString name="D">
          79 0 100 519 107 hstem
          82 100 343 99 vstem
          298 hmoveto
          117 76 48 62 49 hvcurveto
          54 69 30 100 109 vvcurveto
          92 -21 91 -52 63 vhcurveto
          59 -49 -75 33 -129 hhcurveto
          -65 hlineto
          -53 -49 -1 -1 -49 hvcurveto
          -722 vlineto
          -1 48 53 -1 50 hhcurveto
          62 100 rmoveto
          -19 hlineto
          -28 -38 0 -1 -29 hvcurveto
          1 39 0 35 41 vvcurveto
          283 vlineto
          43 0 39 -1 41 vhcurveto
          -1 30 33 0 30 hhcurveto
          17 hlineto
          98 51 -23 -37 31 hvcurveto
          36 -43 18 -72 -89 vvcurveto
          -65 -10 -74 -39 -48 vhcurveto
          -47 -38 -60 -21 -83 hhcurveto
          endchar
        </CharString>
        <CharString name="Dcaron">
          79 0 100 519 107 71 144 hstem
          82 100 343 99 vstem
          298 hmoveto
          117 76 48 62 49 hvcurveto
          54 69 30 100 109 vvcurveto
          92 -21 91 -52 63 vhcurveto
          59 -49 -75 33 -129 hhcurveto
          -65 hlineto
          -53 -49 -1 -1 -49 hvcurveto
          -722 vlineto
          -1 48 53 -1 50 hhcurveto
          62 100 rmoveto
          -19 hlineto
          -28 -38 0 -1 -29 hvcurveto
          1 39 0 35 41 vvcurveto
          283 vlineto
          43 0 39 -1 41 vhcurveto
          -1 30 33 0 30 hhcurveto
          17 hlineto
          98 51 -23 -37 31 hvcurveto
          36 -43 18 -72 -89 vvcurveto
          -65 -10 -74 -39 -48 vhcurveto
          -47 -38 -60 -21 -83 hhcurveto
          180 841 rmoveto
          -82 hlineto
          -23 -28 -22 -28 -21 -30 -21 30 -22 28 -23 28 rrcurveto
          -85 hlineto
          34 -47 36 -48 40 -49 rrcurveto
          79 hlineto
          40 49 36 48 34 47 rrcurveto
          endchar
        </CharString>
        <CharString name="Dcroat">
          79 0 100 221 90 208 107 hstem
          82 100 343 99 vstem
          276 100 rmoveto
          -28 -38 0 -1 -29 hvcurveto
          1 39 0 35 41 vvcurveto
          107 157 90 -157 86 vlineto
          43 0 39 -1 41 vhcurveto
          -1 30 33 0 30 hhcurveto
          17 hlineto
          98 51 -23 -37 31 hvcurveto
          36 -43 18 -72 -89 vvcurveto
          -65 -10 -74 -39 -48 vhcurveto
          -47 -38 -60 -21 -83 hhcurveto
          3 -100 rmoveto
          117 76 48 62 49 hvcurveto
          54 69 30 100 109 vvcurveto
          92 -21 91 -52 63 vhcurveto
          59 -49 -75 33 -129 hhcurveto
          -65 hlineto
          -53 -49 -1 -1 -49 hvcurveto
          -313 -69 -90 69 -319 vlineto
          -1 48 53 -1 50 hhcurveto
          endchar
        </CharString>
        <CharString name="Delta">
          77 0 100 532 94 0 -20 hstemhm
          12 640 hintmask 10110000
          157 100 rmoveto
          107 328 rlineto
          hintmask 11010000
          21 64 23 72 21 68 rrcurveto
          2 hlineto
          20 -67 23 -72 21 -65 106 -328 rcurveline
          -111 626 rmoveto
          -118 hlineto
          -260 -726 rlineto
          640 hlineto
          endchar
        </CharString>
        <CharString name="E">
          -21 0 100 215 99 205 107 hstem
          82 99 vstem
          517 hmoveto
          100 -177 vlineto
          -54 -63 0 -1 -43 hvcurveto
          1 38 0 33 40 vvcurveto
          109 vlineto
          28 -1 85 -2 61 -1 119 -2 rcurveline
          3 103 -119 -2 -62 -1 -58 -1 -57 -2 rlinecurve
          99 vlineto
          40 0 33 -1 38 vhcurveto
          -1 42 61 0 53 hhcurveto
          174 107 -200 hlineto
          -63 -89 0 -2 -76 hvcurveto
          -722 vlineto
          -2 63 105 0 64 hhcurveto
          endchar
        </CharString>
        <CharString name="Eacute">
          -21 0 100 215 99 205 107 71 144 hstem
          82 99 vstem
          517 hmoveto
          100 -177 vlineto
          -54 -63 0 -1 -43 hvcurveto
          1 38 0 33 40 vvcurveto
          109 vlineto
          28 -1 85 -2 61 -1 119 -2 rcurveline
          3 103 -119 -2 -62 -1 -58 -1 -57 -2 rlinecurve
          99 vlineto
          40 0 33 -1 38 vhcurveto
          -1 42 61 0 53 hhcurveto
          174 107 -200 hlineto
          -63 -89 0 -2 -76 hvcurveto
          -722 vlineto
          -2 63 105 0 64 hhcurveto
          -4 797 rmoveto
          41 44 40 48 41 52 rrcurveto
          -103 hlineto
          -33 -47 -32 -48 -31 -49 rrcurveto
          endchar
        </CharString>
        <CharString name="Ebreve">
          -21 0 100 215 99 205 107 67 58 hstemhm
          82 99 -20 58 163 56 hintmask 11111010
          517 hmoveto
          100 -177 vlineto
          -54 -63 0 -1 -43 hvcurveto
          1 38 0 33 40 vvcurveto
          109 vlineto
          28 -1 85 -2 61 -1 119 -2 rcurveline
          3 103 -119 -2 -62 -1 -58 -1 -57 -2 rlinecurve
          99 vlineto
          40 0 33 -1 38 vhcurveto
          -1 42 61 0 53 hhcurveto
          174 107 -200 hlineto
          -63 -89 0 -2 -76 hvcurveto
          -722 vlineto
          -2 63 105 0 64 hhcurveto
          68 941 rmoveto
          -46 -5 -19 -44 -58 hhcurveto
          hintmask 11110110
          -56 -20 44 46 -5 hvcurveto
          -58 hlineto
          -84 3 44 -64 91 hhcurveto
          92 44 64 84 3 hvcurveto
          endchar
        </CharString>
        <CharString name="Ecaron">
          -21 0 100 215 99 205 107 71 144 hstem
          82 99 vstem
          517 hmoveto
          100 -177 vlineto
          -54 -63 0 -1 -43 hvcurveto
          1 38 0 33 40 vvcurveto
          109 vlineto
          28 -1 85 -2 61 -1 119 -2 rcurveline
          3 103 -119 -2 -62 -1 -58 -1 -57 -2 rlinecurve
          99 vlineto
          40 0 33 -1 38 vhcurveto
          -1 42 61 0 53 hhcurveto
          174 107 -200 hlineto
          -63 -89 0 -2 -76 hvcurveto
          -722 vlineto
          -2 63 105 0 64 hhcurveto
          135 941 rmoveto
          -82 hlineto
          -23 -28 -22 -28 -21 -30 -21 30 -22 28 -23 28 rrcurveto
          -85 hlineto
          34 -47 36 -48 40 -49 rrcurveto
          79 hlineto
          40 49 36 48 34 47 rrcurveto
          endchar
        </CharString>
        <CharString name="Ecircumflex">
          -21 0 100 215 99 205 107 71 144 hstem
          82 99 vstem
          517 hmoveto
          100 -177 vlineto
          -54 -63 0 -1 -43 hvcurveto
          1 38 0 33 40 vvcurveto
          109 vlineto
          28 -1 85 -2 61 -1 119 -2 rcurveline
          3 103 -119 -2 -62 -1 -58 -1 -57 -2 rlinecurve
          99 vlineto
          40 0 33 -1 38 vhcurveto
          -1 42 61 0 53 hhcurveto
          174 107 -200 hlineto
          -63 -89 0 -2 -76 hvcurveto
          -722 vlineto
          -2 63 105 0 64 hhcurveto
          -82 797 rmoveto
          23 28 22 28 21 30 21 -30 22 -28 23 -28 rrcurveto
          85 hlineto
          -34 47 -36 48 -40 49 rrcurveto
          -79 hlineto
          -40 -49 -36 -48 -34 -47 rrcurveto
          endchar
        </CharString>
        <CharString name="Edieresis">
          -21 0 100 215 99 205 107 95 96 hstemhm
          82 99 -28 98 97 98 hintmask 11111010
          517 hmoveto
          100 -177 vlineto
          -54 -63 0 -1 -43 hvcurveto
          1 38 0 33 40 vvcurveto
          109 vlineto
          28 -1 85 -2 61 -1 119 -2 rcurveline
          3 103 -119 -2 -62 -1 -58 -1 -57 -2 rlinecurve
          99 vlineto
          40 0 33 -1 38 vhcurveto
          -1 42 61 0 53 hhcurveto
          174 107 -200 hlineto
          -63 -89 0 -2 -76 hvcurveto
          -722 vlineto
          -2 63 105 0 64 hhcurveto
          hintmask 11110110
          -66 821 rmoveto
          3 30 0 37 29 vvcurveto
          -98 hlineto
          -29 0 -37 2 -30 vhcurveto
          288 hmoveto
          3 30 0 37 29 vvcurveto
          -98 hlineto
          -29 0 -37 3 -30 vhcurveto
          endchar
        </CharString>
        <CharString name="Edotaccent">
          -21 0 100 215 99 205 107 95 96 hstem
          82 99 69 99 vstem
          517 hmoveto
          100 -177 vlineto
          -54 -63 0 -1 -43 hvcurveto
          1 38 0 33 40 vvcurveto
          109 vlineto
          28 -1 85 -2 61 -1 119 -2 rcurveline
          3 103 -119 -2 -62 -1 -58 -1 -57 -2 rlinecurve
          99 vlineto
          40 0 33 -1 38 vhcurveto
          -1 42 61 0 53 hhcurveto
          174 107 -200 hlineto
          -63 -89 0 -2 -76 hvcurveto
          -722 vlineto
          -2 63 105 0 64 hhcurveto
          32 821 rmoveto
          3 30 0 37 29 vvcurveto
          -99 hlineto
          -29 0 -37 3 -30 vhcurveto
          endchar
        </CharString>
        <CharString name="Egrave">
          -21 0 100 215 99 205 107 71 144 hstem
          82 99 vstem
          517 hmoveto
          100 -177 vlineto
          -54 -63 0 -1 -43 hvcurveto
          1 38 0 33 40 vvcurveto
          109 vlineto
          28 -1 85 -2 61 -1 119 -2 rcurveline
          3 103 -119 -2 -62 -1 -58 -1 -57 -2 rlinecurve
          99 vlineto
          40 0 33 -1 38 vhcurveto
          -1 42 61 0 53 hhcurveto
          174 107 -200 hlineto
          -63 -89 0 -2 -76 hvcurveto
          -722 vlineto
          -2 63 105 0 64 hhcurveto
          51 797 rmoveto
          -31 49 -32 48 -33 47 rrcurveto
          -103 hlineto
          41 -52 40 -48 41 -44 rrcurveto
          endchar
        </CharString>
        <CharString name="Emacron">
          -21 0 100 215 99 205 107 109 68 hstemhm
          82 99 -18 273 hintmask 11111000
          517 hmoveto
          100 -177 vlineto
          -54 -63 0 -1 -43 hvcurveto
          1 38 0 33 40 vvcurveto
          109 vlineto
          28 -1 85 -2 61 -1 119 -2 rcurveline
          3 103 -119 -2 -62 -1 -58 -1 -57 -2 rlinecurve
          99 vlineto
          40 0 33 -1 38 vhcurveto
          -1 42 61 0 53 hhcurveto
          174 107 -200 hlineto
          -63 -89 0 -2 -76 hvcurveto
          -722 vlineto
          -2 63 105 0 64 hhcurveto
          hintmask 11110100
          -151 835 rmoveto
          273 68 -273 hlineto
          endchar
        </CharString>
        <CharString name="Eng">
          124 -168 -21 210 -21 573 153 0 -20 hstemhm
          82 94 359 94 hintmask 11011100
          535 726 rmoveto
          -398 vlineto
          -48 1 -93 1 -37 vhcurveto
          -2 hlineto
          -86 152 -119 207 -126 217 rrcurveto
          -122 -726 94 408 hlineto
          hintmask 11101100
          44 -1 84 37 vvcurveto
          2 hlineto
          99 -165 115 -190 144 -235 -2 -56 -23 -22 -74 -17 19 -77 rcurveline
          114 15 60 36 135 vvcurveto
          729 vlineto
          endchar
        </CharString>
        <CharString name="Eogonek">
          -21 -189 81 108 100 215 99 205 107 hstem
          82 99 135 81 vstem
          520 -104 rmoveto
          -2 -17 -21 -2 -20 hhcurveto
          -32 -33 5 22 19 27 22 93 40 hvcurveto
          100 -177 vlineto
          -54 -63 0 -1 -43 hvcurveto
          1 38 0 33 40 vvcurveto
          109 vlineto
          28 -1 85 -2 61 -1 119 -2 rcurveline
          3 103 -119 -2 -62 -1 -58 -1 -57 -2 rlinecurve
          99 vlineto
          40 0 33 -1 38 vhcurveto
          -1 42 61 0 53 hhcurveto
          174 107 -200 hlineto
          -63 -89 0 -2 -76 hvcurveto
          -722 vlineto
          -2 63 105 0 64 hhcurveto
          79 -2 hlineto
          -51 -29 -26 -33 -37 vvcurveto
          -44 37 -44 89 30 31 5 7 21 vhcurveto
          endchar
        </CharString>
        <CharString name="Eth">
          79 0 100 221 90 208 107 hstem
          82 100 343 99 vstem
          276 100 rmoveto
          -28 -38 0 -1 -29 hvcurveto
          1 39 0 35 41 vvcurveto
          107 157 90 -157 86 vlineto
          43 0 39 -1 41 vhcurveto
          -1 30 33 0 30 hhcurveto
          17 hlineto
          98 51 -23 -37 31 hvcurveto
          36 -43 18 -72 -89 vvcurveto
          -65 -10 -74 -39 -48 vhcurveto
          -47 -38 -60 -21 -83 hhcurveto
          3 -100 rmoveto
          117 76 48 62 49 hvcurveto
          54 69 30 100 109 vvcurveto
          92 -21 91 -52 63 vhcurveto
          59 -49 -75 33 -129 hhcurveto
          -65 hlineto
          -53 -49 -1 -1 -49 hvcurveto
          -313 -69 -90 69 -319 vlineto
          -1 48 53 -1 50 hhcurveto
          endchar
        </CharString>
        <CharString name="Euro">
          -30 -11 95 157 74 74 74 146 102 hstem
          99 91 vstem
          519 125 rmoveto
          -25 -37 -45 -16 -55 hhcurveto
          -64 -50 22 54 -33 hvcurveto
          -19 31 -7 27 -6 24 203 -2 rcurveline
          76 vlineto
          -214 -2 rlineto
          -1 19 -1 20 20 vvcurveto
          17 vlineto
          216 -2 rlineto
          76 vlineto
          -210 -2 6 31 7 27 18 28 rlinecurve
          42 27 41 19 71 hhcurveto
          46 52 -8 -19 46 hvcurveto
          11 80 rlineto
          29 -36 -45 20 -67 hhcurveto
          -83 -79 -32 -77 -51 hvcurveto
          -24 -36 -19 -48 -10 -56 -80 2 rcurveline
          -76 vlineto
          72 2 rlineto
          -1 -13 0 -13 0 -14 0 -12 0 -12 1 -12 50 flex
          -72 1 rlineto
          -75 vlineto
          80 2 9 -58 18 -47 22 -37 rlinecurve
          -73 44 69 -38 88 hhcurveto
          77 59 29 37 43 hvcurveto
          endchar
        </CharString>
        <CharString name="Euro.denominator">
          -222 -7 71 76 51.5 37.5 51.5 69.5 76 hstemhm
          27 238 -198 71 hintmask 11110100
          330 86 rmoveto
          -13 -22 -27 -9 -31 hhcurveto
          -38 -29 13 28 -18 hvcurveto
          -7 10 -5 13 -4 13 rrcurveto
          hintmask 11111000
          116 -2 rlineto
          53 vlineto
          hintmask 11110100
          -126 -1 rlineto
          -1 10 0 11 11 vvcurveto
          7 vlineto
          hintmask 11111000
          127 -2 rlineto
          53 vlineto
          -122 -1 4 16 6 13 7 10 rlinecurve
          21 15 25 10 39 hhcurveto
          28 31 -5 -9 27 hvcurveto
          9 63 rlineto
          15 -21 -28 12 -42 hhcurveto
          hintmask 11110100
          -50 -50 -17 -49 -35 hvcurveto
          -15 -21 -12 -27 -7 -32 -47 1 rcurveline
          -53 vlineto
          41 2 rlineto
          -1 -7 0 -8 -7 vvcurveto
          -17 vlineto
          -40 1 rlineto
          -53 vlineto
          hintmask 11111000
          46 2 6 -32 11 -28 14 -21 rlinecurve
          -42 27 43 -25 58 hhcurveto
          48 38 17 21 26 hvcurveto
          endchar
        </CharString>
        <CharString name="Euro.inferior">
          -222 -139 71 76 51.5 37.5 51.5 69.5 76 hstemhm
          27 238 -198 71 hintmask 11100100
          330 -46 rmoveto
          -13 -22 -27 -9 -31 hhcurveto
          -38 -29 13 28 -18 hvcurveto
          -7 10 -5 13 -4 13 rrcurveto
          hintmask 11101000
          116 -2 rlineto
          53 vlineto
          hintmask 11100100
          -126 -1 rlineto
          -1 10 0 11 11 vvcurveto
          7 vlineto
          hintmask 11111000
          127 -2 rlineto
          53 vlineto
          -122 -1 4 16 6 13 7 10 rlinecurve
          21 15 25 10 39 hhcurveto
          28 31 -5 -9 27 hvcurveto
          9 63 rlineto
          15 -21 -28 12 -42 hhcurveto
          hintmask 11110100
          -50 -50 -17 -49 -35 hvcurveto
          -15 -21 -12 -27 -7 -32 -47 1 rcurveline
          -53 vlineto
          41 2 rlineto
          -1 -7 0 -8 -7 vvcurveto
          -17 vlineto
          -40 1 rlineto
          -53 vlineto
          hintmask 11101000
          46 2 6 -32 11 -28 14 -21 rlinecurve
          -42 27 43 -25 58 hhcurveto
          48 38 17 21 26 hvcurveto
          endchar
        </CharString>
        <CharString name="Euro.numerator">
          -222 273 71 76 51.5 37.5 51.5 69.5 76 hstemhm
          27 238 -198 71 hintmask 11100100
          330 366 rmoveto
          -13 -22 -27 -9 -31 hhcurveto
          -38 -29 13 28 -18 hvcurveto
          -7 10 -5 13 -4 13 rrcurveto
          hintmask 11101000
          116 -2 rlineto
          53 vlineto
          hintmask 11100100
          -126 -1 rlineto
          -1 10 0 11 11 vvcurveto
          7 vlineto
          hintmask 11111000
          127 -2 rlineto
          53 vlineto
          -122 -1 4 16 6 13 7 10 rlinecurve
          21 15 25 10 39 hhcurveto
          28 31 -5 -9 27 hvcurveto
          9 63 rlineto
          15 -21 -28 12 -42 hhcurveto
          hintmask 11110100
          -50 -50 -17 -49 -35 hvcurveto
          -15 -21 -12 -27 -7 -32 -47 1 rcurveline
          -53 vlineto
          41 2 rlineto
          -1 -7 0 -8 -7 vvcurveto
          -17 vlineto
          -40 1 rlineto
          -53 vlineto
          hintmask 11101000
          46 2 6 -32 11 -28 14 -21 rlinecurve
          -42 27 43 -25 58 hhcurveto
          48 38 17 21 26 hvcurveto
          endchar
        </CharString>
        <CharString name="Euro.superior">
          -222 415 71 76 51.5 37.5 51.5 69.5 76 hstemhm
          27 238 -198 71 hintmask 11100100
          330 508 rmoveto
          -13 -22 -27 -9 -31 hhcurveto
          -38 -29 13 28 -18 hvcurveto
          -7 10 -5 13 -4 13 rrcurveto
          hintmask 11101000
          116 -2 rlineto
          53 vlineto
          hintmask 11100100
          -126 -1 rlineto
          -1 10 0 11 11 vvcurveto
          7 vlineto
          hintmask 11111000
          127 -2 rlineto
          53 vlineto
          -122 -1 4 16 6 13 7 10 rlinecurve
          21 15 25 10 39 hhcurveto
          28 31 -5 -9 27 hvcurveto
          9 63 rlineto
          15 -21 -28 12 -42 hhcurveto
          hintmask 11110100
          -50 -50 -17 -49 -35 hvcurveto
          -15 -21 -12 -27 -7 -32 -47 1 rcurveline
          -53 vlineto
          41 2 rlineto
          -1 -7 0 -8 -7 vvcurveto
          -17 vlineto
          -40 1 rlineto
          -53 vlineto
          hintmask 11101000
          46 2 6 -32 11 -28 14 -21 rlinecurve
          -42 27 43 -25 58 hhcurveto
          48 38 17 21 26 hvcurveto
          endchar
        </CharString>
        <CharString name="F">
          -35 21 -21 309 99 211 107 hstem
          82 100 vstem
          182 hmoveto
          313 vlineto
          28 -1 84 -2 61 -1 119 -2 rcurveline
          3 103 -119 -2 -62 -1 -57 -1 -57 -2 rlinecurve
          105 vlineto
          40 0 33 -1 38 vhcurveto
          -1 42 60 0 53 hhcurveto
          174 107 -199 hlineto
          -63 -90 0 -2 -76 hvcurveto
          -724 vlineto
          endchar
        </CharString>
        <CharString name="G">
          58 -11 97 194 101 248 108 hstem
          44 99 340 97 vstem
          580 179 rmoveto
          58 0 85 -1 58 vhcurveto
          1 -52 -85 0 -111 hhcurveto
          -2 -101 rlineto
          79 42 1 1 34 hvcurveto
          -1 -35 0 -49 -45 vvcurveto
          -47 vlineto
          -13 -29 -36 -7 -40 hhcurveto
          -80 -58 27 49 -38 hvcurveto
          -41 53 -18 75 95 vvcurveto
          83 15 61 37 42 vhcurveto
          40 35 54 18 77 hhcurveto
          70 62 -15 -27 65 hvcurveto
          10 88 rlineto
          37 -49 -71 25 -84 hhcurveto
          -99 -82 -34 -72 -58 hvcurveto
          -51 -63 -30 -88 -116 vvcurveto
          -116 31 -89 47 -62 vhcurveto
          -63 48 73 -45 112 hhcurveto
          97 79 33 37 49 hvcurveto
          endchar
        </CharString>
        <CharString name="Gbreve">
          58 -11 97 194 101 248 108 56 58 hstemhm
          44 99 54 58 163 56 9 97 hintmask 11111101
          580 179 rmoveto
          58 0 85 -1 58 vhcurveto
          1 -52 -85 0 -111 hhcurveto
          -2 -101 rlineto
          79 42 1 1 34 hvcurveto
          -1 -35 0 -49 -45 vvcurveto
          -47 vlineto
          -13 -29 -36 -7 -40 hhcurveto
          -80 -58 27 49 -38 hvcurveto
          -41 53 -18 75 95 vvcurveto
          83 15 61 37 42 vhcurveto
          40 35 54 18 77 hhcurveto
          70 62 -15 -27 65 hvcurveto
          10 88 rlineto
          37 -49 -71 25 -84 hhcurveto
          -99 -82 -34 -72 -58 hvcurveto
          -51 -63 -30 -88 -116 vvcurveto
          -116 31 -89 47 -62 vhcurveto
          -63 48 73 -45 112 hhcurveto
          97 79 33 37 49 hvcurveto
          hintmask 11111111
          -162 882 rmoveto
          -46 -5 -19 -44 -58 hhcurveto
          -56 -20 44 46 -5 hvcurveto
          -58 hlineto
          -84 3 44 -64 91 hhcurveto
          92 44 64 84 3 hvcurveto
          endchar
        </CharString>
        <CharString name="Gcircumflex">
          58 -11 97 194 101 248 108 60 144 hstem
          44 99 340 97 vstem
          580 179 rmoveto
          58 0 85 -1 58 vhcurveto
          1 -52 -85 0 -111 hhcurveto
          -2 -101 rlineto
          79 42 1 1 34 hvcurveto
          -1 -35 0 -49 -45 vvcurveto
          -47 vlineto
          -13 -29 -36 -7 -40 hhcurveto
          -80 -58 27 49 -38 hvcurveto
          -41 53 -18 75 95 vvcurveto
          83 15 61 37 42 vhcurveto
          40 35 54 18 77 hhcurveto
          70 62 -15 -27 65 hvcurveto
          10 88 rlineto
          37 -49 -71 25 -84 hhcurveto
          -99 -82 -34 -72 -58 hvcurveto
          -51 -63 -30 -88 -116 vvcurveto
          -116 31 -89 47 -62 vhcurveto
          -63 48 73 -45 112 hhcurveto
          97 79 33 37 49 hvcurveto
          -312 738 rmoveto
          23 28 22 28 21 30 21 -30 22 -28 23 -28 rrcurveto
          85 hlineto
          -34 47 -36 48 -40 49 rrcurveto
          -79 hlineto
          -40 -49 -36 -48 -34 -47 rrcurveto
          endchar
        </CharString>
        <CharString name="Gcommaaccent">
          58 -258 204 43 97 194 101 248 108 hstem
          44 99 340 97 vstem
          580 179 rmoveto
          58 0 85 -1 58 vhcurveto
          1 -52 -85 0 -111 hhcurveto
          -2 -101 rlineto
          79 42 1 1 34 hvcurveto
          -1 -35 0 -49 -45 vvcurveto
          -47 vlineto
          -13 -29 -36 -7 -40 hhcurveto
          -80 -58 27 49 -38 hvcurveto
          -41 53 -18 75 95 vvcurveto
          83 15 61 37 42 vhcurveto
          40 35 54 18 77 hhcurveto
          70 62 -15 -27 65 hvcurveto
          10 88 rlineto
          37 -49 -71 25 -84 hhcurveto
          -99 -82 -34 -72 -58 hvcurveto
          -51 -63 -30 -88 -116 vvcurveto
          -116 31 -89 47 -62 vhcurveto
          -63 48 73 -45 112 hhcurveto
          97 79 33 37 49 hvcurveto
          -264 -113 rmoveto
          -16 -68 -18 -70 -19 -66 rrcurveto
          67 hlineto
          29 62 29 75 17 67 rrcurveto
          endchar
        </CharString>
        <CharString name="Gdotaccent">
          58 -11 97 194 101 248 108 84 96 hstem
          44 99 143 99 98 97 vstem
          580 179 rmoveto
          58 0 85 -1 58 vhcurveto
          1 -52 -85 0 -111 hhcurveto
          -2 -101 rlineto
          79 42 1 1 34 hvcurveto
          -1 -35 0 -49 -45 vvcurveto
          -47 vlineto
          -13 -29 -36 -7 -40 hhcurveto
          -80 -58 27 49 -38 hvcurveto
          -41 53 -18 75 95 vvcurveto
          83 15 61 37 42 vhcurveto
          40 35 54 18 77 hhcurveto
          70 62 -15 -27 65 hvcurveto
          10 88 rlineto
          37 -49 -71 25 -84 hhcurveto
          -99 -82 -34 -72 -58 hvcurveto
          -51 -63 -30 -88 -116 vvcurveto
          -116 31 -89 47 -62 vhcurveto
          -63 48 73 -45 112 hhcurveto
          97 79 33 37 49 hvcurveto
          -198 762 rmoveto
          3 30 0 37 29 vvcurveto
          -99 hlineto
          -29 0 -37 3 -30 vhcurveto
          endchar
        </CharString>
        <CharString name="H">
          104 21 -21 323 99 304 -20 hstem
          82 100 327 100 vstem
          82 hmoveto
          100 323 hlineto
          50 -1 61 -1 55 54 59 1 48 hflex1
          -323 100 726 -100 -304 vlineto
          -48 1 -59 1 -54 -55 -61 -1 -50 hflex1
          304 -100 vlineto
          endchar
        </CharString>
        <CharString name="Hbar">
          104 21 -21 323 99 106 88 -88 198 hstemhm
          82 100 327 100 hintmask 11011100
          509 422 rmoveto
          -48 1 -59 1 -54 -55 -61 -1 -50 hflex1
          106 327 vlineto
          hintmask 11101100
          166 88 rmoveto
          -66 hlineto
          hintmask 11011100
          110 -100 vlineto
          hintmask 11101100
          -110 -327 vlineto
          hintmask 11011100
          110 -100 vlineto
          hintmask 11101100
          -110 -66 vlineto
          hintmask 11011100
          -88 66 -528 100 323 vlineto
          50 -1 61 -1 55 54 59 1 48 hflex1
          -323 100 528 66 vlineto
          endchar
        </CharString>
        <CharString name="Hcircumflex">
          104 21 -21 323 99 304 -20 91 144 hstem
          82 100 327 100 vstem
          82 hmoveto
          100 323 hlineto
          50 -1 61 -1 55 54 59 1 48 hflex1
          -323 100 726 -100 -304 vlineto
          -48 1 -59 1 -54 -55 -61 -1 -50 hflex1
          304 -100 vlineto
          196 71 rmoveto
          23 28 22 28 21 30 21 -30 22 -28 23 -28 rrcurveto
          85 hlineto
          -34 47 -36 48 -40 49 rrcurveto
          -79 hlineto
          -40 -49 -36 -48 -34 -47 rrcurveto
          endchar
        </CharString>
        <CharString name="I">
          -323 21 -21 726 -20 hstem
          82 100 vstem
          182 hmoveto
          726 -100 -726 vlineto
          endchar
        </CharString>
        <CharString name="IJ">
          74 -11 95 -84 20 706 -20 hstemhm
          82 100 300 100 hintmask 01111000
          182 hmoveto
          726 -100 -726 vlineto
          500 726 rmoveto
          -100 -534 hlineto
          hintmask 10111000
          -34 -5 -26 -14 -18 vhcurveto
          -22 -16 -25 -8 -32 hhcurveto
          -33 -34 8 11 -29 hvcurveto
          hintmask 01111000
          -12 -83 rlineto
          hintmask 10111000
          -18 29 36 -13 46 hhcurveto
          65 47 26 34 28 hvcurveto
          30 37 19 56 63 vvcurveto
          endchar
        </CharString>
        <CharString name="Iacute">
          -323 21 -21 726 -20 91 144 hstem
          82 100 vstem
          182 hmoveto
          726 -100 -726 vlineto
          61 797 rmoveto
          41 44 40 48 41 52 rrcurveto
          -103 hlineto
          -33 -47 -32 -48 -31 -49 rrcurveto
          endchar
        </CharString>
        <CharString name="Ibreve">
          -323 21 -21 726 -20 87 58 hstemhm
          -6 58 30 100 33 56 hintmask 11101100
          182 hmoveto
          726 -100 -726 vlineto
          133 941 rmoveto
          -46 -5 -19 -44 -58 hhcurveto
          hintmask 11111100
          -56 -20 44 46 -5 hvcurveto
          -58 hlineto
          -84 3 44 -64 91 hhcurveto
          92 44 64 84 3 hvcurveto
          endchar
        </CharString>
        <CharString name="Icircumflex">
          -323 21 -21 726 -20 91 144 hstem
          82 100 vstem
          182 hmoveto
          726 -100 -726 vlineto
          -17 797 rmoveto
          23 28 22 28 21 30 21 -30 22 -28 23 -28 rrcurveto
          85 hlineto
          -34 47 -36 48 -40 49 rrcurveto
          -79 hlineto
          -40 -49 -36 -48 -34 -47 rrcurveto
          endchar
        </CharString>
        <CharString name="Idieresis">
          -323 21 -21 726 -20 115 96 hstemhm
          -14 98 -2 100 -1 98 hintmask 11101000
          182 hmoveto
          726 -100 -726 vlineto
          hintmask 11110100
          -1 821 rmoveto
          3 30 0 37 29 vvcurveto
          -98 hlineto
          -29 0 -37 2 -30 vhcurveto
          288 hmoveto
          3 30 0 37 29 vvcurveto
          -98 hlineto
          -29 0 -37 3 -30 vhcurveto
          endchar
        </CharString>
        <CharString name="Idotaccent">
          -323 21 -21 726 -20 115 96 hstem
          82 100 vstem
          182 hmoveto
          726 -100 -726 vlineto
          97 821 rmoveto
          3 30 0 37 29 vvcurveto
          -99 hlineto
          -29 0 -37 3 -30 vhcurveto
          endchar
        </CharString>
        <CharString name="Igrave">
          -323 21 -21 726 -20 91 144 hstem
          82 100 vstem
          182 hmoveto
          726 -100 -726 vlineto
          116 797 rmoveto
          -31 49 -32 48 -33 47 rrcurveto
          -103 hlineto
          41 -52 40 -48 41 -44 rrcurveto
          endchar
        </CharString>
        <CharString name="Imacron">
          -323 21 -21 726 -20 129 68 hstem
          82 100 vstem
          182 hmoveto
          726 -100 -726 vlineto
          -86 835 rmoveto
          273 68 -273 hlineto
          endchar
        </CharString>
        <CharString name="Iogonek">
          -323 -189 81 129 -21 726 -20 hstemhm
          12 81 -11 100 hintmask 11101000
          216 -104 rmoveto
          hintmask 11110000
          -2 -17 -21 -2 -21 hhcurveto
          -33 -31 5 23 hvcurveto
          hintmask 11101000
          19 21 21 68 40 vhcurveto
          726 -100 -726 vlineto
          hintmask 11110000
          -31 -20 -39 -36 -45 vvcurveto
          -44 37 -44 89 30 31 5 7 21 vhcurveto
          endchar
        </CharString>
        <CharString name="Itilde">
          -323 21 -21 726 -20 104 73 -25 73 hstemhm
          -33 56 59 100 60 56 hintmask 11010100
          182 hmoveto
          726 -100 -726 vlineto
          hintmask 11100110
          160 933 rmoveto
          -36 -6 -14 -14 -22 hhcurveto
          -20 -20 11 12 -21 hvcurveto
          hintmask 11011100
          20 -34 -19 5 -24 hhcurveto
          -29 -58 -9 -106 -8 hvcurveto
          56 -8 rlineto
          36 6 14 14 22 hhcurveto
          20 20 -11 -12 21 hvcurveto
          hintmask 11100110
          -20 35 18 -5 24 hhcurveto
          29 58 9 106 8 hvcurveto
          endchar
        </CharString>
        <CharString name="J">
          -190 -11 95 642 -20 hstem
          218 100 vstem
          318 726 rmoveto
          -100 -534 hlineto
          -34 -5 -26 -14 -18 vhcurveto
          -22 -16 -25 -8 -32 hhcurveto
          -33 -34 8 11 -29 hvcurveto
          -12 -83 rlineto
          -18 29 36 -13 46 hhcurveto
          65 47 26 34 28 hvcurveto
          30 37 19 56 63 vvcurveto
          endchar
        </CharString>
        <CharString name="Jcircumflex">
          -190 -11 95 642 -20 91 144 hstem
          218 100 vstem
          318 726 rmoveto
          -100 -534 hlineto
          -34 -5 -26 -14 -18 vhcurveto
          -22 -16 -25 -8 -32 hhcurveto
          -33 -34 8 11 -29 hvcurveto
          -12 -83 rlineto
          -18 29 36 -13 46 hhcurveto
          65 47 26 34 28 hvcurveto
          30 37 19 56 63 vvcurveto
          -116 592 rmoveto
          23 28 22 28 21 30 21 -30 22 -28 23 -28 rrcurveto
          85 hlineto
          -34 47 -36 48 -40 49 rrcurveto
          -79 hlineto
          -40 -49 -36 -48 -34 -47 rrcurveto
          endchar
        </CharString>
        <CharString name="K">
          10 21 -21 361 15 350 -20 hstem
          82 100 vstem
          82 hmoveto
          100 361 2 hlineto
          35 -49 38 -52 50 -66 147 -194 rcurveline
          142 hlineto
          -197 233 -43 51 -48 55 -30 34 rlinecurve
          34 38 46 52 37 43 190 220 rcurveline
          -136 hlineto
          -138 -180 -48 -63 -41 -55 -38 -52 rlinecurve
          -2 350 -100 hlineto
          endchar
        </CharString>
        <CharString name="Kcommaaccent">
          10 -258 204 75 -21 361 15 350 -20 hstem
          82 100 vstem
          82 hmoveto
          100 361 2 hlineto
          35 -49 38 -52 50 -66 147 -194 rcurveline
          142 hlineto
          -197 233 -43 51 -48 55 -30 34 rlinecurve
          34 38 46 52 37 43 190 220 rcurveline
          -136 hlineto
          -138 -180 -48 -63 -41 -55 -38 -52 rlinecurve
          -2 350 -100 hlineto
          195 -780 rmoveto
          -16 -68 -18 -70 -19 -66 rrcurveto
          67 hlineto
          29 62 29 75 17 67 rrcurveto
          endchar
        </CharString>
        <CharString name="L">
          -55 0 100 626 -20 hstem
          82 100 vstem
          510 hmoveto
          100 -168 vlineto
          -54 -64 0 -1 -43 hvcurveto
          1 60 0 69 81 vvcurveto
          417 -100 -724 vlineto
          -2 78 91 0 64 hhcurveto
          endchar
        </CharString>
        <CharString name="Lacute">
          -55 0 100 626 -20 91 144 hstem
          82 100 vstem
          510 hmoveto
          100 -168 vlineto
          -54 -64 0 -1 -43 hvcurveto
          1 60 0 69 81 vvcurveto
          417 -100 -724 vlineto
          -2 78 91 0 64 hhcurveto
          -142 797 rmoveto
          41 44 40 48 41 52 rrcurveto
          -103 hlineto
          -33 -47 -32 -48 -31 -49 rrcurveto
          endchar
        </CharString>
        <CharString name="Lcaron">
          -55 0 100 626 -20 48 -20 hstemhm
          82 100 hintmask 10110000
          510 hmoveto
          100 -168 vlineto
          -54 -64 0 -1 -43 hvcurveto
          1 60 0 69 81 vvcurveto
          hintmask 11110000
          417 -100 -724 vlineto
          -2 78 91 0 64 hhcurveto
          -1 485 rmoveto
          hintmask 10110000
          33 84 27 98 13 87 rrcurveto
          -92 hlineto
          -11 -87 -14 -90 -16 -92 rrcurveto
          endchar
        </CharString>
        <CharString name="Lcommaaccent">
          -55 -258 204 54 100 626 -20 hstem
          82 100 vstem
          510 hmoveto
          100 -168 vlineto
          -54 -64 0 -1 -43 hvcurveto
          1 60 0 69 81 vvcurveto
          417 -100 -724 vlineto
          -2 78 91 0 64 hhcurveto
          -47 -54 rmoveto
          -16 -68 -18 -70 -19 -66 rrcurveto
          67 hlineto
          29 62 29 75 17 67 rrcurveto
          endchar
        </CharString>
        <CharString name="Ldot">
          -55 0 100 245 96 285 -20 hstem
          82 100 165 99 vstem
          510 hmoveto
          100 -168 vlineto
          -54 -64 0 -1 -43 hvcurveto
          1 60 0 69 81 vvcurveto
          417 -100 -724 vlineto
          -2 78 91 0 64 hhcurveto
          128 345 rmoveto
          3 30 0 37 29 vvcurveto
          -99 hlineto
          -29 0 -37 3 -30 vhcurveto
          endchar
        </CharString>
        <CharString name="Lslash">
          -55 0 100 626 -20 hstem
          82 100 vstem
          342 100 rmoveto
          -54 -64 0 -1 -43 hvcurveto
          1 60 0 69 105 vvcurveto
          126 82 rlineto
          107 vlineto
          -126 -82 rlineto
          286 -100 -351 vlineto
          -73 -48 rlineto
          -107 vlineto
          73 48 rlineto
          -266 vlineto
          -2 78 91 0 64 hhcurveto
          195 100 hlineto
          endchar
        </CharString>
        <CharString name="M">
          268 0 117 -96 -21 591 135 hstemhm
          82 93 501 97 hintmask 01111000
          82 hmoveto
          94 hlineto
          -1 391 rlineto
          61 -2 98 -1 41 vhcurveto
          2 hlineto
          66 -195 70 -198 73 -198 rrcurveto
          85 hlineto
          73 199 71 200 65 192 rrcurveto
          2 hlineto
          -1 -41 -2 -85 -71 vvcurveto
          -2 -394 rlineto
          99 726 -149 hlineto
          hintmask 10111000
          -66 -200 -66 -203 -63 -206 rrcurveto
          -2 hlineto
          -62 206 -66 202 -67 201 rrcurveto
          -150 hlineto
          endchar
        </CharString>
        <CharString name="N">
          124 0 150 -129 -21 573 153 0 -20 hstemhm
          82 94 359 94 hintmask 01011100
          176 hmoveto
          408 vlineto
          hintmask 01101100
          44 -1 84 37 vvcurveto
          2 hlineto
          100 -167 102 -168 146 -238 rrcurveto
          104 726 -94 -398 hlineto
          hintmask 10011100
          -48 1 -93 1 -37 vhcurveto
          -2 hlineto
          -86 152 -119 207 -126 217 rrcurveto
          -122 -726 hlineto
          endchar
        </CharString>
        <CharString name="Nacute">
          124 0 150 -129 -21 573 153 0 -20 91 144 hstemhm
          82 94 359 94 hintmask 01011110
          176 hmoveto
          408 vlineto
          hintmask 01101110
          44 -1 84 37 vvcurveto
          2 hlineto
          100 -167 102 -168 146 -238 rrcurveto
          104 726 -94 -398 hlineto
          hintmask 10011110
          -48 1 -93 1 -37 vhcurveto
          -2 hlineto
          -86 152 -119 207 -126 217 rrcurveto
          -122 -726 hlineto
          285 797 rmoveto
          41 44 40 48 41 52 rrcurveto
          -103 hlineto
          -33 -47 -32 -48 -31 -49 rrcurveto
          endchar
        </CharString>
        <CharString name="Ncaron">
          124 0 150 -129 -21 573 153 0 -20 91 144 hstemhm
          82 94 359 94 hintmask 01011110
          176 hmoveto
          408 vlineto
          hintmask 01101110
          44 -1 84 37 vvcurveto
          2 hlineto
          100 -167 102 -168 146 -238 rrcurveto
          104 726 -94 -398 hlineto
          hintmask 10011110
          -48 1 -93 1 -37 vhcurveto
          -2 hlineto
          -86 152 -119 207 -126 217 rrcurveto
          -122 -726 hlineto
          424 941 rmoveto
          -82 hlineto
          -23 -28 -22 -28 -21 -30 -21 30 -22 28 -23 28 rrcurveto
          -85 hlineto
          34 -47 36 -48 40 -49 rrcurveto
          79 hlineto
          40 49 36 48 34 47 rrcurveto
          endchar
        </CharString>
        <CharString name="Ncommaaccent">
          124 -258 204 54 150 -129 -21 573 153 0 -20 hstemhm
          82 94 359 94 hintmask 10101110
          176 hmoveto
          408 vlineto
          hintmask 10110110
          44 -1 84 37 vvcurveto
          2 hlineto
          100 -167 102 -168 146 -238 rrcurveto
          104 726 -94 -398 hlineto
          hintmask 11001110
          -48 1 -93 1 -37 vhcurveto
          -2 hlineto
          -86 152 -119 207 -126 217 rrcurveto
          -122 -726 hlineto
          253 -54 rmoveto
          -16 -68 -18 -70 -19 -66 rrcurveto
          67 hlineto
          29 62 29 75 17 67 rrcurveto
          endchar
        </CharString>
        <CharString name="Ntilde">
          124 0 150 -129 -21 573 153 0 -20 104 73 -25 73 hstemhm
          82 94 15 56 219 56 13 94 hintmask 0101011001000000
          176 hmoveto
          408 vlineto
          hintmask 0110011001000000
          44 -1 84 37 vvcurveto
          2 hlineto
          100 -167 102 -168 146 -238 rrcurveto
          104 726 -94 -398 hlineto
          hintmask 1001011001000000
          -48 1 -93 1 -37 vhcurveto
          -2 hlineto
          -86 152 -119 207 -126 217 rrcurveto
          -122 -726 hlineto
          hintmask 0101101011000000
          384 933 rmoveto
          -36 -6 -14 -14 -22 hhcurveto
          -20 -20 11 12 -21 hvcurveto
          hintmask 0101011101000000
          20 -34 -19 5 -24 hhcurveto
          -29 -58 -9 -106 -8 hvcurveto
          56 -8 rlineto
          36 6 14 14 22 hhcurveto
          20 20 -11 -12 21 hvcurveto
          hintmask 0101101011000000
          -20 35 18 -5 24 hhcurveto
          29 58 9 106 8 hvcurveto
          endchar
        </CharString>
        <CharString name="O">
          95 -11 100 541 107 hstem
          45 99 394 99 vstem
          338 -11 rmoveto
          110 73 57 67 45 hvcurveto
          41 61 30 86 122 vvcurveto
          107 -23 91 -52 64 vhcurveto
          64 -52 -78 29 -86 hhcurveto
          -115 -71 -52 -57 -42 hvcurveto
          -49 -67 -24 -96 -106 vvcurveto
          -107 24 -92 50 -66 vhcurveto
          -67 51 78 -38 90 hhcurveto
          10 100 rmoveto
          -64 -50 24 50 -35 hvcurveto
          -42 59 -13 86 76 vvcurveto
          73 12 63 30 43 vhcurveto
          45 31 48 22 70 hhcurveto
          70 47 -22 -42 33 hvcurveto
          41 -53 12 -75 -83 vvcurveto
          -90 -14 -58 -24 -40 vhcurveto
          -55 -33 -56 -23 -63 hhcurveto
          endchar
        </CharString>
        <CharString name="OE">
          367 -11 93 -82 100 215 99 205 107 -96 107 hstemhm
          45 99 362 97 hintmask 10101110
          472 162 rmoveto
          -59 -32 -52 -21 -57 hhcurveto
          -67 -42 29 45 -29 hvcurveto
          -35 54 -14 77 89 vvcurveto
          78 11 62 26 44 vhcurveto
          49 29 43 21 64 hhcurveto
          69 43 -25 -41 28 hvcurveto
          38 -54 11 -83 -82 vvcurveto
          -86 -12 -57 -22 -40 vhcurveto
          hintmask 01110110
          256 -62 rmoveto
          -54 -29 0 -1 -43 hvcurveto
          1 38 0 33 40 vvcurveto
          109 vlineto
          26 -1 53 -2 61 -1 119 -2 rcurveline
          3 103 -119 -2 -62 -1 -33 -1 -48 -2 rlinecurve
          99 vlineto
          40 0 33 -1 38 vhcurveto
          -1 42 27 0 53 hhcurveto
          174 107 -167 hlineto
          -64 -88 0 -2 -74 hvcurveto
          hintmask 10101110
          -77 -2 vlineto
          55 -42 -64 35 -81 hhcurveto
          -105 -64 -56 -56 -37 hvcurveto
          -46 -69 -19 -90 -104 vvcurveto
          -106 20 -94 49 -70 vhcurveto
          -67 47 68 -36 83 hhcurveto
          93 60 47 54 38 hvcurveto
          2 hlineto
          hintmask 01110110
          -88 vlineto
          -2 88 80 0 62 hhcurveto
          170 100 hlineto
          endchar
        </CharString>
        <CharString name="Oacute">
          95 -11 100 541 107 60 144 hstem
          45 99 394 99 vstem
          338 -11 rmoveto
          110 73 57 67 45 hvcurveto
          41 61 30 86 122 vvcurveto
          107 -23 91 -52 64 vhcurveto
          64 -52 -78 29 -86 hhcurveto
          -115 -71 -52 -57 -42 hvcurveto
          -49 -67 -24 -96 -106 vvcurveto
          -107 24 -92 50 -66 vhcurveto
          -67 51 78 -38 90 hhcurveto
          10 100 rmoveto
          -64 -50 24 50 -35 hvcurveto
          -42 59 -13 86 76 vvcurveto
          73 12 63 30 43 vhcurveto
          45 31 48 22 70 hhcurveto
          70 47 -22 -42 33 hvcurveto
          41 -53 12 -75 -83 vvcurveto
          -90 -14 -58 -24 -40 vhcurveto
          -55 -33 -56 -23 -63 hhcurveto
          4 708 rmoveto
          41 44 40 48 41 52 rrcurveto
          -103 hlineto
          -33 -47 -32 -48 -31 -49 rrcurveto
          endchar
        </CharString>
        <CharString name="Obreve">
          95 -11 100 541 107 56 58 hstem
          45 99 59 58 163 56 58 99 vstem
          338 -11 rmoveto
          110 73 57 67 45 hvcurveto
          41 61 30 86 122 vvcurveto
          107 -23 91 -52 64 vhcurveto
          64 -52 -78 29 -86 hhcurveto
          -115 -71 -52 -57 -42 hvcurveto
          -49 -67 -24 -96 -106 vvcurveto
          -107 24 -92 50 -66 vhcurveto
          -67 51 78 -38 90 hhcurveto
          10 100 rmoveto
          -64 -50 24 50 -35 hvcurveto
          -42 59 -13 86 76 vvcurveto
          73 12 63 30 43 vhcurveto
          45 31 48 22 70 hhcurveto
          70 47 -22 -42 33 hvcurveto
          41 -53 12 -75 -83 vvcurveto
          -90 -14 -58 -24 -40 vhcurveto
          -55 -33 -56 -23 -63 hhcurveto
          76 852 rmoveto
          -46 -5 -19 -44 -58 hhcurveto
          -56 -20 44 46 -5 hvcurveto
          -58 hlineto
          -84 3 44 -64 91 hhcurveto
          92 44 64 84 3 hvcurveto
          endchar
        </CharString>
        <CharString name="Ocircumflex">
          95 -11 100 541 107 60 144 hstem
          45 99 394 99 vstem
          338 -11 rmoveto
          110 73 57 67 45 hvcurveto
          41 61 30 86 122 vvcurveto
          107 -23 91 -52 64 vhcurveto
          64 -52 -78 29 -86 hhcurveto
          -115 -71 -52 -57 -42 hvcurveto
          -49 -67 -24 -96 -106 vvcurveto
          -107 24 -92 50 -66 vhcurveto
          -67 51 78 -38 90 hhcurveto
          10 100 rmoveto
          -64 -50 24 50 -35 hvcurveto
          -42 59 -13 86 76 vvcurveto
          73 12 63 30 43 vhcurveto
          45 31 48 22 70 hhcurveto
          70 47 -22 -42 33 hvcurveto
          41 -53 12 -75 -83 vvcurveto
          -90 -14 -58 -24 -40 vhcurveto
          -55 -33 -56 -23 -63 hhcurveto
          -74 708 rmoveto
          23 28 22 28 21 30 21 -30 22 -28 23 -28 rrcurveto
          85 hlineto
          -34 47 -36 48 -40 49 rrcurveto
          -79 hlineto
          -40 -49 -36 -48 -34 -47 rrcurveto
          endchar
        </CharString>
        <CharString name="Odieresis">
          95 -11 100 541 107 84 96 hstem
          45 99 51 98 97 98 50 99 vstem
          338 -11 rmoveto
          110 73 57 67 45 hvcurveto
          41 61 30 86 122 vvcurveto
          107 -23 91 -52 64 vhcurveto
          64 -52 -78 29 -86 hhcurveto
          -115 -71 -52 -57 -42 hvcurveto
          -49 -67 -24 -96 -106 vvcurveto
          -107 24 -92 50 -66 vhcurveto
          -67 51 78 -38 90 hhcurveto
          10 100 rmoveto
          -64 -50 24 50 -35 hvcurveto
          -42 59 -13 86 76 vvcurveto
          73 12 63 30 43 vhcurveto
          45 31 48 22 70 hhcurveto
          70 47 -22 -42 33 hvcurveto
          41 -53 12 -75 -83 vvcurveto
          -90 -14 -58 -24 -40 vhcurveto
          -55 -33 -56 -23 -63 hhcurveto
          -58 732 rmoveto
          3 30 0 37 29 vvcurveto
          -98 hlineto
          -29 0 -37 2 -30 vhcurveto
          288 hmoveto
          3 30 0 37 29 vvcurveto
          -98 hlineto
          -29 0 -37 3 -30 vhcurveto
          endchar
        </CharString>
        <CharString name="Ograve">
          95 -11 100 541 107 60 144 hstem
          45 99 394 99 vstem
          338 -11 rmoveto
          110 73 57 67 45 hvcurveto
          41 61 30 86 122 vvcurveto
          107 -23 91 -52 64 vhcurveto
          64 -52 -78 29 -86 hhcurveto
          -115 -71 -52 -57 -42 hvcurveto
          -49 -67 -24 -96 -106 vvcurveto
          -107 24 -92 50 -66 vhcurveto
          -67 51 78 -38 90 hhcurveto
          10 100 rmoveto
          -64 -50 24 50 -35 hvcurveto
          -42 59 -13 86 76 vvcurveto
          73 12 63 30 43 vhcurveto
          45 31 48 22 70 hhcurveto
          70 47 -22 -42 33 hvcurveto
          41 -53 12 -75 -83 vvcurveto
          -90 -14 -58 -24 -40 vhcurveto
          -55 -33 -56 -23 -63 hhcurveto
          59 708 rmoveto
          -31 49 -32 48 -33 47 rrcurveto
          -103 hlineto
          41 -52 40 -48 41 -44 rrcurveto
          endchar
        </CharString>
        <CharString name="Ohungarumlaut">
          95 -11 100 541 107 60 144 hstem
          45 99 394 99 vstem
          338 -11 rmoveto
          110 73 57 67 45 hvcurveto
          41 61 30 86 122 vvcurveto
          107 -23 91 -52 64 vhcurveto
          64 -52 -78 29 -86 hhcurveto
          -115 -71 -52 -57 -42 hvcurveto
          -49 -67 -24 -96 -106 vvcurveto
          -107 24 -92 50 -66 vhcurveto
          -67 51 78 -38 90 hhcurveto
          10 100 rmoveto
          -64 -50 24 50 -35 hvcurveto
          -42 59 -13 86 76 vvcurveto
          73 12 63 30 43 vhcurveto
          45 31 48 22 70 hhcurveto
          70 47 -22 -42 33 hvcurveto
          41 -53 12 -75 -83 vvcurveto
          -90 -14 -58 -24 -40 vhcurveto
          -55 -33 -56 -23 -63 hhcurveto
          66 852 rmoveto
          -96 hlineto
          -34 -46 -32 -49 -30 -49 rrcurveto
          71 hlineto
          41 44 41 48 39 52 rrcurveto
          144 hmoveto
          -96 hlineto
          -34 -46 -32 -49 -30 -49 rrcurveto
          71 hlineto
          41 44 41 48 39 52 rrcurveto
          endchar
        </CharString>
        <CharString name="Omacron">
          95 -11 100 541 107 98 68 hstem
          45 99 61 273 60 99 vstem
          338 -11 rmoveto
          110 73 57 67 45 hvcurveto
          41 61 30 86 122 vvcurveto
          107 -23 91 -52 64 vhcurveto
          64 -52 -78 29 -86 hhcurveto
          -115 -71 -52 -57 -42 hvcurveto
          -49 -67 -24 -96 -106 vvcurveto
          -107 24 -92 50 -66 vhcurveto
          -67 51 78 -38 90 hhcurveto
          10 100 rmoveto
          -64 -50 24 50 -35 hvcurveto
          -42 59 -13 86 76 vvcurveto
          73 12 63 30 43 vhcurveto
          45 31 48 22 70 hhcurveto
          70 47 -22 -42 33 hvcurveto
          41 -53 12 -75 -83 vvcurveto
          -90 -14 -58 -24 -40 vhcurveto
          -55 -33 -56 -23 -63 hhcurveto
          -143 746 rmoveto
          273 68 -273 hlineto
          endchar
        </CharString>
        <CharString name="Omega">
          102 0 98 532 107 hstemhm
          53 99 -91 241 85 241 -91 99 hintmask 11010100
          61 hmoveto
          241 94 hlineto
          hintmask 11100100
          -96 83 -54 122 116 vvcurveto
          62 15 57 33 39 vhcurveto
          37 31 49 20 59 hhcurveto
          69 47 -27 -35 30 hvcurveto
          38 -44 14 -63 -57 vvcurveto
          -109 -52 -115 -98 -86 vhcurveto
          hintmask 11101000
          -94 241 100 vlineto
          -71 -2 -24 -1 -33 -1 -20 -2 rlinecurve
          -1 2 rlineto
          hintmask 11100100
          96 76 61 119 133 vvcurveto
          85 -25 84 -52 58 vhcurveto
          58 -52 -74 28 -85 hhcurveto
          -95 -71 -34 -58 -50 hvcurveto
          -55 -64 -24 -87 -82 vvcurveto
          -127 58 -111 98 -78 vhcurveto
          -1 -2 rlineto
          hintmask 11010100
          2 -20 -48 2 -8 hhcurveto
          -71 2 rlineto
          endchar
        </CharString>
        <CharString name="Oslash">
          95 -11 100 -76 -21 638 107 -3 -20 hstemhm
          45 99 394 99 hintmask 10101100
          503 538 rmoveto
          27 -50 8 -64 -69 vvcurveto
          -90 -14 -58 -24 -40 vhcurveto
          -55 -33 -56 -23 -63 hhcurveto
          -47 -40 13 27 -32 hvcurveto
          -47 63 rmoveto
          -29 56 -9 72 64 vvcurveto
          73 12 63 30 43 vhcurveto
          45 31 48 22 70 hhcurveto
          50 38 -11 -22 30 hvcurveto
          hintmask 10011100
          181 137 rmoveto
          hintmask 01101100
          -61 42 -59 -88 rlineto
          34 -47 -58 15 -63 hhcurveto
          -115 -71 -52 -57 -42 hvcurveto
          -49 -67 -24 -96 -106 vvcurveto
          -106 24 -91 49 -66 vhcurveto
          -70 -104 rlineto
          hintmask 10011100
          61 -42 62 92 rlineto
          -34 46 58 -19 63 hhcurveto
          110 73 57 67 45 hvcurveto
          41 61 30 86 122 vvcurveto
          103 -21 87 -48 64 vhcurveto
          endchar
        </CharString>
        <CharString name="Oslashacute">
          95 -11 100 -76 -21 638 107 -3 -20 83 144 hstemhm
          45 99 394 99 hintmask 10101110
          503 538 rmoveto
          27 -50 8 -64 -69 vvcurveto
          -90 -14 -58 -24 -40 vhcurveto
          -55 -33 -56 -23 -63 hhcurveto
          -47 -40 13 27 -32 hvcurveto
          -47 63 rmoveto
          -29 56 -9 72 64 vvcurveto
          73 12 63 30 43 vhcurveto
          45 31 48 22 70 hhcurveto
          50 38 -11 -22 30 hvcurveto
          hintmask 10011110
          181 137 rmoveto
          hintmask 01101110
          -61 42 -59 -88 rlineto
          34 -47 -58 15 -63 hhcurveto
          -115 -71 -52 -57 -42 hvcurveto
          -49 -67 -24 -96 -106 vvcurveto
          -106 24 -91 49 -66 vhcurveto
          -70 -104 rlineto
          hintmask 10011110
          61 -42 62 92 rlineto
          -34 46 58 -19 63 hhcurveto
          110 73 57 67 45 hvcurveto
          41 61 30 86 122 vvcurveto
          103 -21 87 -48 64 vhcurveto
          -216 161 rmoveto
          41 44 40 48 41 52 rrcurveto
          -103 hlineto
          -33 -47 -32 -48 -31 -49 rrcurveto
          endchar
        </CharString>
        <CharString name="Otilde">
          95 -11 100 541 107 73 73 -25 73 hstemhm
          45 99 32 56 219 56 31 99 hintmask 11011111
          338 -11 rmoveto
          110 73 57 67 45 hvcurveto
          41 61 30 86 122 vvcurveto
          107 -23 91 -52 64 vhcurveto
          64 -52 -78 29 -86 hhcurveto
          -115 -71 -52 -57 -42 hvcurveto
          -49 -67 -24 -96 -106 vvcurveto
          -107 24 -92 50 -66 vhcurveto
          -67 51 78 -38 90 hhcurveto
          10 100 rmoveto
          -64 -50 24 50 -35 hvcurveto
          -42 59 -13 86 76 vvcurveto
          73 12 63 30 43 vhcurveto
          45 31 48 22 70 hhcurveto
          70 47 -22 -42 33 hvcurveto
          41 -53 12 -75 -83 vvcurveto
          -90 -14 -58 -24 -40 vhcurveto
          -55 -33 -56 -23 -63 hhcurveto
          hintmask 11101111
          103 844 rmoveto
          -36 -6 -14 -14 -22 hhcurveto
          -20 -20 11 12 -21 hvcurveto
          hintmask 11011111
          20 -34 -19 5 -24 hhcurveto
          -29 -58 -9 -106 -8 hvcurveto
          56 -8 rlineto
          36 6 14 14 22 hhcurveto
          20 20 -11 -12 21 hvcurveto
          hintmask 11101111
          -20 35 18 -5 24 hhcurveto
          29 58 9 106 8 hvcurveto
          endchar
        </CharString>
        <CharString name="P">
          35 21 -21 254 95 271 106 hstem
          82 100 296 98 vstem
          182 505 rmoveto
          41 0 35 -1 40 vhcurveto
          -1 35 42 0 35 hhcurveto
          17 hlineto
          61 39 -7 -19 27 hvcurveto
          34 -24 7 -40 -45 vvcurveto
          -42 -6 -34 -23 -25 vhcurveto
          -24 -26 -40 -5 -43 -2 rrcurveto
          -2 -47 -70 0 -43 hhcurveto
          92 377 rmoveto
          -63 -59 0 -2 -70 hvcurveto
          -724 100 256 vlineto
          -1 33 55 -1 23 hhcurveto
          104 64 21 41 44 hvcurveto
          49 46 22 71 76 vvcurveto
          73 -20 59 -46 37 vhcurveto
          39 -48 -67 9 -82 hhcurveto
          endchar
        </CharString>
        <CharString name="Q">
          95 -9 97 542 107 hstem
          45 99 394 99 vstem
          199 162 rmoveto
          -42 59 -13 87 76 vvcurveto
          73 12 63 30 43 vhcurveto
          45 31 48 22 70 hhcurveto
          70 47 -22 -42 33 hvcurveto
          41 -53 12 -75 -83 vvcurveto
          -90 -14 -59 -24 -40 vhcurveto
          -55 -33 -56 -23 -63 hhcurveto
          -64 -50 24 50 -35 hvcurveto
          338 -325 rmoveto
          92 58 -71 93 -16 21 -16 21 -17 21 rlinecurve
          23 19 19 21 15 23 rrcurveto
          41 61 30 86 121 vvcurveto
          107 -23 91 -52 64 vhcurveto
          64 -52 -78 29 -86 hhcurveto
          -115 -71 -52 -57 -42 hvcurveto
          -49 -67 -24 -96 -106 vvcurveto
          -106 24 -92 50 -66 vhcurveto
          -66 51 78 -38 90 hhcurveto
          36 32 6 11 28 hvcurveto
          14 -26 15 -25 15 -24 rrcurveto
          endchar
        </CharString>
        <CharString name="R">
          44 21 -21 268 91 261 106 hstem
          82 100 294 99 vstem
          311 620 rmoveto
          59 41 -8 -18 25 hvcurveto
          28 -20 12 -32 -47 vvcurveto
          -32 -6 -39 -25 -26 vhcurveto
          -31 -32 -50 -5 -55 -1 rrcurveto
          -1 -51 -34 0 -42 hhcurveto
          147 vlineto
          41 0 35 -1 39 vhcurveto
          -1 35 43 0 34 hhcurveto
          181 -420 rmoveto
          -17 27 -22 33 -19 28 33 10 30 15 25 23 rrcurveto
          46 42 25 62 76 vvcurveto
          66 -19 55 -45 38 vhcurveto
          36 -43 -60 15 -92 hhcurveto
          -42 hlineto
          -63 -59 0 -2 -70 hvcurveto
          -724 100 270 vlineto
          -1 46 45 -1 46 hhcurveto
          15 -28 16 -29 16 -28 104 -183 rcurveline
          132 hlineto
          endchar
        </CharString>
        <CharString name="Racute">
          44 21 -21 268 91 261 106 71 144 hstem
          82 100 294 99 vstem
          311 620 rmoveto
          59 41 -8 -18 25 hvcurveto
          28 -20 12 -32 -47 vvcurveto
          -32 -6 -39 -25 -26 vhcurveto
          -31 -32 -50 -5 -55 -1 rrcurveto
          -1 -51 -34 0 -42 hhcurveto
          147 vlineto
          41 0 35 -1 39 vhcurveto
          -1 35 43 0 34 hhcurveto
          181 -420 rmoveto
          -17 27 -22 33 -19 28 33 10 30 15 25 23 rrcurveto
          46 42 25 62 76 vvcurveto
          66 -19 55 -45 38 vhcurveto
          36 -43 -60 15 -92 hhcurveto
          -42 hlineto
          -63 -59 0 -2 -70 hvcurveto
          -724 100 270 vlineto
          -1 46 45 -1 46 hhcurveto
          15 -28 16 -29 16 -28 104 -183 rcurveline
          132 hlineto
          -257 797 rmoveto
          41 44 40 48 41 52 rrcurveto
          -103 hlineto
          -33 -47 -32 -48 -31 -49 rrcurveto
          endchar
        </CharString>
        <CharString name="Rcaron">
          44 21 -21 268 91 261 106 71 144 hstem
          82 100 294 99 vstem
          311 620 rmoveto
          59 41 -8 -18 25 hvcurveto
          28 -20 12 -32 -47 vvcurveto
          -32 -6 -39 -25 -26 vhcurveto
          -31 -32 -50 -5 -55 -1 rrcurveto
          -1 -51 -34 0 -42 hhcurveto
          147 vlineto
          41 0 35 -1 39 vhcurveto
          -1 35 43 0 34 hhcurveto
          181 -420 rmoveto
          -17 27 -22 33 -19 28 33 10 30 15 25 23 rrcurveto
          46 42 25 62 76 vvcurveto
          66 -19 55 -45 38 vhcurveto
          36 -43 -60 15 -92 hhcurveto
          -42 hlineto
          -63 -59 0 -2 -70 hvcurveto
          -724 100 270 vlineto
          -1 46 45 -1 46 hhcurveto
          15 -28 16 -29 16 -28 104 -183 rcurveline
          132 hlineto
          -118 941 rmoveto
          -82 hlineto
          -23 -28 -22 -28 -21 -30 -21 30 -22 28 -23 28 rrcurveto
          -85 hlineto
          34 -47 36 -48 40 -49 rrcurveto
          79 hlineto
          40 49 36 48 34 47 rrcurveto
          endchar
        </CharString>
        <CharString name="Rcommaaccent">
          44 -258 204 75 -21 268 91 261 106 hstem
          82 100 294 99 vstem
          311 620 rmoveto
          59 41 -8 -18 25 hvcurveto
          28 -20 12 -32 -47 vvcurveto
          -32 -6 -39 -25 -26 vhcurveto
          -31 -32 -50 -5 -55 -1 rrcurveto
          -1 -51 -34 0 -42 hhcurveto
          147 vlineto
          41 0 35 -1 39 vhcurveto
          -1 35 43 0 34 hhcurveto
          181 -420 rmoveto
          -17 27 -22 33 -19 28 33 10 30 15 25 23 rrcurveto
          46 42 25 62 76 vvcurveto
          66 -19 55 -45 38 vhcurveto
          36 -43 -60 15 -92 hhcurveto
          -42 hlineto
          -63 -59 0 -2 -70 hvcurveto
          -724 100 270 vlineto
          -1 46 45 -1 46 hhcurveto
          15 -28 16 -29 16 -28 104 -183 rcurveline
          132 hlineto
          -325 -54 rmoveto
          -16 -68 -18 -70 -19 -66 rrcurveto
          67 hlineto
          29 62 29 75 17 67 rrcurveto
          endchar
        </CharString>
        <CharString name="S">
          -18 -11 100 537 111 hstem
          46 101 274 101 vstem
          497 685 rmoveto
          29 -45 -83 23 -73 hhcurveto
          -72 -62 -22 -39 -45 hvcurveto
          -48 -42 -23 -60 -68 vvcurveto
          -132 83 -29 114 -26 vhcurveto
          123 -28 55 -13 -82 vvcurveto
          -34 -10 -26 -24 -18 vhcurveto
          -21 -28 -43 -8 -53 hhcurveto
          -69 -70 14 26 -66 hvcurveto
          -9 -88 rlineto
          -29 49 68 -23 82 hhcurveto
          82 66 23 37 47 hvcurveto
          49 39 30 59 75 vvcurveto
          127 -82 27 -129 31 vhcurveto
          -103 25 -61 13 83 vvcurveto
          32 9 26 27 17 vhcurveto
          16 26 38 7 51 hhcurveto
          67 71 -12 -16 53 hvcurveto
          endchar
        </CharString>
        <CharString name="Sacute">
          -18 -11 100 537 111 60 144 hstem
          46 101 274 101 vstem
          497 685 rmoveto
          29 -45 -83 23 -73 hhcurveto
          -72 -62 -22 -39 -45 hvcurveto
          -48 -42 -23 -60 -68 vvcurveto
          -132 83 -29 114 -26 vhcurveto
          123 -28 55 -13 -82 vvcurveto
          -34 -10 -26 -24 -18 vhcurveto
          -21 -28 -43 -8 -53 hhcurveto
          -69 -70 14 26 -66 hvcurveto
          -9 -88 rlineto
          -29 49 68 -23 82 hhcurveto
          82 66 23 37 47 hvcurveto
          49 39 30 59 75 vvcurveto
          127 -82 27 -129 31 vhcurveto
          -103 25 -61 13 83 vvcurveto
          32 9 26 27 17 vhcurveto
          16 26 38 7 51 hhcurveto
          67 71 -12 -16 53 hvcurveto
          -193 199 rmoveto
          41 44 40 48 41 52 rrcurveto
          -103 hlineto
          -33 -47 -32 -48 -31 -49 rrcurveto
          endchar
        </CharString>
        <CharString name="Scaron">
          -18 -11 100 537 111 60 144 hstem
          46 101 274 101 vstem
          497 685 rmoveto
          29 -45 -83 23 -73 hhcurveto
          -72 -62 -22 -39 -45 hvcurveto
          -48 -42 -23 -60 -68 vvcurveto
          -132 83 -29 114 -26 vhcurveto
          123 -28 55 -13 -82 vvcurveto
          -34 -10 -26 -24 -18 vhcurveto
          -21 -28 -43 -8 -53 hhcurveto
          -69 -70 14 26 -66 hvcurveto
          -9 -88 rlineto
          -29 49 68 -23 82 hhcurveto
          82 66 23 37 47 hvcurveto
          49 39 30 59 75 vvcurveto
          127 -82 27 -129 31 vhcurveto
          -103 25 -61 13 83 vvcurveto
          32 9 26 27 17 vhcurveto
          16 26 38 7 51 hhcurveto
          67 71 -12 -16 53 hvcurveto
          -54 343 rmoveto
          -82 hlineto
          -23 -28 -22 -28 -21 -30 -21 30 -22 28 -23 28 rrcurveto
          -85 hlineto
          34 -47 36 -48 40 -49 rrcurveto
          79 hlineto
          40 49 36 48 34 47 rrcurveto
          endchar
        </CharString>
        <CharString name="Scedilla">
          -18 -190 63 43 47 26 100 -76 -21 634 111 hstemhm
          46 101 88.5 62 22.5 63 38 101 hintmask 1001110110000000
          497 685 rmoveto
          29 -45 -83 23 -73 hhcurveto
          -72 -62 -22 -39 -45 hvcurveto
          -48 -42 -23 -60 -68 vvcurveto
          -132 83 -29 114 -26 vhcurveto
          123 -28 55 -13 -82 vvcurveto
          hintmask 1010111110000000
          -34 -10 -26 -24 -18 vhcurveto
          -21 -28 -43 -8 -53 hhcurveto
          -69 -70 14 26 -66 hvcurveto
          -9 -88 47 -28 66 -22 78 -2 rlinecurve
          hintmask 1101111110000000
          -9 -75 rlineto
          hintmask 1101110110000000
          1 9 17 1 12 hhcurveto
          28 23 -5 -17 -15 -19 -6 -32 -23 -32 3 5 -19 hvcurveto
          -10 -57 rlineto
          -7 18 28 -7 32 hhcurveto
          72 48 33 54 38 -25 27 -62 1 hvcurveto
          hintmask 1001111110000000
          3 29 61 8 49 22 34 27 rlinecurve
          49 39 30 59 75 vvcurveto
          127 -82 27 -129 31 vhcurveto
          -103 25 -61 13 83 vvcurveto
          32 9 26 27 17 vhcurveto
          16 26 38 7 51 hhcurveto
          67 71 -12 -16 53 hvcurveto
          endchar
        </CharString>
        <CharString name="Scircumflex">
          -18 -11 100 537 111 60 144 hstem
          46 101 274 101 vstem
          497 685 rmoveto
          29 -45 -83 23 -73 hhcurveto
          -72 -62 -22 -39 -45 hvcurveto
          -48 -42 -23 -60 -68 vvcurveto
          -132 83 -29 114 -26 vhcurveto
          123 -28 55 -13 -82 vvcurveto
          -34 -10 -26 -24 -18 vhcurveto
          -21 -28 -43 -8 -53 hhcurveto
          -69 -70 14 26 -66 hvcurveto
          -9 -88 rlineto
          -29 49 68 -23 82 hhcurveto
          82 66 23 37 47 hvcurveto
          49 39 30 59 75 vvcurveto
          127 -82 27 -129 31 vhcurveto
          -103 25 -61 13 83 vvcurveto
          32 9 26 27 17 vhcurveto
          16 26 38 7 51 hhcurveto
          67 71 -12 -16 53 hvcurveto
          -271 199 rmoveto
          23 28 22 28 21 30 21 -30 22 -28 23 -28 rrcurveto
          85 hlineto
          -34 47 -36 48 -40 49 rrcurveto
          -79 hlineto
          -40 -49 -36 -48 -34 -47 rrcurveto
          endchar
        </CharString>
        <CharString name="Scommaaccent">
          -18 -258 204 43 100 537 111 hstem
          46 101 274 101 vstem
          497 685 rmoveto
          29 -45 -83 23 -73 hhcurveto
          -72 -62 -22 -39 -45 hvcurveto
          -48 -42 -23 -60 -68 vvcurveto
          -132 83 -29 114 -26 vhcurveto
          123 -28 55 -13 -82 vvcurveto
          -34 -10 -26 -24 -18 vhcurveto
          -21 -28 -43 -8 -53 hhcurveto
          -69 -70 14 26 -66 hvcurveto
          -9 -88 rlineto
          -29 49 68 -23 82 hhcurveto
          82 66 23 37 47 hvcurveto
          49 39 30 59 75 vvcurveto
          127 -82 27 -129 31 vhcurveto
          -103 25 -61 13 83 vvcurveto
          32 9 26 27 17 vhcurveto
          16 26 38 7 51 hhcurveto
          67 71 -12 -16 53 hvcurveto
          -242 -652 rmoveto
          -16 -68 -18 -70 -19 -66 rrcurveto
          67 hlineto
          29 62 29 75 17 67 rrcurveto
          endchar
        </CharString>
        <CharString name="T">
          -7 21 -21 619 107 hstem
          240 100 vstem
          25 619 rmoveto
          86 hlineto
          44 51 0 1 34 hvcurveto
          -620 100 620 vlineto
          -1 34 52 0 43 hhcurveto
          86 107 -530 hlineto
          endchar
        </CharString>
        <CharString name="Tbar">
          -7 21 -21 318 90 211 107 hstem
          240 100 vstem
          340 hmoveto
          318 130 90 -130 212 vlineto
          -1 34 52 0 43 hhcurveto
          86 107 -530 -107 86 hlineto
          44 51 0 1 34 hvcurveto
          -212 -130 -90 130 -318 vlineto
          endchar
        </CharString>
        <CharString name="Tcaron">
          -7 21 -21 619 107 71 144 hstem
          240 100 vstem
          25 619 rmoveto
          86 hlineto
          44 51 0 1 34 hvcurveto
          -620 100 620 vlineto
          -1 34 52 0 43 hhcurveto
          86 107 -530 hlineto
          415 215 rmoveto
          -82 hlineto
          -23 -28 -22 -28 -21 -30 -21 30 -22 28 -23 28 rrcurveto
          -85 hlineto
          34 -47 36 -48 40 -49 rrcurveto
          79 hlineto
          40 49 36 48 34 47 rrcurveto
          endchar
        </CharString>
        <CharString name="Tcommaaccent">
          -7 -190 63 43 47 58 -21 619 107 hstemhm
          240 100 -1 63 hintmask 11111000
          25 726 rmoveto
          -107 86 vlineto
          44 51 0 1 34 hvcurveto
          -620 20 vlineto
          -10 -86 rlineto
          hintmask 11110100
          1 9 17 1 12 hhcurveto
          28 23 -5 -17 -15 -19 -6 -32 -23 -32 3 5 -19 hvcurveto
          -10 -57 rlineto
          -7 18 28 -7 32 hhcurveto
          72 48 33 54 hvcurveto
          hintmask 11111000
          38 -25 27 -62 1 vhcurveto
          4 37 rlineto
          21 620 hlineto
          -1 34 52 0 43 hhcurveto
          86 107 hlineto
          endchar
        </CharString>
        <CharString name="Thorn">
          35 21 -21 131 95 271 106 123 -20 hstem
          82 100 296 98 vstem
          182 382 rmoveto
          41 0 35 -1 40 vhcurveto
          -1 35 42 0 35 hhcurveto
          17 hlineto
          61 40 -7 -19 26 hvcurveto
          34 -25 7 -39 -43 vvcurveto
          -48 -8 -32 -21 -23 vhcurveto
          -24 -26 -40 -5 -43 -2 rrcurveto
          -2 -47 -70 0 -43 hhcurveto
          377 vmoveto
          123 -100 -726 100 133 vlineto
          -1 33 55 -1 23 hhcurveto
          104 64 21 41 44 hvcurveto
          49 46 22 71 76 vvcurveto
          73 -20 59 -46 37 vhcurveto
          39 -48 -67 9 -82 hhcurveto
          endchar
        </CharString>
        <CharString name="U">
          91 -11 97 640 -20 hstem
          79 100 324 96 vstem
          599 726 rmoveto
          -96 -474 hlineto
          -56 -9 -39 -24 -28 vhcurveto
          -34 -29 -45 -9 -47 hhcurveto
          -60 -42 14 31 -28 hvcurveto
          -31 34 -9 49 38 vvcurveto
          474 -100 -486 vlineto
          -66 14 -61 47 -50 vhcurveto
          -48 45 68 -26 85 hhcurveto
          92 68 30 49 43 hvcurveto
          43 49 15 66 66 vvcurveto
          endchar
        </CharString>
        <CharString name="Uacute">
          91 -11 97 640 -20 91 144 hstem
          79 100 324 96 vstem
          599 726 rmoveto
          -96 -474 hlineto
          -56 -9 -39 -24 -28 vhcurveto
          -34 -29 -45 -9 -47 hhcurveto
          -60 -42 14 31 -28 hvcurveto
          -31 34 -9 49 38 vvcurveto
          474 -100 -486 vlineto
          -66 14 -61 47 -50 vhcurveto
          -48 45 68 -26 85 hhcurveto
          92 68 30 49 43 hvcurveto
          43 49 15 66 66 vvcurveto
          -247 548 rmoveto
          41 44 40 48 41 52 rrcurveto
          -103 hlineto
          -33 -47 -32 -48 -31 -49 rrcurveto
          endchar
        </CharString>
        <CharString name="Ubreve">
          91 -11 97 640 -20 87 58 hstemhm
          79 100 24 58 163 56 23 96 hintmask 11110010
          599 726 rmoveto
          -96 -474 hlineto
          -56 -9 -39 -24 -28 vhcurveto
          -34 -29 -45 -9 -47 hhcurveto
          -60 -42 14 31 -28 hvcurveto
          -31 34 -9 49 38 vvcurveto
          474 -100 -486 vlineto
          -66 14 -61 47 -50 vhcurveto
          -48 45 68 -26 85 hhcurveto
          92 68 30 49 43 hvcurveto
          43 49 15 66 66 vvcurveto
          hintmask 11111110
          -175 692 rmoveto
          -46 -5 -19 -44 -58 hhcurveto
          -56 -20 44 46 -5 hvcurveto
          -58 hlineto
          -84 3 44 -64 91 hhcurveto
          92 44 64 84 3 hvcurveto
          endchar
        </CharString>
        <CharString name="Ucircumflex">
          91 -11 97 640 -20 91 144 hstem
          79 100 324 96 vstem
          599 726 rmoveto
          -96 -474 hlineto
          -56 -9 -39 -24 -28 vhcurveto
          -34 -29 -45 -9 -47 hhcurveto
          -60 -42 14 31 -28 hvcurveto
          -31 34 -9 49 38 vvcurveto
          474 -100 -486 vlineto
          -66 14 -61 47 -50 vhcurveto
          -48 45 68 -26 85 hhcurveto
          92 68 30 49 43 hvcurveto
          43 49 15 66 66 vvcurveto
          -325 548 rmoveto
          23 28 22 28 21 30 21 -30 22 -28 23 -28 rrcurveto
          85 hlineto
          -34 47 -36 48 -40 49 rrcurveto
          -79 hlineto
          -40 -49 -36 -48 -34 -47 rrcurveto
          endchar
        </CharString>
        <CharString name="Udieresis">
          91 -11 97 640 -20 115 96 hstemhm
          79 100 16 98 97 98 15 96 hintmask 11110010
          599 726 rmoveto
          -96 -474 hlineto
          -56 -9 -39 -24 -28 vhcurveto
          -34 -29 -45 -9 -47 hhcurveto
          -60 -42 14 31 -28 hvcurveto
          -31 34 -9 49 38 vvcurveto
          474 -100 -486 vlineto
          -66 14 -61 47 -50 vhcurveto
          -48 45 68 -26 85 hhcurveto
          92 68 30 49 43 hvcurveto
          43 49 15 66 66 vvcurveto
          hintmask 11111110
          -309 572 rmoveto
          3 30 0 37 29 vvcurveto
          -98 hlineto
          -29 0 -37 2 -30 vhcurveto
          288 hmoveto
          3 30 0 37 29 vvcurveto
          -98 hlineto
          -29 0 -37 3 -30 vhcurveto
          endchar
        </CharString>
        <CharString name="Ugrave">
          91 -11 97 640 -20 91 144 hstem
          79 100 324 96 vstem
          599 726 rmoveto
          -96 -474 hlineto
          -56 -9 -39 -24 -28 vhcurveto
          -34 -29 -45 -9 -47 hhcurveto
          -60 -42 14 31 -28 hvcurveto
          -31 34 -9 49 38 vvcurveto
          474 -100 -486 vlineto
          -66 14 -61 47 -50 vhcurveto
          -48 45 68 -26 85 hhcurveto
          92 68 30 49 43 hvcurveto
          43 49 15 66 66 vvcurveto
          -192 548 rmoveto
          -31 49 -32 48 -33 47 rrcurveto
          -103 hlineto
          41 -52 40 -48 41 -44 rrcurveto
          endchar
        </CharString>
        <CharString name="Uhungarumlaut">
          91 -11 97 640 -20 91 144 hstem
          79 100 324 96 vstem
          599 726 rmoveto
          -96 -474 hlineto
          -56 -9 -39 -24 -28 vhcurveto
          -34 -29 -45 -9 -47 hhcurveto
          -60 -42 14 31 -28 hvcurveto
          -31 34 -9 49 38 vvcurveto
          474 -100 -486 vlineto
          -66 14 -61 47 -50 vhcurveto
          -48 45 68 -26 85 hhcurveto
          92 68 30 49 43 hvcurveto
          43 49 15 66 66 vvcurveto
          -185 692 rmoveto
          -96 hlineto
          -34 -46 -32 -49 -30 -49 rrcurveto
          71 hlineto
          41 44 41 48 39 52 rrcurveto
          144 hmoveto
          -96 hlineto
          -34 -46 -32 -49 -30 -49 rrcurveto
          71 hlineto
          41 44 41 48 39 52 rrcurveto
          endchar
        </CharString>
        <CharString name="Umacron">
          91 -11 97 640 -20 129 68 hstemhm
          79 100 26 273 25 96 hintmask 11110100
          599 726 rmoveto
          -96 -474 hlineto
          -56 -9 -39 -24 -28 vhcurveto
          -34 -29 -45 -9 -47 hhcurveto
          -60 -42 14 31 -28 hvcurveto
          -31 34 -9 49 38 vvcurveto
          474 -100 -486 vlineto
          -66 14 -61 47 -50 vhcurveto
          -48 45 68 -26 85 hhcurveto
          92 68 30 49 43 hvcurveto
          43 49 15 66 66 vvcurveto
          hintmask 11111100
          -394 586 rmoveto
          273 68 -273 hlineto
          endchar
        </CharString>
        <CharString name="Uogonek">
          91 -189 81 121 -21 734 -20 hstem
          79 100 53 81 190 96 vstem
          503 726 rmoveto
          -474 vlineto
          -56 -9 -39 -24 -28 vhcurveto
          -34 -29 -45 -9 -47 hhcurveto
          -60 -42 14 31 -28 hvcurveto
          -31 34 -9 49 38 vvcurveto
          474 -100 -486 vlineto
          -65 14 -62 47 -49 vhcurveto
          38 -40 54 -25 64 -7 rrcurveto
          -2 vlineto
          -41 -26 -23 -30 -35 vvcurveto
          -44 37 -44 89 30 31 5 7 21 vhcurveto
          -4 73 rlineto
          -2 -17 -21 -2 -20 hhcurveto
          -31 -34 5 21 31 68 30 54 22 hvcurveto
          40 17 35 15 31 36 rrcurveto
          43 49 15 65 66 vvcurveto
          477 vlineto
          endchar
        </CharString>
        <CharString name="Uring">
          91 -11 97 640 -20 69 50 128 50 hstem
          79 100 48 50 129 50 47 96 vstem
          599 726 rmoveto
          -96 -474 hlineto
          -56 -9 -39 -24 -28 vhcurveto
          -34 -29 -45 -9 -47 hhcurveto
          -60 -42 14 31 -28 hvcurveto
          -31 34 -9 49 38 vvcurveto
          474 -100 -486 vlineto
          -66 14 -61 47 -50 vhcurveto
          -48 45 68 -26 85 hhcurveto
          92 68 30 49 43 hvcurveto
          43 49 15 66 66 vvcurveto
          -260 526 rmoveto
          65 52 50 65 65 -47 48 -65 -65 -52 -50 -65 -65 47 -48 65 hvcurveto
          4 50 rmoveto
          -40 -26 30 35 35 22 28 41 40 26 -30 -35 -35 -22 -28 -41 hvcurveto
          endchar
        </CharString>
        <CharString name="Utilde">
          91 -11 97 640 -20 104 73 -25 73 hstemhm
          79 100 -3 56 219 56 -4 96 hintmask 11011001
          599 726 rmoveto
          -96 -474 hlineto
          -56 -9 -39 -24 -28 vhcurveto
          -34 -29 -45 -9 -47 hhcurveto
          -60 -42 14 31 -28 hvcurveto
          -31 34 -9 49 38 vvcurveto
          474 -100 -486 vlineto
          -66 14 -61 47 -50 vhcurveto
          -48 45 68 -26 85 hhcurveto
          92 68 30 49 43 hvcurveto
          43 49 15 66 66 vvcurveto
          hintmask 11101010
          -148 684 rmoveto
          -36 -6 -14 -14 -22 hhcurveto
          -20 -20 11 12 -21 hvcurveto
          hintmask 11010101
          20 -34 -19 5 -24 hhcurveto
          -29 -58 -9 -106 -8 hvcurveto
          56 -8 rlineto
          36 6 14 14 22 hhcurveto
          20 20 -11 -12 21 hvcurveto
          hintmask 11101010
          -20 35 18 -5 24 hhcurveto
          29 58 9 106 8 hvcurveto
          endchar
        </CharString>
        <CharString name="V">
          41 0 101 -80 -21 726 -20 hstemhm
          11 606 hintmask 01110000
          257 hmoveto
          114 hlineto
          246 726 rlineto
          -114 hlineto
          -114 -382 rlineto
          hintmask 10110000
          -29 -97 -21 -71 -22 -75 rrcurveto
          -2 hlineto
          -21 73 -22 75 -28 95 -113 382 rcurveline
          -120 hlineto
          endchar
        </CharString>
        <CharString name="W">
          347 0 91 508 127 0 -20 hstemhm
          20 894 hintmask 10110000
          205 hmoveto
          121 hlineto
          97 407 rlineto
          hintmask 11010000
          16 67 15 64 13 61 rrcurveto
          2 hlineto
          13 -60 15 -64 16 -66 98 -409 rcurveline
          119 hlineto
          184 726 rlineto
          -113 hlineto
          -78 -384 -17 -83 -18 -90 -15 -78 rlinecurve
          -2 hlineto
          -16 80 -18 88 -17 83 -79 384 rcurveline
          -142 hlineto
          -79 -384 -17 -83 -18 -88 -16 -80 rlinecurve
          -2 hlineto
          -15 78 -18 90 -17 83 -78 384 rcurveline
          -119 hlineto
          endchar
        </CharString>
        <CharString name="Wacute">
          347 0 91 508 127 0 -20 91 144 hstemhm
          20 894 hintmask 10111000
          205 hmoveto
          121 hlineto
          97 407 rlineto
          hintmask 11011000
          16 67 15 64 13 61 rrcurveto
          2 hlineto
          13 -60 15 -64 16 -66 98 -409 rcurveline
          119 hlineto
          184 726 rlineto
          -113 hlineto
          -78 -384 -17 -83 -18 -90 -15 -78 rlinecurve
          -2 hlineto
          -16 80 -18 88 -17 83 -79 384 rcurveline
          -142 hlineto
          -79 -384 -17 -83 -18 -88 -16 -80 rlinecurve
          -2 hlineto
          -15 78 -18 90 -17 83 -78 384 rcurveline
          -119 hlineto
          460 71 rmoveto
          41 44 40 48 41 52 rrcurveto
          -103 hlineto
          -33 -47 -32 -48 -31 -49 rrcurveto
          endchar
        </CharString>
        <CharString name="Wcircumflex">
          347 0 91 508 127 0 -20 91 144 hstemhm
          20 894 hintmask 10111000
          205 hmoveto
          121 hlineto
          97 407 rlineto
          hintmask 11011000
          16 67 15 64 13 61 rrcurveto
          2 hlineto
          13 -60 15 -64 16 -66 98 -409 rcurveline
          119 hlineto
          184 726 rlineto
          -113 hlineto
          -78 -384 -17 -83 -18 -90 -15 -78 rlinecurve
          -2 hlineto
          -16 80 -18 88 -17 83 -79 384 rcurveline
          -142 hlineto
          -79 -384 -17 -83 -18 -88 -16 -80 rlinecurve
          -2 hlineto
          -15 78 -18 90 -17 83 -78 384 rcurveline
          -119 hlineto
          382 71 rmoveto
          23 28 22 28 21 30 21 -30 22 -28 23 -28 rrcurveto
          85 hlineto
          -34 47 -36 48 -40 49 rrcurveto
          -79 hlineto
          -40 -49 -36 -48 -34 -47 rrcurveto
          endchar
        </CharString>
        <CharString name="Wdieresis">
          347 0 91 508 127 0 -20 115 96 hstemhm
          323 98 97 98 hintmask 10111100
          205 hmoveto
          121 hlineto
          97 407 rlineto
          hintmask 11011100
          16 67 15 64 13 61 rrcurveto
          2 hlineto
          13 -60 15 -64 16 -66 98 -409 rcurveline
          119 hlineto
          184 726 rlineto
          -113 hlineto
          -78 -384 -17 -83 -18 -90 -15 -78 rlinecurve
          -2 hlineto
          -16 80 -18 88 -17 83 -79 384 rcurveline
          -142 hlineto
          -79 -384 -17 -83 -18 -88 -16 -80 rlinecurve
          -2 hlineto
          -15 78 -18 90 -17 83 -78 384 rcurveline
          -119 hlineto
          398 95 rmoveto
          3 30 0 37 29 vvcurveto
          -98 hlineto
          -29 0 -37 2 -30 vhcurveto
          288 hmoveto
          3 30 0 37 29 vvcurveto
          -98 hlineto
          -29 0 -37 3 -30 vhcurveto
          endchar
        </CharString>
        <CharString name="Wgrave">
          347 0 91 508 127 0 -20 91 144 hstemhm
          20 894 hintmask 10111000
          205 hmoveto
          121 hlineto
          97 407 rlineto
          hintmask 11011000
          16 67 15 64 13 61 rrcurveto
          2 hlineto
          13 -60 15 -64 16 -66 98 -409 rcurveline
          119 hlineto
          184 726 rlineto
          -113 hlineto
          -78 -384 -17 -83 -18 -90 -15 -78 rlinecurve
          -2 hlineto
          -16 80 -18 88 -17 83 -79 384 rcurveline
          -142 hlineto
          -79 -384 -17 -83 -18 -88 -16 -80 rlinecurve
          -2 hlineto
          -15 78 -18 90 -17 83 -78 384 rcurveline
          -119 hlineto
          515 71 rmoveto
          -31 49 -32 48 -33 47 rrcurveto
          -103 hlineto
          41 -52 40 -48 41 -44 rrcurveto
          endchar
        </CharString>
        <CharString name="X">
          40 21 -21 726 -20 hstem
          13 601 vstem
          13 hmoveto
          122 hlineto
          107 186 23 40 23 40 22 40 rlinecurve
          2 hlineto
          20 -37 28 -49 24 -42 102 -178 rcurveline
          128 hlineto
          -148 231 -32 50 -32 49 -31 46 rlinecurve
          30 44 32 48 30 46 138 212 rcurveline
          -122 hlineto
          -88 -153 -26 -45 -28 -49 -22 -40 rlinecurve
          -2 hlineto
          -23 42 -27 48 -25 44 -87 153 rcurveline
          -128 hlineto
          136 -210 31 -48 33 -50 32 -47 rlinecurve
          -30 -44 -30 -46 -30 -46 rrcurveto
          endchar
        </CharString>
        <CharString name="Y">
          39 21 -21 726 -20 hstem
          263 100 vstem
          263 hmoveto
          100 290 hlineto
          34 57 34 58 34 59 151 262 rcurveline
          -123 hlineto
          -99 -193 -25 -49 -28 -55 -24 -48 rlinecurve
          -2 hlineto
          -23 46 -24 47 -27 53 -102 199 rcurveline
          -129 hlineto
          149 -259 34 -59 35 -60 35 -59 rlinecurve
          endchar
        </CharString>
        <CharString name="Yacute">
          39 21 -21 726 -20 91 144 hstem
          263 100 vstem
          263 hmoveto
          100 290 hlineto
          34 57 34 58 34 59 151 262 rcurveline
          -123 hlineto
          -99 -193 -25 -49 -28 -55 -24 -48 rlinecurve
          -2 hlineto
          -23 46 -24 47 -27 53 -102 199 rcurveline
          -129 hlineto
          149 -259 34 -59 35 -60 35 -59 rlinecurve
          61 508 rmoveto
          41 44 40 48 41 52 rrcurveto
          -103 hlineto
          -33 -47 -32 -48 -31 -49 rrcurveto
          endchar
        </CharString>
        <CharString name="Ycircumflex">
          39 21 -21 726 -20 91 144 hstem
          263 100 vstem
          263 hmoveto
          100 290 hlineto
          34 57 34 58 34 59 151 262 rcurveline
          -123 hlineto
          -99 -193 -25 -49 -28 -55 -24 -48 rlinecurve
          -2 hlineto
          -23 46 -24 47 -27 53 -102 199 rcurveline
          -129 hlineto
          149 -259 34 -59 35 -60 35 -59 rlinecurve
          -17 508 rmoveto
          23 28 22 28 21 30 21 -30 22 -28 23 -28 rrcurveto
          85 hlineto
          -34 47 -36 48 -40 49 rrcurveto
          -79 hlineto
          -40 -49 -36 -48 -34 -47 rrcurveto
          endchar
        </CharString>
        <CharString name="Ydieresis">
          39 21 -21 726 -20 115 96 hstemhm
          167 98 -2 100 -1 98 hintmask 11101000
          263 hmoveto
          100 290 hlineto
          34 57 34 58 34 59 151 262 rcurveline
          -123 hlineto
          -99 -193 -25 -49 -28 -55 -24 -48 rlinecurve
          -2 hlineto
          -23 46 -24 47 -27 53 -102 199 rcurveline
          -129 hlineto
          149 -259 34 -59 35 -60 35 -59 rlinecurve
          hintmask 11110100
          -1 532 rmoveto
          3 30 0 37 29 vvcurveto
          -98 hlineto
          -29 0 -37 2 -30 vhcurveto
          288 hmoveto
          3 30 0 37 29 vvcurveto
          -98 hlineto
          -29 0 -37 3 -30 vhcurveto
          endchar
        </CharString>
        <CharString name="Ygrave">
          39 21 -21 726 -20 91 144 hstem
          263 100 vstem
          263 hmoveto
          100 290 hlineto
          34 57 34 58 34 59 151 262 rcurveline
          -123 hlineto
          -99 -193 -25 -49 -28 -55 -24 -48 rlinecurve
          -2 hlineto
          -23 46 -24 47 -27 53 -102 199 rcurveline
          -129 hlineto
          149 -259 34 -59 35 -60 35 -59 rlinecurve
          116 508 rmoveto
          -31 49 -32 48 -33 47 rrcurveto
          -103 hlineto
          41 -52 40 -48 41 -44 rrcurveto
          endchar
        </CharString>
        <CharString name="Z">
          12 0 100 519 107 hstem
          48 503 vstem
          48 2 rmoveto
          -2 81 83 0 89 hhcurveto
          247 hlineto
          3 100 rlineto
          -241 hlineto
          -45 -75 0 -2 -27 hvcurveto
          2 vlineto
          127 175 128 181 123 177 rrcurveto
          91 vlineto
          2 -79 -76 0 -83 hhcurveto
          -246 hlineto
          -3 -107 rlineto
          208 hlineto
          45 73 0 2 28 hvcurveto
          -2 vlineto
          -121 -174 -121 -178 -118 -177 rrcurveto
          endchar
        </CharString>
        <CharString name="Zacute">
          12 0 100 519 107 71 144 hstem
          48 503 vstem
          48 2 rmoveto
          -2 81 83 0 89 hhcurveto
          247 hlineto
          3 100 rlineto
          -241 hlineto
          -45 -75 0 -2 -27 hvcurveto
          2 vlineto
          127 175 128 181 123 177 rrcurveto
          91 vlineto
          2 -79 -76 0 -83 hhcurveto
          -246 hlineto
          -3 -107 rlineto
          208 hlineto
          45 73 0 2 28 hvcurveto
          -2 vlineto
          -121 -174 -121 -178 -118 -177 rrcurveto
          268 707 rmoveto
          41 44 40 48 41 52 rrcurveto
          -103 hlineto
          -33 -47 -32 -48 -31 -49 rrcurveto
          endchar
        </CharString>
        <CharString name="Zcaron">
          12 0 100 519 107 71 144 hstem
          48 503 vstem
          48 2 rmoveto
          -2 81 83 0 89 hhcurveto
          247 hlineto
          3 100 rlineto
          -241 hlineto
          -45 -75 0 -2 -27 hvcurveto
          2 vlineto
          127 175 128 181 123 177 rrcurveto
          91 vlineto
          2 -79 -76 0 -83 hhcurveto
          -246 hlineto
          -3 -107 rlineto
          208 hlineto
          45 73 0 2 28 hvcurveto
          -2 vlineto
          -121 -174 -121 -178 -118 -177 rrcurveto
          407 851 rmoveto
          -82 hlineto
          -23 -28 -22 -28 -21 -30 -21 30 -22 28 -23 28 rrcurveto
          -85 hlineto
          34 -47 36 -48 40 -49 rrcurveto
          79 hlineto
          40 49 36 48 34 47 rrcurveto
          endchar
        </CharString>
        <CharString name="Zdotaccent">
          12 0 100 519 107 95 96 hstem
          256 99 vstem
          48 2 rmoveto
          -2 81 83 0 89 hhcurveto
          247 hlineto
          3 100 rlineto
          -241 hlineto
          -45 -75 0 -2 -27 hvcurveto
          2 vlineto
          127 175 128 181 123 177 rrcurveto
          91 vlineto
          2 -79 -76 0 -83 hhcurveto
          -246 hlineto
          -3 -107 rlineto
          208 hlineto
          45 73 0 2 28 hvcurveto
          -2 vlineto
          -121 -174 -121 -178 -118 -177 rrcurveto
          304 731 rmoveto
          3 30 0 37 29 vvcurveto
          -99 hlineto
          -29 0 -37 3 -30 vhcurveto
          endchar
        </CharString>
        <CharString name="a">
          -47 -11 93 -61 -21 248 89 137 106 hstemhm
          47 92 229 95 hintmask 10111100
          368 219 rmoveto
          -38 1 -33 2 -31 vhcurveto
          -22 -35 -46 -13 -44 hhcurveto
          -79 -28 44 47 25 8 14 19 10 hvcurveto
          19 10 26 5 55 6 rrcurveto
          4 36 34 1 32 hhcurveto
          hintmask 01111100
          99 -248 rmoveto
          -4 90 0 80 81 vvcurveto
          38 3 66 32 vvcurveto
          77 -17 43 -36 30 vhcurveto
          28 -33 -49 15 -58 hhcurveto
          -82 -62 -29 -30 -39 hvcurveto
          6 -68 rlineto
          11 37 51 10 56 hhcurveto
          44 34 -6 -17 23 hvcurveto
          27 -20 3 -36 -33 vvcurveto
          -25 vlineto
          -39 -3 -40 -5 -30 -5 -78 -13 -49 -18 -32 -25 rrcurveto
          -33 -26 -23 -40 -54 vvcurveto
          hintmask 10111100
          -93 72 -66 91 62 45 30 52 56 vhcurveto
          2 hlineto
          hintmask 01111100
          2 -23 3 -23 3 -25 rrcurveto
          endchar
        </CharString>
        <CharString name="aacute">
          -47 -11 93 -61 -21 248 89 137 106 59 144 hstemhm
          47 92 229 95 hintmask 10111110
          368 219 rmoveto
          -38 1 -33 2 -31 vhcurveto
          -22 -35 -46 -13 -44 hhcurveto
          -79 -28 44 47 25 8 14 19 10 hvcurveto
          19 10 26 5 55 6 rrcurveto
          4 36 34 1 32 hhcurveto
          hintmask 01111110
          99 -248 rmoveto
          -4 90 0 80 81 vvcurveto
          38 3 66 32 vvcurveto
          77 -17 43 -36 30 vhcurveto
          28 -33 -49 15 -58 hhcurveto
          -82 -62 -29 -30 -39 hvcurveto
          6 -68 rlineto
          11 37 51 10 56 hhcurveto
          44 34 -6 -17 23 hvcurveto
          27 -20 3 -36 -33 vvcurveto
          -25 vlineto
          -39 -3 -40 -5 -30 -5 -78 -13 -49 -18 -32 -25 rrcurveto
          -33 -26 -23 -40 -54 vvcurveto
          hintmask 10111110
          -93 72 -66 91 62 45 30 52 56 vhcurveto
          2 hlineto
          hintmask 01111110
          2 -23 3 -23 3 -25 rrcurveto
          -99 639 rmoveto
          41 44 40 48 41 52 rrcurveto
          -103 hlineto
          -33 -47 -32 -48 -31 -49 rrcurveto
          endchar
        </CharString>
        <CharString name="abreve">
          -47 -11 93 -61 -21 248 89 137 106 55 58 hstemhm
          47 92 -4 58 163 56 -44 95 hintmask 1011110010000000
          368 219 rmoveto
          -38 1 -33 2 -31 vhcurveto
          -22 -35 -46 -13 -44 hhcurveto
          -79 -28 44 47 25 8 14 19 10 hvcurveto
          19 10 26 5 55 6 rrcurveto
          4 36 34 1 32 hhcurveto
          hintmask 0111110010000000
          99 -248 rmoveto
          -4 90 0 80 81 vvcurveto
          38 3 66 32 vvcurveto
          77 -17 43 -36 30 vhcurveto
          28 -33 -49 15 -58 hhcurveto
          -82 -62 -29 -30 -39 hvcurveto
          6 -68 rlineto
          11 37 51 10 56 hhcurveto
          44 34 -6 -17 23 hvcurveto
          27 -20 3 -36 -33 vvcurveto
          -25 vlineto
          -39 -3 -40 -5 -30 -5 -78 -13 -49 -18 -32 -25 rrcurveto
          -33 -26 -23 -40 -54 vvcurveto
          hintmask 1011110010000000
          -93 72 -66 91 62 45 30 52 56 vhcurveto
          2 hlineto
          hintmask 0111110010000000
          2 -23 3 -23 3 -25 rrcurveto
          hintmask 1011101100000000
          -27 783 rmoveto
          -46 -5 -19 -44 -58 hhcurveto
          -56 -20 44 46 -5 hvcurveto
          -58 hlineto
          -84 3 44 -64 91 hhcurveto
          92 44 64 84 3 hvcurveto
          endchar
        </CharString>
        <CharString name="acircumflex">
          -47 -11 93 -61 -21 248 89 137 106 59 144 hstemhm
          47 92 229 95 hintmask 10111110
          368 219 rmoveto
          -38 1 -33 2 -31 vhcurveto
          -22 -35 -46 -13 -44 hhcurveto
          -79 -28 44 47 25 8 14 19 10 hvcurveto
          19 10 26 5 55 6 rrcurveto
          4 36 34 1 32 hhcurveto
          hintmask 01111110
          99 -248 rmoveto
          -4 90 0 80 81 vvcurveto
          38 3 66 32 vvcurveto
          77 -17 43 -36 30 vhcurveto
          28 -33 -49 15 -58 hhcurveto
          -82 -62 -29 -30 -39 hvcurveto
          6 -68 rlineto
          11 37 51 10 56 hhcurveto
          44 34 -6 -17 23 hvcurveto
          27 -20 3 -36 -33 vvcurveto
          -25 vlineto
          -39 -3 -40 -5 -30 -5 -78 -13 -49 -18 -32 -25 rrcurveto
          -33 -26 -23 -40 -54 vvcurveto
          hintmask 10111110
          -93 72 -66 91 62 45 30 52 56 vhcurveto
          2 hlineto
          hintmask 01111110
          2 -23 3 -23 3 -25 rrcurveto
          -177 639 rmoveto
          23 28 22 28 21 30 21 -30 22 -28 23 -28 rrcurveto
          85 hlineto
          -34 47 -36 48 -40 49 rrcurveto
          -79 hlineto
          -40 -49 -36 -48 -34 -47 rrcurveto
          endchar
        </CharString>
        <CharString name="acute">
          -24 639 144 hstem
          215 199 vstem
          292 639 rmoveto
          41 44 40 48 41 52 rrcurveto
          -103 hlineto
          -33 -47 -32 -48 -31 -49 rrcurveto
          endchar
        </CharString>
        <CharString name="acute.cap">
          -24 797 144 hstem
          215 199 vstem
          292 797 rmoveto
          41 44 40 48 41 52 rrcurveto
          -103 hlineto
          -33 -47 -32 -48 -31 -49 rrcurveto
          endchar
        </CharString>
        <CharString name="adieresis">
          -47 -11 93 -61 -21 248 89 137 106 83 96 hstemhm
          47 92 -12 98 97 98 -52 95 hintmask 1011101010000000
          368 219 rmoveto
          -38 1 -33 2 -31 vhcurveto
          -22 -35 -46 -13 -44 hhcurveto
          hintmask 1011110010000000
          -79 -28 44 47 25 8 14 19 10 hvcurveto
          19 10 26 5 55 6 rrcurveto
          4 36 34 1 32 hhcurveto
          hintmask 0111110010000000
          99 -248 rmoveto
          -4 90 0 80 81 vvcurveto
          38 3 66 32 vvcurveto
          77 -17 43 -36 30 vhcurveto
          28 -33 -49 15 -58 hhcurveto
          -82 -62 -29 -30 -39 hvcurveto
          6 -68 rlineto
          11 37 51 10 56 hhcurveto
          44 34 -6 -17 23 hvcurveto
          27 -20 3 -36 -33 vvcurveto
          -25 vlineto
          -39 -3 -40 -5 -30 -5 -78 -13 -49 -18 -32 -25 rrcurveto
          -33 -26 -23 -40 -54 vvcurveto
          hintmask 1011110010000000
          -93 72 -66 91 62 45 30 52 56 vhcurveto
          2 hlineto
          hintmask 0111101010000000
          2 -23 3 -23 3 -25 rrcurveto
          -161 663 rmoveto
          3 30 0 37 29 vvcurveto
          -98 hlineto
          -29 0 -37 2 -30 vhcurveto
          hintmask 1011101100000000
          288 hmoveto
          3 30 0 37 29 vvcurveto
          -98 hlineto
          -29 0 -37 3 -30 vhcurveto
          endchar
        </CharString>
        <CharString name="ae">
          271 -11 93 158 86 -78 88 138 106 -101 101 hstemhm
          47 92 221 94 -93 89 271 87 hintmask 1100110110000000
          246 82 rmoveto
          -79 -28 43 49 hvcurveto
          hintmask 1010111010000000
          23 7 14 21 11 vhcurveto
          17 9 21 6 61 6 rrcurveto
          4 39 25 1 30 hhcurveto
          3 -42 9 -40 17 -37 rrcurveto
          hintmask 1100110110000000
          -34 -48 -51 -13 -44 hhcurveto
          336 397 rmoveto
          59 34 -20 -30 19 hvcurveto
          17 -27 9 -34 1 -43 rrcurveto
          1 -23 -22 0 -23 hhcurveto
          -66 -65 -2 -3 -72 hvcurveto
          2 42 8 39 17 28 rrcurveto
          33 20 32 16 53 hhcurveto
          hintmask 1011010110000000
          -487 -26 rmoveto
          11 36 49 10 54 hhcurveto
          43 33 -6 -17 22 hvcurveto
          26 -20 3 -36 -33 vvcurveto
          -26 vlineto
          -36 -3 -36 -4 -27 -5 -78 -13 -49 -18 -32 -25 rrcurveto
          -33 -26 -23 -40 -54 vvcurveto
          -93 70 -66 97 84 61 48 52 49 vhcurveto
          3 hlineto
          -64 47 66 -36 89 hhcurveto
          86 55 34 30 36 hvcurveto
          75 vlineto
          -28 -48 -50 -16 -54 hhcurveto
          hintmask 1100111010000000
          -62 -51 20 39 -31 hvcurveto
          -25 31 -10 37 -5 34 rrcurveto
          -3 62 72 -2 65 hhcurveto
          47 57 1 1 44 hvcurveto
          4 25 3 32 32 vvcurveto
          60 -11 60 -30 45 vhcurveto
          62 -41 -64 22 -66 hhcurveto
          -82 -51 -35 -41 -34 hvcurveto
          -2 hlineto
          57 -31 -69 19 -59 hhcurveto
          -80 -61 -29 -30 -38 hvcurveto
          endchar
        </CharString>
        <CharString name="aeacute">
          271 -11 93 158 86 -78 88 138 106 -101 101 59 144 hstemhm
          47 92 221 94 -93 89 271 87 hintmask 1100101011000000
          246 82 rmoveto
          -79 -28 43 49 hvcurveto
          hintmask 1010101101000000
          23 7 14 21 11 vhcurveto
          17 9 21 6 61 6 rrcurveto
          4 39 25 1 30 hhcurveto
          3 -42 9 -40 17 -37 rrcurveto
          hintmask 1100101011000000
          -34 -48 -51 -13 -44 hhcurveto
          336 397 rmoveto
          59 34 -20 -30 19 hvcurveto
          17 -27 9 -34 1 -43 rrcurveto
          1 -23 -22 0 -23 hhcurveto
          -66 -65 -2 -3 -72 hvcurveto
          2 42 8 39 17 28 rrcurveto
          33 20 32 16 53 hhcurveto
          hintmask 1011001011000000
          -487 -26 rmoveto
          11 36 49 10 54 hhcurveto
          43 33 -6 -17 22 hvcurveto
          26 -20 3 -36 -33 vvcurveto
          -26 vlineto
          -36 -3 -36 -4 -27 -5 -78 -13 -49 -18 -32 -25 rrcurveto
          -33 -26 -23 -40 -54 vvcurveto
          -93 70 -66 97 84 61 48 52 49 vhcurveto
          3 hlineto
          -64 47 66 -36 89 hhcurveto
          86 55 34 30 36 hvcurveto
          75 vlineto
          -28 -48 -50 -16 -54 hhcurveto
          hintmask 1100111101000000
          -62 -51 20 39 -31 hvcurveto
          -25 31 -10 37 -5 34 rrcurveto
          -3 62 72 -2 65 hhcurveto
          47 57 1 1 44 hvcurveto
          4 25 3 32 32 vvcurveto
          60 -11 60 -30 45 vhcurveto
          62 -41 -64 22 -66 hhcurveto
          -82 -51 -35 -41 -34 hvcurveto
          -2 hlineto
          57 -31 -69 19 -59 hhcurveto
          -80 -61 -29 -30 -38 hvcurveto
          377 118 rmoveto
          41 44 40 48 41 52 rrcurveto
          -103 hlineto
          -33 -47 -32 -48 -31 -49 rrcurveto
          endchar
        </CharString>
        <CharString name="agrave">
          -47 -11 93 -61 -21 248 89 137 106 59 144 hstemhm
          47 92 229 95 hintmask 10111110
          368 219 rmoveto
          -38 1 -33 2 -31 vhcurveto
          -22 -35 -46 -13 -44 hhcurveto
          -79 -28 44 47 25 8 14 19 10 hvcurveto
          19 10 26 5 55 6 rrcurveto
          4 36 34 1 32 hhcurveto
          hintmask 01111110
          99 -248 rmoveto
          -4 90 0 80 81 vvcurveto
          38 3 66 32 vvcurveto
          77 -17 43 -36 30 vhcurveto
          28 -33 -49 15 -58 hhcurveto
          -82 -62 -29 -30 -39 hvcurveto
          6 -68 rlineto
          11 37 51 10 56 hhcurveto
          44 34 -6 -17 23 hvcurveto
          27 -20 3 -36 -33 vvcurveto
          -25 vlineto
          -39 -3 -40 -5 -30 -5 -78 -13 -49 -18 -32 -25 rrcurveto
          -33 -26 -23 -40 -54 vvcurveto
          hintmask 10111110
          -93 72 -66 91 62 45 30 52 56 vhcurveto
          2 hlineto
          hintmask 01111110
          2 -23 3 -23 3 -25 rrcurveto
          -44 639 rmoveto
          -31 49 -32 48 -33 47 rrcurveto
          -103 hlineto
          41 -52 40 -48 41 -44 rrcurveto
          endchar
        </CharString>
        <CharString name="amacron">
          -47 -11 93 -61 -21 248 89 137 106 97 68 hstemhm
          47 92 -2 273 -42 95 hintmask 10111101
          368 219 rmoveto
          -38 1 -33 2 -31 vhcurveto
          -22 -35 -46 -13 -44 hhcurveto
          -79 -28 44 47 25 8 14 19 10 hvcurveto
          19 10 26 5 55 6 rrcurveto
          4 36 34 1 32 hhcurveto
          hintmask 01111101
          99 -248 rmoveto
          -4 90 0 80 81 vvcurveto
          38 3 66 32 vvcurveto
          77 -17 43 -36 30 vhcurveto
          28 -33 -49 15 -58 hhcurveto
          -82 -62 -29 -30 -39 hvcurveto
          6 -68 rlineto
          11 37 51 10 56 hhcurveto
          44 34 -6 -17 23 hvcurveto
          27 -20 3 -36 -33 vvcurveto
          -25 vlineto
          -39 -3 -40 -5 -30 -5 -78 -13 -49 -18 -32 -25 rrcurveto
          -33 -26 -23 -40 -54 vvcurveto
          hintmask 10111101
          -93 72 -66 91 62 45 30 52 56 vhcurveto
          2 hlineto
          hintmask 01111101
          2 -23 3 -23 3 -25 rrcurveto
          hintmask 10111010
          -246 677 rmoveto
          273 68 -273 hlineto
          endchar
        </CharString>
        <CharString name="ampersand">
          124 -11 96 -68 -21 643 98 hstemhm
          52 90 -36 91 206 90 44 79 hintmask 10110110
          462 122 rmoveto
          -24 -36 -47 -13 -57 hhcurveto
          -47 -41 9 21 -34 hvcurveto
          -37 23 -21 33 41 vvcurveto
          58 41 33 61 33 vhcurveto
          hintmask 10101110
          -20 285 rmoveto
          11 15 25 7 28 hhcurveto
          27 29 -6 -15 21 hvcurveto
          25 -18 9 -27 -21 vvcurveto
          -50 -49 -37 -71 -37 vhcurveto
          -67 66 -19 35 36 vvcurveto
          28 12 17 15 11 vhcurveto
          491 -538 rmoveto
          -52 9 -38 14 -51 41 rrcurveto
          27 47 15 53 50 vvcurveto
          44 -12 42 -18 32 vhcurveto
          -73 -18 rlineto
          12 -35 12 -51 -45 vvcurveto
          -27 -4 -24 -10 -22 vhcurveto
          -191 187 47 25 43 31 28 34 rlinecurve
          27 33 16 40 45 vvcurveto
          45 -16 38 -36 28 vhcurveto
          26 -33 -47 12 -47 hhcurveto
          -59 -52 -19 -36 -39 hvcurveto
          -37 -34 -21 -46 -51 vvcurveto
          -66 35 -46 52 -53 vhcurveto
          hintmask 10110110
          -32 -18 -27 -18 -22 -23 rrcurveto
          -40 -41 -20 -50 -53 vvcurveto
          -65 30 -52 51 -34 vhcurveto
          -33 49 59 -10 52 hhcurveto
          91 76 31 52 55 hvcurveto
          hintmask 01110110
          53 -46 42 -22 75 -8 rrcurveto
          endchar
        </CharString>
        <CharString name="aogonek">
          -47 -189 81 97 93 166 89 137 106 hstemhm
          47 92 124 81 24 95 hintmask 11111010
          368 219 rmoveto
          -38 1 -33 2 -30 vhcurveto
          -23 -35 -46 -13 -44 hhcurveto
          -79 -28 44 47 25 8 14 19 10 hvcurveto
          19 10 26 5 55 6 rrcurveto
          4 36 34 1 32 hhcurveto
          7 -177 rmoveto
          6 -53 rlineto
          hintmask 11111110
          -77 -34 -41 -39 -46 vvcurveto
          -44 37 -44 89 30 31 5 7 21 vhcurveto
          -4 73 rlineto
          -2 -17 -21 -2 -20 hhcurveto
          -32 -33 5 22 19 28 23 95 40 hvcurveto
          hintmask 11111010
          -4 90 0 79 81 vvcurveto
          38 3 66 32 vvcurveto
          77 -17 43 -36 30 vhcurveto
          28 -33 -49 15 -58 hhcurveto
          -82 -62 -29 -30 -39 hvcurveto
          6 -68 rlineto
          11 37 51 10 56 hhcurveto
          44 34 -6 -17 23 hvcurveto
          27 -20 3 -36 -33 vvcurveto
          -25 vlineto
          -39 -3 -40 -5 -30 -5 -78 -13 -49 -18 -32 -25 rrcurveto
          -33 -26 -23 -40 -54 vvcurveto
          -93 72 -66 91 62 45 30 52 56 vhcurveto
          endchar
        </CharString>
        <CharString name="apple">
          417 16 -21 hstem
          102 772 vstem
          483 674 rmoveto
          49 44 19 38 37 hvcurveto
          35 36 21 48 48 vvcurveto
          10 -1 9 -1 6 vhcurveto
          -57 -2 -43 -26 -35 -39 rrcurveto
          -34 -38 -17 -42 -40 vvcurveto
          -10 1 -11 1 -6 vhcurveto
          -275 -578 rmoveto
          -67 50 51 -34 40 hhcurveto
          18 19 7 19 50 hvcurveto
          9 24 19 4 22 hhcurveto
          28 19 -6 -11 30 hvcurveto
          -17 47 18 -5 17 hhcurveto
          35 39 24 48 42 hvcurveto
          43 49 32 57 23 65 rrcurveto
          -83 43 -42 63 77 vvcurveto
          70 34 57 67 49 vhcurveto
          58 -47 -62 29 -78 hhcurveto
          -32 -29 -5 -9 -27 hvcurveto
          -20 -58 -9 -3 -12 hhcurveto
          -13 -9 3 13 -34 hvcurveto
          16 -42 -20 5 -32 hhcurveto
          -73 -59 -25 -49 -45 hvcurveto
          -45 -49 -22 -66 -82 vvcurveto
          -117 45 -118 61 -82 vhcurveto
          endchar
        </CharString>
        <CharString name="approxequal">
          -4 200 80 -29 80 62 80 -29 80 hstemhm
          60 463 hintmask 01101000
          471 525 rmoveto
          -37 -17 -19 -15 -38 hhcurveto
          -30 -29 9 13 -34 hvcurveto
          hintmask 01011000
          18 -47 -30 11 -37 hhcurveto
          -49 -53 -20 -86 -28 hvcurveto
          52 -26 rlineto
          37 17 19 15 39 hhcurveto
          32 27 -10 -12 32 hvcurveto
          hintmask 10101000
          -18 48 29 -11 37 hhcurveto
          49 53 20 86 29 hvcurveto
          -52 -167 rmoveto
          -37 -17 -19 -15 -38 hhcurveto
          -30 -29 9 13 -34 hvcurveto
          hintmask 01011000
          18 -47 -30 11 -37 hhcurveto
          -49 -53 -20 -86 -28 hvcurveto
          52 -26 rlineto
          37 17 19 15 39 hhcurveto
          32 27 -10 -12 32 hvcurveto
          hintmask 10011000
          -18 48 29 -11 37 hhcurveto
          49 53 20 86 29 hvcurveto
          endchar
        </CharString>
        <CharString name="aring">
          -47 -11 93 -61 -21 248 89 137 106 37 50 128 50 hstemhm
          47 92 20 50 129 50 -20 95 hintmask 1001110101000000
          368 219 rmoveto
          -38 1 -33 2 -31 vhcurveto
          -22 -35 -46 -13 -44 hhcurveto
          hintmask 1011111101000000
          -79 -28 44 47 25 8 14 19 10 hvcurveto
          19 10 26 5 55 6 rrcurveto
          4 36 34 1 32 hhcurveto
          hintmask 0111111101000000
          99 -248 rmoveto
          -4 90 0 80 81 vvcurveto
          38 3 66 32 vvcurveto
          77 -17 43 -36 30 vhcurveto
          28 -33 -49 15 -58 hhcurveto
          -82 -62 -29 -30 -39 hvcurveto
          6 -68 rlineto
          11 37 51 10 56 hhcurveto
          44 34 -6 -17 23 hvcurveto
          27 -20 3 -36 -33 vvcurveto
          -25 vlineto
          -39 -3 -40 -5 -30 -5 -78 -13 -49 -18 -32 -25 rrcurveto
          -33 -26 -23 -40 -54 vvcurveto
          hintmask 1001111101000000
          -93 72 -66 91 62 45 30 52 56 vhcurveto
          2 hlineto
          hintmask 0101110101000000
          2 -23 3 -23 3 -25 rrcurveto
          -112 617 rmoveto
          hintmask 1001110110000000
          65 52 50 65 65 -47 48 -65 -65 -52 -50 -65 hvcurveto
          hintmask 0101110101000000
          -65 47 -48 65 vhcurveto
          hintmask 1001110110000000
          4 50 rmoveto
          -40 -26 30 35 35 22 28 41 40 26 -30 -35 -35 -22 -28 -41 hvcurveto
          endchar
        </CharString>
        <CharString name="asciicircum">
          -45 362 390 -90 90 hstemhm
          57 428 hintmask 10100000
          135 362 rmoveto
          hintmask 01100000
          48 104 44 100 43 96 rrcurveto
          2 hlineto
          45 -102 45 -101 45 -97 rrcurveto
          78 hlineto
          -59 130 -60 130 -61 130 rrcurveto
          -68 hlineto
          -60 -127 -60 -130 -60 -133 rrcurveto
          endchar
        </CharString>
        <CharString name="asciitilde">
          -32 297 78 -26 78 hstemhm
          62 431 hintmask 01100000
          125 296 rmoveto
          38 12 19 15 31 hhcurveto
          28 26 -11 -13 30 hvcurveto
          hintmask 10100000
          -18 43 26 -10 34 hhcurveto
          43 54 17 91 22 hvcurveto
          -63 23 rlineto
          -38 -13 -18 -15 -31 hhcurveto
          -28 -26 11 13 -31 hvcurveto
          hintmask 01100000
          18 -42 -26 10 -34 hhcurveto
          -43 -54 -17 -91 -22 hvcurveto
          endchar
        </CharString>
        <CharString name="asterisk">
          -123 726 -20 hstem
          203 57 vstem
          145 355 rmoveto
          31 44 29 46 25 47 rrcurveto
          3 hlineto
          25 -47 29 -46 31 -44 55 40 rcurveline
          -34 43 -35 42 -36 38 1 3 rcurveline
          54 10 55 12 50 16 -23 66 rcurveline
          -51 -18 -54 -23 -44 -22 -2 2 rcurveline
          7 54 4 54 1 54 rrcurveto
          -69 hlineto
          1 -54 4 -54 7 -54 -2 -2 rcurveline
          -44 22 -54 23 -51 18 -23 -66 rcurveline
          50 -16 55 -12 54 -10 1 -3 rcurveline
          -36 -38 -35 -42 -34 -43 rrcurveto
          endchar
        </CharString>
        <CharString name="at">
          246 -114 70 124 64 -64 77 272 84 124 70 hstemhm
          39 69 116 75 200 76 153 69 hintmask 1011111110000000
          499 235 rmoveto
          -14 1 -13 2 -12 vhcurveto
          -25 -25 -34 -14 -40 hhcurveto
          -36 -22 12 24 -17 hvcurveto
          -17 24 -12 38 49 vvcurveto
          37 7 34 13 21 vhcurveto
          21 13 22 12 39 hhcurveto
          41 40 -14 -19 30 hvcurveto
          -3 -37 -2 -37 -32 vvcurveto
          16 207 rmoveto
          -2 -13 -2 -15 -2 -19 rrcurveto
          -2 hlineto
          38 -28 -39 25 -52 hhcurveto
          -58 -43 -31 -44 -27 hvcurveto
          -24 -39 -12 -51 -57 vvcurveto
          -62 14 -49 27 -38 vhcurveto
          -39 28 40 -23 47 hhcurveto
          53 41 29 40 41 hvcurveto
          hintmask 1101111110000000
          -47 20 41 -22 50 hhcurveto
          87 84 65 165 106 -35 98 -64 71 hvcurveto
          74 -66 -97 48 -117 hhcurveto
          -115 -94 -46 -71 -64 hvcurveto
          -67 -74 -39 -105 -119 vvcurveto
          -106 31 -105 72 -79 vhcurveto
          -73 66 94 -43 118 hhcurveto
          107 83 36 52 61 hvcurveto
          -22 49 rlineto
          -44 -61 -76 -23 -82 hhcurveto
          -101 -77 35 58 -54 hvcurveto
          -57 61 -33 89 104 vvcurveto
          98 30 89 52 58 vhcurveto
          59 53 75 30 92 hhcurveto
          101 78 -36 -62 54 hvcurveto
          60 -68 25 -92 -87 vvcurveto
          -104 -36 -44 -50 -43 -24 33 79 vhcurveto
          42 vlineto
          56 2 80 3 61 vhcurveto
          endchar
        </CharString>
        <CharString name="at.cap">
          246 -36 70 124 64 -64 77 272 84 -16 -20 160 70 hstemhm
          39 69 116 75 200 76 153 69 hintmask 1011011111000000
          499 313 rmoveto
          -14 1 -13 2 -12 vhcurveto
          -25 -25 -34 -14 -40 hhcurveto
          -36 -22 12 24 -17 hvcurveto
          -17 24 -12 38 49 vvcurveto
          37 7 34 13 21 vhcurveto
          21 13 22 12 39 hhcurveto
          41 40 -14 -19 30 hvcurveto
          -3 -37 -2 -37 -32 vvcurveto
          hintmask 1100111111000000
          16 207 rmoveto
          hintmask 1011011111000000
          -2 -13 -2 -15 -2 -19 rrcurveto
          -2 hlineto
          38 -28 -39 25 -52 hhcurveto
          -58 -43 -31 -44 -27 hvcurveto
          -24 -39 -12 -51 -57 vvcurveto
          -62 14 -49 27 -38 vhcurveto
          -39 28 40 -23 47 hhcurveto
          53 41 29 40 41 hvcurveto
          hintmask 1100111111000000
          -47 20 41 -22 50 hhcurveto
          87 84 65 165 106 -35 98 -64 71 hvcurveto
          74 -66 -97 48 -117 hhcurveto
          -115 -94 -46 -71 -64 hvcurveto
          -67 -74 -39 -105 -119 vvcurveto
          -106 31 -105 72 -79 vhcurveto
          -73 66 94 -43 118 hhcurveto
          107 83 36 52 61 hvcurveto
          -22 49 rlineto
          -44 -61 -76 -23 -82 hhcurveto
          -101 -77 35 58 -54 hvcurveto
          -57 61 -33 89 104 vvcurveto
          98 30 89 52 58 vhcurveto
          59 53 75 30 92 hhcurveto
          101 78 -36 -62 54 hvcurveto
          60 -68 25 -92 -87 vvcurveto
          -104 -36 -44 -50 -43 -24 33 79 vhcurveto
          42 vlineto
          56 2 80 3 61 vhcurveto
          endchar
        </CharString>
        <CharString name="atilde">
          -47 -11 93 -61 -21 248 89 137 106 72 73 -25 73 hstemhm
          47 92 -31 56 204 95 -80 56 hintmask 1011101010000000
          368 219 rmoveto
          -38 1 -33 2 -31 vhcurveto
          -22 -35 -46 -13 -44 hhcurveto
          -79 -28 44 47 25 8 14 19 10 hvcurveto
          19 10 26 5 55 6 rrcurveto
          4 36 34 1 32 hhcurveto
          hintmask 0111101010000000
          99 -248 rmoveto
          -4 90 0 80 81 vvcurveto
          38 3 66 32 vvcurveto
          77 -17 43 -36 30 vhcurveto
          28 -33 -49 15 -58 hhcurveto
          -82 -62 -29 -30 -39 hvcurveto
          6 -68 rlineto
          11 37 51 10 56 hhcurveto
          44 34 -6 -17 23 hvcurveto
          27 -20 3 -36 -33 vvcurveto
          -25 vlineto
          -39 -3 -40 -5 -30 -5 -78 -13 -49 -18 -32 -25 rrcurveto
          -33 -26 -23 -40 -54 vvcurveto
          hintmask 1011101010000000
          -93 72 -66 91 62 45 30 52 56 vhcurveto
          2 hlineto
          hintmask 0111101010000000
          2 -23 3 -23 3 -25 rrcurveto
          hintmask 1011101001000000
          775 vmoveto
          -36 -6 -14 -14 -22 hhcurveto
          -20 -20 10 13 -21 hvcurveto
          hintmask 1011010110000000
          19 -35 -18 6 -24 hhcurveto
          -29 -58 -9 -106 -8 hvcurveto
          56 -8 rlineto
          36 6 14 14 22 hhcurveto
          20 20 -11 -12 21 hvcurveto
          hintmask 1011101001000000
          -20 35 18 -5 24 hhcurveto
          29 58 9 106 8 hvcurveto
          endchar
        </CharString>
        <CharString name="b">
          6 -11 95 -63 -21 472 108 175 -20 hstemhm
          79 95 277 92 hintmask 10111100
          174 440 rmoveto
          16 31 44 16 53 hhcurveto
          60 37 -20 -40 23 hvcurveto
          20 -35 9 -50 -54 vvcurveto
          -57 -9 -49 -23 -34 vhcurveto
          -37 -25 -39 -12 -45 hhcurveto
          -57 -45 19 25 -38 hvcurveto
          3 50 1 51 34 vvcurveto
          226 vmoveto
          76 0 94 2 96 vhcurveto
          -98 -4 rlineto
          1 -90 0 -100 -100 vvcurveto
          -197 vlineto
          hintmask 01111100
          -64 0 -138 1 -62 vhcurveto
          81 -1 rlineto
          hintmask 10111100
          2 17 2 20 1 21 rrcurveto
          -29 27 49 -39 72 hhcurveto
          71 57 37 57 39 hvcurveto
          39 57 23 80 90 vvcurveto
          63 -11 66 -30 51 vhcurveto
          56 -33 -55 34 -68 hhcurveto
          -68 -42 -34 -57 -60 hvcurveto
          endchar
        </CharString>
        <CharString name="backslash">
          -147 -38 790 hstem
          8 424 vstem
          345 -38 rmoveto
          87 hlineto
          -337 790 rlineto
          -87 hlineto
          endchar
        </CharString>
        <CharString name="bar">
          -279 -226 1019 hstem
          114 80 vstem
          114 -226 rmoveto
          80 1019 -80 hlineto
          endchar
        </CharString>
        <CharString name="braceleft">
          -206 -189 87 350 80 349 87 -9 -20 hstemhm
          31 107 -2 88 -88 92 hintmask 11100100
          336 -99 rmoveto
          hintmask 11100010
          -2 -13 -15 -1 -12 hhcurveto
          -51 -15 18 54 -2 hvcurveto
          -2 37 2 122 -4 49 rrcurveto
          hintmask 11101000
          -5 66 -22 33 -59 10 rrcurveto
          2 vlineto
          hintmask 11100100
          59 10 22 33 5 66 4 49 -2 121 2 37 rrcurveto
          54 2 15 18 51 hhcurveto
          12 15 -1 -2 13 hvcurveto
          hintmask 11010100
          3 81 rlineto
          hintmask 11100100
          5 -16 -24 4 -25 hhcurveto
          -86 -52 -47 -114 hvcurveto
          -49 4 -94 -47 vvcurveto
          hintmask 11101000
          -61 -16 -24 -57 vhcurveto
          -36 -80 hlineto
          hintmask 11100010
          36 hlineto
          57 16 -24 -61 hvcurveto
          -47 -4 -95 -49 vvcurveto
          -114 52 -47 86 25 24 4 5 16 vhcurveto
          endchar
        </CharString>
        <CharString name="braceleft.cap">
          -206 -110 87 350 80 349 87 hstemhm
          31 107 -2 88 -88 92 hintmask 11101000
          336 -20 rmoveto
          hintmask 11100100
          -2 -13 -15 -1 -12 hhcurveto
          -51 -15 18 54 -2 hvcurveto
          -2 37 2 122 -4 49 rrcurveto
          hintmask 11110000
          -5 66 -22 33 -59 10 rrcurveto
          2 vlineto
          hintmask 11101000
          59 10 22 33 5 66 4 49 -2 121 2 37 rrcurveto
          54 2 15 18 51 hhcurveto
          12 15 -1 -2 13 hvcurveto
          3 81 rlineto
          5 -16 -24 4 -25 hhcurveto
          -86 -52 -47 -114 hvcurveto
          -49 4 -94 -47 vvcurveto
          hintmask 11110000
          -61 -16 -24 -57 vhcurveto
          -36 -80 hlineto
          hintmask 11100100
          36 hlineto
          57 16 -24 -61 hvcurveto
          -47 -4 -95 -49 vvcurveto
          -114 52 -47 86 25 24 4 5 16 vhcurveto
          endchar
        </CharString>
        <CharString name="braceright">
          -206 -189 87 -57 -21 428 80 349 87 hstemhm
          153 92 -88 88 -2 107 hintmask 10110010
          350 248 rmoveto
          80 vlineto
          hintmask 10111000
          -36 hlineto
          -57 -16 24 61 hvcurveto
          47 4 94 49 vvcurveto
          114 -52 47 -86 -25 -24 -4 -5 -16 vhcurveto
          3 -81 rlineto
          2 13 15 1 12 hhcurveto
          51 15 -18 -54 2 hvcurveto
          2 -37 -2 -121 4 -49 rrcurveto
          hintmask 10110010
          5 -66 22 -33 59 -10 rrcurveto
          -2 vlineto
          hintmask 10110100
          -59 -10 -22 -33 -5 -66 -4 -49 2 -122 -2 -37 rrcurveto
          -54 -2 -15 -18 -51 hhcurveto
          -12 -15 1 2 -13 hvcurveto
          hintmask 01110100
          -3 -81 rlineto
          hintmask 10110100
          -5 16 24 -4 25 hhcurveto
          86 52 47 114 hvcurveto
          49 -4 95 47 vvcurveto
          hintmask 10110010
          61 16 24 57 vhcurveto
          endchar
        </CharString>
        <CharString name="braceright.cap">
          -206 -110 87 350 80 349 87 hstemhm
          153 92 -88 88 -2 107 hintmask 11100100
          350 327 rmoveto
          80 vlineto
          hintmask 11110000
          -36 hlineto
          -57 -16 24 61 hvcurveto
          47 4 94 49 vvcurveto
          114 -52 47 -86 -25 -24 -4 -5 -16 vhcurveto
          3 -81 rlineto
          2 13 15 1 12 hhcurveto
          51 15 -18 -54 2 hvcurveto
          2 -37 -2 -121 4 -49 rrcurveto
          hintmask 11100100
          5 -66 22 -33 59 -10 rrcurveto
          -2 vlineto
          hintmask 11101000
          -59 -10 -22 -33 -5 -66 -4 -49 2 -122 -2 -37 rrcurveto
          -54 -2 -15 -18 -51 hhcurveto
          -12 -15 1 2 -13 hvcurveto
          -3 -81 rlineto
          -5 16 24 -4 25 hhcurveto
          86 52 47 114 hvcurveto
          49 -4 95 47 vvcurveto
          hintmask 11100100
          61 16 24 57 vhcurveto
          endchar
        </CharString>
        <CharString name="bracketleft">
          -224 -178 84 763 84 hstem
          96 89 vstem
          185 -94 rmoveto
          763 123 84 -212 -931 212 84 vlineto
          endchar
        </CharString>
        <CharString name="bracketleft.cap">
          -224 -99 84 763 84 hstem
          96 89 vstem
          185 -15 rmoveto
          763 123 84 -212 -931 212 84 vlineto
          endchar
        </CharString>
        <CharString name="bracketright">
          -224 -178 84 763 84 hstem
          178 89 vstem
          55 -178 rmoveto
          212 931 -212 -84 123 -763 -123 hlineto
          endchar
        </CharString>
        <CharString name="bracketright.cap">
          -224 -99 84 763 84 hstem
          178 89 vstem
          55 -99 rmoveto
          212 931 -212 -84 123 -763 -123 hlineto
          endchar
        </CharString>
        <CharString name="breve">
          -24 635 58 hstem
          143 58 163 56 vstem
          364 783 rmoveto
          -46 -5 -19 -44 -58 hhcurveto
          -56 -20 44 46 -5 hvcurveto
          -58 hlineto
          -84 3 44 -64 91 hhcurveto
          92 44 64 84 3 hvcurveto
          endchar
        </CharString>
        <CharString name="breve.cap">
          -24 793 58 hstem
          143 58 163 56 vstem
          364 941 rmoveto
          -46 -5 -19 -44 -58 hhcurveto
          -56 -20 44 46 -5 hvcurveto
          -58 hlineto
          -84 3 44 -64 91 hhcurveto
          92 44 64 84 3 hvcurveto
          endchar
        </CharString>
        <CharString name="brokenbar">
          -279 -226 1019 hstem
          114 80 vstem
          114 401 rmoveto
          80 392 -80 hlineto
          -1019 vmoveto
          80 392 -80 hlineto
          endchar
        </CharString>
        <CharString name="bullet">
          -194 205 220 hstem
          90 213 vstem
          90 315 rmoveto
          -63 37 -47 70 69 37 47 63 64 -37 46 -69 -70 -37 -46 -64 vhcurveto
          endchar
        </CharString>
        <CharString name="c">
          -103 -11 95 391 105 hstem
          45 92 vstem
          452 125 rmoveto
          -24 -37 -46 -17 -57 hhcurveto
          -59 -46 19 40 -29 hvcurveto
          -30 41 -11 58 57 vvcurveto
          58 11 46 26 30 vhcurveto
          30 26 43 12 54 hhcurveto
          48 54 -10 -17 42 hvcurveto
          8 82 rlineto
          29 -34 -55 21 -63 hhcurveto
          -83 -62 -36 -50 -42 hvcurveto
          -45 -55 -20 -73 -85 vvcurveto
          -83 19 -69 39 -52 vhcurveto
          -52 39 61 -36 83 hhcurveto
          74 53 28 33 39 hvcurveto
          endchar
        </CharString>
        <CharString name="cacute">
          -103 -11 95 391 105 59 144 hstem
          45 92 vstem
          452 125 rmoveto
          -24 -37 -46 -17 -57 hhcurveto
          -59 -46 19 40 -29 hvcurveto
          -30 41 -11 58 57 vvcurveto
          58 11 46 26 30 vhcurveto
          30 26 43 12 54 hhcurveto
          48 54 -10 -17 42 hvcurveto
          8 82 rlineto
          29 -34 -55 21 -63 hhcurveto
          -83 -62 -36 -50 -42 hvcurveto
          -45 -55 -20 -73 -85 vvcurveto
          -83 19 -69 39 -52 vhcurveto
          -52 39 61 -36 83 hhcurveto
          74 53 28 33 39 hvcurveto
          -152 589 rmoveto
          41 44 40 48 41 52 rrcurveto
          -103 hlineto
          -33 -47 -32 -48 -31 -49 rrcurveto
          endchar
        </CharString>
        <CharString name="caron">
          -24 639 144 hstem
          132 299 vstem
          431 783 rmoveto
          -82 hlineto
          -23 -28 -22 -28 -21 -30 -21 30 -22 28 -23 28 rrcurveto
          -85 hlineto
          34 -47 36 -48 40 -49 rrcurveto
          79 hlineto
          40 49 36 48 34 47 rrcurveto
          endchar
        </CharString>
        <CharString name="caron.cap">
          -24 797 144 hstem
          132 299 vstem
          431 941 rmoveto
          -82 hlineto
          -23 -28 -22 -28 -21 -30 -21 30 -22 28 -23 28 rrcurveto
          -85 hlineto
          34 -47 36 -48 40 -49 rrcurveto
          79 hlineto
          40 49 36 48 34 47 rrcurveto
          endchar
        </CharString>
        <CharString name="ccaron">
          -103 -11 95 391 105 59 144 hstem
          45 92 vstem
          452 125 rmoveto
          -24 -37 -46 -17 -57 hhcurveto
          -59 -46 19 40 -29 hvcurveto
          -30 41 -11 58 57 vvcurveto
          58 11 46 26 30 vhcurveto
          30 26 43 12 54 hhcurveto
          48 54 -10 -17 42 hvcurveto
          8 82 rlineto
          29 -34 -55 21 -63 hhcurveto
          -83 -62 -36 -50 -42 hvcurveto
          -45 -55 -20 -73 -85 vvcurveto
          -83 19 -69 39 -52 vhcurveto
          -52 39 61 -36 83 hhcurveto
          74 53 28 33 39 hvcurveto
          -31 733 rmoveto
          -82 hlineto
          -23 -28 -22 -28 -21 -30 -21 30 -22 28 -23 28 rrcurveto
          -85 hlineto
          34 -47 36 -48 40 -49 rrcurveto
          79 hlineto
          40 49 36 48 34 47 rrcurveto
          endchar
        </CharString>
        <CharString name="ccedilla">
          -103 -190 63 43 47 26 95 -68 -21 480 105 hstemhm
          45 92 89 61.5 22.5 63 hintmask 10101101
          452 125 rmoveto
          -24 -37 -46 -17 -57 hhcurveto
          -59 -46 19 40 -29 hvcurveto
          -30 41 -11 58 57 vvcurveto
          58 11 46 26 30 vhcurveto
          30 26 43 12 54 hhcurveto
          48 54 -10 -17 42 hvcurveto
          8 82 rlineto
          29 -34 -55 21 -63 hhcurveto
          -83 -62 -36 -50 -42 hvcurveto
          -45 -55 -20 -73 -85 vvcurveto
          hintmask 11011111
          -83 19 -69 39 -52 vhcurveto
          30 -40 42 -30 56 -12 -10 -81 rcurveline
          hintmask 11101101
          1 9 17 1 12 hhcurveto
          28 23 -5 -17 -15 -19 -6 -32 -23 -32 3 5 -19 hvcurveto
          -10 -57 rlineto
          -7 18 28 -7 32 hhcurveto
          72 48 33 54 38 -25 27 -62 1 hvcurveto
          hintmask 10101111
          3 26 72 1 53 27 38 33 rlinecurve
          endchar
        </CharString>
        <CharString name="ccircumflex">
          -103 -11 95 391 105 59 144 hstem
          45 92 vstem
          452 125 rmoveto
          -24 -37 -46 -17 -57 hhcurveto
          -59 -46 19 40 -29 hvcurveto
          -30 41 -11 58 57 vvcurveto
          58 11 46 26 30 vhcurveto
          30 26 43 12 54 hhcurveto
          48 54 -10 -17 42 hvcurveto
          8 82 rlineto
          29 -34 -55 21 -63 hhcurveto
          -83 -62 -36 -50 -42 hvcurveto
          -45 -55 -20 -73 -85 vvcurveto
          -83 19 -69 39 -52 vhcurveto
          -52 39 61 -36 83 hhcurveto
          74 53 28 33 39 hvcurveto
          -248 589 rmoveto
          23 28 22 28 21 30 21 -30 22 -28 23 -28 rrcurveto
          85 hlineto
          -34 47 -36 48 -40 49 rrcurveto
          -79 hlineto
          -40 -49 -36 -48 -34 -47 rrcurveto
          endchar
        </CharString>
        <CharString name="cdotaccent">
          -103 -11 95 391 105 83 96 hstem
          45 92 85 99 vstem
          452 125 rmoveto
          -24 -37 -46 -17 -57 hhcurveto
          -59 -46 19 40 -29 hvcurveto
          -30 41 -11 58 57 vvcurveto
          58 11 46 26 30 vhcurveto
          30 26 43 12 54 hhcurveto
          48 54 -10 -17 42 hvcurveto
          8 82 rlineto
          29 -34 -55 21 -63 hhcurveto
          -83 -62 -36 -50 -42 hvcurveto
          -45 -55 -20 -73 -85 vvcurveto
          -83 19 -69 39 -52 vhcurveto
          -52 39 61 -36 83 hhcurveto
          74 53 28 33 39 hvcurveto
          -134 613 rmoveto
          3 30 0 37 29 vvcurveto
          -99 hlineto
          -29 0 -37 3 -30 vhcurveto
          endchar
        </CharString>
        <CharString name="cedilla">
          -24 -190 63 43 47 hstem
          325 63 vstem
          310 39 rmoveto
          -59 hlineto
          -15 -125 rlineto
          1 9 17 1 12 hhcurveto
          28 23 -5 -17 -15 -19 -6 -32 -23 -32 3 5 -19 hvcurveto
          -10 -57 rlineto
          -7 18 28 -7 32 hhcurveto
          72 48 33 54 38 -25 27 -62 1 hvcurveto
          endchar
        </CharString>
        <CharString name="cent">
          -99 56 94 391 105 -105 215 0 -20 hstemhm
          40 92 93 82.5 hintmask 11011100
          447 191 rmoveto
          -24 -37 -46 -17 -57 hhcurveto
          -59 -46 19 40 -29 hvcurveto
          -30 41 -11 58 57 vvcurveto
          hintmask 10101100
          58 11 46 26 30 vhcurveto
          30 26 43 12 54 hhcurveto
          48 54 -10 -17 42 hvcurveto
          hintmask 11011100
          8 82 -31 27 -49 20 -57 3 rlinecurve
          1 110 rlineto
          -84 hlineto
          2 -118 -51 -14 -40 -27 -30 -37 rlinecurve
          -45 -55 -20 -73 -85 vvcurveto
          -83 19 -69 39 -52 vhcurveto
          30 -40 42 -30 56 -12 -2 -119 rcurveline
          84 hlineto
          -1 114 61 6 45 25 34 29 rlinecurve
          endchar
        </CharString>
        <CharString name="cent.denominator">
          -265 -35 136 211 142 hstem
          32 72 38.5 63 vstem
          288 122 rmoveto
          -12 -21 -28 -9 -33 hhcurveto
          -35 -25 10 22 -18 hvcurveto
          -18 22 -6 32 31 vvcurveto
          32 6 24 15 16 vhcurveto
          15 14 24 7 33 hhcurveto
          28 32 -5 -9 25 hvcurveto
          6 62 -18 14 -29 12 -35 2 rlinecurve
          1 66 rlineto
          -64 hlineto
          1 -74 -28 -9 -22 -16 -17 -19 rlinecurve
          -29 -32 -15 -45 -53 vvcurveto
          -46 11 -41 24 -32 vhcurveto
          18 -24 26 -17 32 -9 -1 -72 rcurveline
          64 hlineto
          -1 68 36 4 27 14 20 17 rlinecurve
          endchar
        </CharString>
        <CharString name="cent.inferior">
          -265 -167 136 211 142 hstem
          32 72 38.5 63 vstem
          288 -10 rmoveto
          -12 -21 -28 -9 -33 hhcurveto
          -35 -25 10 22 -18 hvcurveto
          -18 22 -6 32 31 vvcurveto
          32 6 24 15 16 vhcurveto
          15 14 24 7 33 hhcurveto
          28 32 -5 -9 25 hvcurveto
          6 62 -18 14 -29 12 -35 2 rlinecurve
          1 66 rlineto
          -64 hlineto
          1 -74 -28 -9 -22 -16 -17 -19 rlinecurve
          -29 -32 -15 -45 -53 vvcurveto
          -46 11 -41 24 -32 vhcurveto
          18 -24 26 -17 32 -9 -1 -72 rcurveline
          64 hlineto
          -1 68 36 4 27 14 20 17 rlinecurve
          endchar
        </CharString>
        <CharString name="cent.numerator">
          -265 245 136 211 76 -76 142 -74 74 hstemhm
          32 72 38.5 63 hintmask 10101100
          288 402 rmoveto
          -12 -21 -28 -9 -33 hhcurveto
          -35 -25 10 22 -18 hvcurveto
          -18 22 -6 32 31 vvcurveto
          32 6 24 15 16 vhcurveto
          15 14 24 7 33 hhcurveto
          28 32 -5 -9 25 hvcurveto
          hintmask 11001100
          6 62 -18 14 -29 12 -35 2 rlinecurve
          hintmask 10101100
          1 66 rlineto
          -64 hlineto
          hintmask 10011100
          1 -74 -28 -9 -22 -16 -17 -19 rlinecurve
          -29 -32 -15 -45 -53 vvcurveto
          -46 11 -41 24 -32 vhcurveto
          18 -24 26 -17 32 -9 -1 -72 rcurveline
          64 hlineto
          -1 68 36 4 27 14 20 17 rlinecurve
          endchar
        </CharString>
        <CharString name="cent.superior">
          -265 387 136 211 142 hstem
          32 72 38.5 63 vstem
          288 544 rmoveto
          -12 -21 -28 -9 -33 hhcurveto
          -35 -25 10 22 -18 hvcurveto
          -18 22 -6 32 31 vvcurveto
          32 6 24 15 16 vhcurveto
          15 14 24 7 33 hhcurveto
          28 32 -5 -9 25 hvcurveto
          6 62 -18 14 -29 12 -35 2 rlinecurve
          1 66 rlineto
          -64 hlineto
          1 -74 -28 -9 -22 -16 -17 -19 rlinecurve
          -29 -32 -15 -45 -53 vvcurveto
          -46 11 -41 24 -32 vhcurveto
          18 -24 26 -17 32 -9 -1 -72 rcurveline
          64 hlineto
          -1 68 36 4 27 14 20 17 rlinecurve
          endchar
        </CharString>
        <CharString name="circumflex">
          -24 639 144 hstem
          132 299 vstem
          214 639 rmoveto
          23 28 22 28 21 30 21 -30 22 -28 23 -28 rrcurveto
          85 hlineto
          -34 47 -36 48 -40 49 rrcurveto
          -79 hlineto
          -40 -49 -36 -48 -34 -47 rrcurveto
          endchar
        </CharString>
        <CharString name="circumflex.cap">
          -24 797 144 hstem
          132 299 vstem
          214 797 rmoveto
          23 28 22 28 21 30 21 -30 22 -28 23 -28 rrcurveto
          85 hlineto
          -34 47 -36 48 -40 49 rrcurveto
          -79 hlineto
          -40 -49 -36 -48 -34 -47 rrcurveto
          endchar
        </CharString>
        <CharString name="colon">
          -303 0 115 299 115 hstem
          85 114 vstem
          85 hmoveto
          114 hlineto
          2 18 0 21 0 18 0 19 0 21 -2 18 50 flex
          -114 hlineto
          -2 -18 0 -21 0 -19 0 -18 0 -21 2 -18 50 flex
          414 vmoveto
          114 hlineto
          2 18 0 21 0 18 0 19 0 21 -2 18 50 flex
          -114 hlineto
          -2 -18 0 -21 0 -19 0 -18 0 -21 2 -18 50 flex
          endchar
        </CharString>
        <CharString name="comma">
          -303 -147 283 hstem
          95 104 vstem
          121 -147 rmoveto
          42 102 29 101 7 80 rrcurveto
          -104 hlineto
          -9 -91 -14 -98 -17 -94 rrcurveto
          endchar
        </CharString>
        <CharString name="comma.denominator">
          -389 -88 175 hstem
          66 76 vstem
          93 -88 rmoveto
          26 63 18 62 5 50 rrcurveto
          -76 hlineto
          -6 -57 -8 -61 -10 -57 rrcurveto
          endchar
        </CharString>
        <CharString name="comma.inferior">
          -389 -220 175 hstem
          66 76 vstem
          93 -220 rmoveto
          26 63 18 62 5 50 rrcurveto
          -76 hlineto
          -6 -57 -8 -61 -10 -57 rrcurveto
          endchar
        </CharString>
        <CharString name="comma.numerator">
          -389 192 175 hstem
          66 76 vstem
          93 192 rmoveto
          26 63 18 62 5 50 rrcurveto
          -76 hlineto
          -6 -57 -8 -61 -10 -57 rrcurveto
          endchar
        </CharString>
        <CharString name="comma.superior">
          -389 334 175 hstem
          66 76 vstem
          93 334 rmoveto
          26 63 18 62 5 50 rrcurveto
          -76 hlineto
          -6 -57 -8 -61 -10 -57 rrcurveto
          endchar
        </CharString>
        <CharString name="commaaccent">
          -24 -258 204 hstem
          194 142 vstem
          247 -54 rmoveto
          -16 -68 -18 -70 -19 -66 rrcurveto
          67 hlineto
          29 62 29 75 17 67 rrcurveto
          endchar
        </CharString>
        <CharString name="commaaccent.alt">
          -24 626 204 hstem
          227 142 vstem
          227 626 rmoveto
          89 hlineto
          16 68 18 70 19 66 rrcurveto
          -67 hlineto
          -29 -62 -29 -75 -17 -67 rrcurveto
          endchar
        </CharString>
        <CharString name="copyright">
          169 -11 57 92 65 313 72 92 57 hstem
          37 55 104 65 403 55 vstem
          380 46 rmoveto
          -89 -69 30 52 -49 hvcurveto
          -54 58 -27 83 98 vvcurveto
          89 23 75 45 55 vhcurveto
          58 47 72 36 97 hhcurveto
          90 70 -30 -54 49 hvcurveto
          53 -59 26 -83 -95 vvcurveto
          -85 -21 -71 -40 -54 vhcurveto
          -66 -49 -76 -37 -98 hhcurveto
          -4 -57 rmoveto
          115 88 48 73 58 hvcurveto
          53 67 29 90 99 vvcurveto
          108 -35 95 -62 67 vhcurveto
          63 -58 -80 38 -104 hhcurveto
          -120 -92 -51 -80 -58 hvcurveto
          -48 -66 -25 -85 -93 vvcurveto
          -106 33 -97 63 -68 vhcurveto
          -60 55 80 -42 108 hhcurveto
          127 243 rmoveto
          -14 -25 -34 -15 -45 hhcurveto
          -46 -36 17 30 -23 hvcurveto
          -25 33 -8 47 45 vvcurveto
          51 10 35 19 22 vhcurveto
          23 20 33 10 44 hhcurveto
          40 39 -9 -13 33 hvcurveto
          6 56 rlineto
          22 -27 -43 16 -49 hhcurveto
          -63 -46 -24 -40 -32 hvcurveto
          -30 -37 -19 -54 -69 vvcurveto
          -68 18 -55 27 -36 vhcurveto
          -39 29 46 -28 65 hhcurveto
          57 40 21 23 30 hvcurveto
          endchar
        </CharString>
        <CharString name="currency">
          -24 150 71 284 71 hstem
          85 66 261 66 vstem
          186 258 rmoveto
          -26 28 -9 41 42 vvcurveto
          44 10 31 19 23 vhcurveto
          25 21 32 13 45 hhcurveto
          45 32 -13 -24 22 hvcurveto
          26 -28 9 -41 -42 vvcurveto
          -44 -10 -31 -19 -23 vhcurveto
          -25 -21 -32 -13 -45 hhcurveto
          -45 -32 13 24 -22 hvcurveto
          344 306 rmoveto
          -55 54 -72 -77 rlineto
          23 -32 -41 12 -46 hhcurveto
          -54 -39 -17 -21 -29 hvcurveto
          -74 80 -55 -54 82 -80 rlineto
          -19 -34 -11 -42 -51 vvcurveto
          -45 8 -40 19 -33 vhcurveto
          -79 -77 55 -54 72 77 rlineto
          -23 32 41 -12 46 hhcurveto
          54 39 17 21 29 hvcurveto
          74 -80 55 54 -82 80 rlineto
          19 34 11 42 51 vvcurveto
          45 -8 40 -19 33 vhcurveto
          endchar
        </CharString>
        <CharString name="d">
          3 -11 97 -65 -21 474 106 175 -20 hstemhm
          49 92 275 95 hintmask 10111100
          416 256 rmoveto
          -27 1 -54 1 -51 vhcurveto
          -23 -35 -46 -15 -49 hhcurveto
          -56 -34 20 33 -22 hvcurveto
          -27 40 -8 57 53 vvcurveto
          57 9 49 22 32 vhcurveto
          35 24 40 12 54 hhcurveto
          47 41 -9 -13 38 hvcurveto
          -1 299 rmoveto
          1 -90 0 -74 -41 vvcurveto
          18 -34 -44 16 -50 hhcurveto
          -74 -64 -35 -61 -44 hvcurveto
          -39 -54 -18 -68 -87 vvcurveto
          -75 14 -69 35 -54 vhcurveto
          -50 32 52 -38 75 hhcurveto
          67 37 30 56 57 hvcurveto
          2 hlineto
          hintmask 01111100
          1 -29 2 -27 2 -19 rrcurveto
          84 hlineto
          1 65 1 143 51 vvcurveto
          239 vlineto
          76 0 85 2 96 vhcurveto
          endchar
        </CharString>
        <CharString name="dagger">
          1 -157 -21 618 85 228 -20 hstem
          250.5 86 vstem
          249 -178 rmoveto
          89 hlineto
          -3 620 191 -4 rlineto
          89 vlineto
          -191 -4 3 230 rlineto
          -89 hlineto
          3 -230 -190 4 rlineto
          -89 vlineto
          190 4 rlineto
          endchar
        </CharString>
        <CharString name="daggerdbl">
          1 -157 -21 228 85 305 85 228 -20 hstem
          252 84 vstem
          249 -178 rmoveto
          89 hlineto
          -3 230 191 -4 rlineto
          89 vlineto
          -190 -4 rlineto
          1 51 1 51 0 52 0 51 -1 53 -1 51 50 flex
          190 -4 rlineto
          89 vlineto
          -191 -4 3 230 rlineto
          -89 hlineto
          3 -230 -190 4 rlineto
          -89 vlineto
          190 4 rlineto
          -1 -51 -1 -53 0 -51 0 -52 1 -51 1 -51 50 flex
          -190 4 rlineto
          -89 vlineto
          190 4 rlineto
          endchar
        </CharString>
        <CharString name="dcaron">
          108 -11 97 -65 -21 474 106 -31 204 0 -20 22 -20 hstemhm
          49 92 275 95 hintmask 10100111
          416 256 rmoveto
          -27 1 -54 1 -51 vhcurveto
          -23 -35 -46 -15 -49 hhcurveto
          -56 -34 20 33 -22 hvcurveto
          -27 40 -8 57 53 vvcurveto
          57 9 49 22 32 vhcurveto
          35 24 40 12 54 hhcurveto
          47 41 -9 -13 38 hvcurveto
          -1 299 rmoveto
          1 -90 0 -74 -41 vvcurveto
          18 -34 -44 16 -50 hhcurveto
          -74 -64 -35 -61 -44 hvcurveto
          -39 -54 -18 -68 -87 vvcurveto
          -75 14 -69 35 -54 vhcurveto
          -50 32 52 -38 75 hhcurveto
          67 37 30 56 57 hvcurveto
          2 hlineto
          hintmask 01100111
          1 -29 2 -27 2 -19 rrcurveto
          84 hlineto
          1 65 1 143 51 vvcurveto
          239 vlineto
          76 0 85 2 96 vhcurveto
          hintmask 10101011
          105 -2 rmoveto
          hintmask 10010011
          -16 -68 -18 -70 -19 -66 rrcurveto
          67 hlineto
          29 62 29 75 17 67 rrcurveto
          endchar
        </CharString>
        <CharString name="dcroat">
          3 -11 97 -65 -21 474 106 31 82 -82 144 hstemhm
          49 92 275 95 hintmask 10101110
          416 256 rmoveto
          -27 1 -58 1 -47 vhcurveto
          -23 -35 -46 -15 -49 hhcurveto
          -56 -34 20 33 -22 hvcurveto
          -27 40 -8 57 53 vvcurveto
          57 9 49 22 32 vhcurveto
          35 24 40 12 54 hhcurveto
          47 41 -9 -13 38 hvcurveto
          4 -377 rmoveto
          hintmask 01101110
          1 -29 2 -27 2 -19 rrcurveto
          84 hlineto
          1 65 1 143 51 vvcurveto
          352 68 vlineto
          hintmask 10110110
          82 -67 vlineto
          hintmask 10101110
          1 62 -98 -4 rlineto
          hintmask 10110110
          1 -58 rlineto
          -139 hlineto
          hintmask 10101110
          -82 139 -65 vlineto
          18 -34 -44 16 -50 hhcurveto
          -74 -64 -35 -61 -44 hvcurveto
          -39 -54 -18 -68 -87 vvcurveto
          -75 14 -69 35 -54 vhcurveto
          -50 32 52 -38 75 hhcurveto
          67 37 30 56 57 hvcurveto
          endchar
        </CharString>
        <CharString name="degree">
          -211 443 51 192 51 hstem
          43 51 188 51 vstem
          188 494 rmoveto
          -55 -39 41 55 55 38 41 56 55 39 -41 -55 -55 -38 -41 -56 hvcurveto
          -51 vmoveto
          84 61 63 84 84 -60 63 -85 -84 -61 -63 -84 -84 60 -63 85 hvcurveto
          endchar
        </CharString>
        <CharString name="dieresis">
          -24 663 96 hstem
          135 98 97 98 vstem
          230 663 rmoveto
          3 30 0 37 29 vvcurveto
          -98 hlineto
          -29 0 -37 2 -30 vhcurveto
          288 hmoveto
          3 30 0 37 29 vvcurveto
          -98 hlineto
          -29 0 -37 3 -30 vhcurveto
          endchar
        </CharString>
        <CharString name="dieresis.cap">
          -24 821 96 hstem
          135 98 97 98 vstem
          230 821 rmoveto
          3 30 0 37 29 vvcurveto
          -98 hlineto
          -29 0 -37 2 -30 vhcurveto
          288 hmoveto
          3 30 0 37 29 vvcurveto
          -98 hlineto
          -29 0 -37 3 -30 vhcurveto
          endchar
        </CharString>
        <CharString name="divide">
          -3 99 90 135 76 135 90 hstem
          246 92 vstem
          55 324 rmoveto
          474 76 -474 hlineto
          191 135 rmoveto
          92 hlineto
          1 12 1 16 0 17 0 17 -1 17 -1 11 50 flex
          -92 hlineto
          -1 -11 -1 -17 0 -17 0 -17 1 -16 1 -12 50 flex
          -436 vmoveto
          92 hlineto
          1 12 1 16 0 17 0 17 -1 17 -1 11 50 flex
          -92 hlineto
          -1 -11 -1 -17 0 -17 0 -17 1 -16 1 -12 50 flex
          endchar
        </CharString>
        <CharString name="dollar">
          -46 16 97 465 207 hstem
          56 97 80 80 79 98 vstem
          314 -87 rmoveto
          -1 110 37 8 34 14 32 25 rlinecurve
          46 36 28 55 69 vvcurveto
          113 -74 23 -116 27 vhcurveto
          -100 24 -47 10 66 vvcurveto
          29 9 22 24 15 vhcurveto
          13 21 33 6 45 hhcurveto
          61 62 -11 -14 50 hvcurveto
          7 85 -35 23 -58 18 -59 5 rlinecurve
          1 101 rlineto
          -82 hlineto
          2 -104 -47 -9 -39 -19 -30 -28 rlinecurve
          -40 -37 -22 -52 -62 vvcurveto
          -117 78 -26 103 -24 vhcurveto
          102 -23 53 -10 -70 vvcurveto
          -31 -11 -21 -20 -15 vhcurveto
          -17 -23 -38 -7 -48 hhcurveto
          -62 -64 12 21 -58 hvcurveto
          -8 -85 42 -24 59 -20 73 -1 rlinecurve
          -2 -103 rlineto
          endchar
        </CharString>
        <CharString name="dollar.denominator">
          -233 -52 131 255 137 hstem
          39 75 35.5 61 33.5 75 vstem
          298 381 rmoveto
          -21 12 -31 12 -36 4 1 62 rcurveline
          -62 hlineto
          1 -64 -29 -6 -24 -13 -18 -16 rlinecurve
          -23 -22 -17 -32 -41 vvcurveto
          -70 51 -14 66 -14 vhcurveto
          59 -12 29 -7 -34 vvcurveto
          -14 -5 -13 -13 -8 vhcurveto
          -9 -13 -21 -3 -24 hhcurveto
          -40 -42 8 11 -35 hvcurveto
          -6 -62 27 -14 35 -12 43 -1 rlinecurve
          -1 -61 rlineto
          62 hlineto
          -1 67 25 6 21 10 15 12 rlinecurve
          28 22 20 34 44 vvcurveto
          69 -50 12 -72 15 vhcurveto
          -57 12 -26 6 34 vvcurveto
          13 4 12 14 8 vhcurveto
          7 12 19 3 22 hhcurveto
          37 38 -8 -8 33 hvcurveto
          endchar
        </CharString>
        <CharString name="dollar.inferior">
          -233 -184 131 -70 70 255 137 hstemhm
          39 75 35.5 61 33.5 75 hintmask 10111100
          298 249 rmoveto
          -21 12 -31 12 -36 4 1 62 rcurveline
          -62 hlineto
          1 -64 -29 -6 -24 -13 -18 -16 rlinecurve
          -23 -22 -17 -32 -41 vvcurveto
          -70 51 -14 66 -14 vhcurveto
          59 -12 29 -7 -34 vvcurveto
          -14 -5 -13 -13 -8 vhcurveto
          -9 -13 -21 -3 -24 hhcurveto
          -40 -42 8 11 -35 hvcurveto
          hintmask 01111100
          -6 -62 27 -14 35 -12 43 -1 rlinecurve
          hintmask 10111100
          -1 -61 rlineto
          62 hlineto
          -1 67 25 6 21 10 15 12 rlinecurve
          28 22 20 34 44 vvcurveto
          69 -50 12 -72 15 vhcurveto
          -57 12 -26 6 34 vvcurveto
          13 4 12 14 8 vhcurveto
          7 12 19 3 22 hhcurveto
          37 38 -8 -8 33 hvcurveto
          endchar
        </CharString>
        <CharString name="dollar.numerator">
          -233 228 131 255 137 hstem
          39 75 35.5 61 33.5 75 vstem
          298 661 rmoveto
          -21 12 -31 12 -36 4 1 62 rcurveline
          -62 hlineto
          1 -64 -29 -6 -24 -13 -18 -16 rlinecurve
          -23 -22 -17 -32 -41 vvcurveto
          -70 51 -14 66 -14 vhcurveto
          59 -12 29 -7 -34 vvcurveto
          -14 -5 -13 -13 -8 vhcurveto
          -9 -13 -21 -3 -24 hhcurveto
          -40 -42 8 11 -35 hvcurveto
          -6 -62 27 -14 35 -12 43 -1 rlinecurve
          -1 -61 rlineto
          62 hlineto
          -1 67 25 6 21 10 15 12 rlinecurve
          28 22 20 34 44 vvcurveto
          69 -50 12 -72 15 vhcurveto
          -57 12 -26 6 34 vvcurveto
          13 4 12 14 8 vhcurveto
          7 12 19 3 22 hhcurveto
          37 38 -8 -8 33 hvcurveto
          endchar
        </CharString>
        <CharString name="dollar.superior">
          -233 370 131 255 137 hstem
          39 75 35.5 61 33.5 75 vstem
          298 803 rmoveto
          -21 12 -31 12 -36 4 1 62 rcurveline
          -62 hlineto
          1 -64 -29 -6 -24 -13 -18 -16 rlinecurve
          -23 -22 -17 -32 -41 vvcurveto
          -70 51 -14 66 -14 vhcurveto
          59 -12 29 -7 -34 vvcurveto
          -14 -5 -13 -13 -8 vhcurveto
          -9 -13 -21 -3 -24 hhcurveto
          -40 -42 8 11 -35 hvcurveto
          -6 -62 27 -14 35 -12 43 -1 rlinecurve
          -1 -61 rlineto
          62 hlineto
          -1 67 25 6 21 10 15 12 rlinecurve
          28 22 20 34 44 vvcurveto
          69 -50 12 -72 15 vhcurveto
          -57 12 -26 6 34 vvcurveto
          13 4 12 14 8 vhcurveto
          7 12 19 3 22 hhcurveto
          37 38 -8 -8 33 hvcurveto
          endchar
        </CharString>
        <CharString name="dotaccent">
          -24 663 96 hstem
          232 99 vstem
          328 663 rmoveto
          3 30 0 37 29 vvcurveto
          -99 hlineto
          -29 0 -37 3 -30 vhcurveto
          endchar
        </CharString>
        <CharString name="dotaccent.cap">
          -24 821 96 hstem
          232 99 vstem
          328 821 rmoveto
          3 30 0 37 29 vvcurveto
          -99 hlineto
          -29 0 -37 3 -30 vhcurveto
          endchar
        </CharString>
        <CharString name="dotlessi">
          -334 21 -21 569 -20 hstem
          79 95 vstem
          174 hmoveto
          569 -95 -569 vlineto
          endchar
        </CharString>
        <CharString name="dotlessj">
          -331 -168 -21 758 -20 hstem
          82 95 vstem
          177 -3 rmoveto
          572 -95 -577 vlineto
          -63 -20 -23 -78 -18 vhcurveto
          19 -77 rlineto
          114 15 60 36 135 vvcurveto
          endchar
        </CharString>
        <CharString name="e">
          -30 -11 95 156 86 153 101 hstem
          46 91 283 87 vstem
          489 128 rmoveto
          -28 -49 -51 -16 -57 hhcurveto
          -59 -55 17 42 -35 hvcurveto
          -24 29 -12 39 -6 34 rrcurveto
          -3 65 74 -2 67 hhcurveto
          49 58 1 1 46 hvcurveto
          4 25 3 32 32 vvcurveto
          63 -12 58 -30 44 vhcurveto
          53 -36 -59 31 -81 hhcurveto
          -97 -57 -44 -48 -34 hvcurveto
          -38 -54 -17 -72 -78 vvcurveto
          -73 15 -73 45 -57 vhcurveto
          -54 42 67 -38 93 hhcurveto
          88 56 34 30 37 hvcurveto
          -352 268 rmoveto
          2 44 8 37 18 28 rrcurveto
          33 21 33 16 56 hhcurveto
          62 35 -20 -30 20 hvcurveto
          20 -30 7 -39 1 -35 rrcurveto
          1 -24 -25 0 -24 hhcurveto
          -68 -67 -2 -3 -75 hvcurveto
          endchar
        </CharString>
        <CharString name="eacute">
          -30 -11 95 156 86 153 101 59 144 hstem
          46 91 283 87 vstem
          489 128 rmoveto
          -28 -49 -51 -16 -57 hhcurveto
          -59 -55 17 42 -35 hvcurveto
          -24 29 -12 39 -6 34 rrcurveto
          -3 65 74 -2 67 hhcurveto
          49 58 1 1 46 hvcurveto
          4 25 3 32 32 vvcurveto
          63 -12 58 -30 44 vhcurveto
          53 -36 -59 31 -81 hhcurveto
          -97 -57 -44 -48 -34 hvcurveto
          -38 -54 -17 -72 -78 vvcurveto
          -73 15 -73 45 -57 vhcurveto
          -54 42 67 -38 93 hhcurveto
          88 56 34 30 37 hvcurveto
          -352 268 rmoveto
          2 44 8 37 18 28 rrcurveto
          33 21 33 16 56 hhcurveto
          62 35 -20 -30 20 hvcurveto
          20 -30 7 -39 1 -35 rrcurveto
          1 -24 -25 0 -24 hhcurveto
          -68 -67 -2 -3 -75 hvcurveto
          153 318 rmoveto
          41 44 40 48 41 52 rrcurveto
          -103 hlineto
          -33 -47 -32 -48 -31 -49 rrcurveto
          endchar
        </CharString>
        <CharString name="ebreve">
          -30 -11 95 156 86 153 101 55 58 hstemhm
          46 91 4 58 163 56 2 87 hintmask 11110110
          489 128 rmoveto
          -28 -49 -51 -16 -57 hhcurveto
          hintmask 11111001
          -59 -55 17 42 -35 hvcurveto
          -24 29 -12 39 -6 34 rrcurveto
          -3 65 74 -2 67 hhcurveto
          49 58 1 1 46 hvcurveto
          4 25 3 32 32 vvcurveto
          63 -12 58 -30 44 vhcurveto
          53 -36 -59 31 -81 hhcurveto
          -97 -57 -44 -48 -34 hvcurveto
          -38 -54 -17 -72 -78 vvcurveto
          -73 15 -73 45 -57 vhcurveto
          -54 42 67 -38 93 hhcurveto
          88 56 34 30 37 hvcurveto
          -352 268 rmoveto
          2 44 8 37 18 28 rrcurveto
          33 21 33 16 56 hhcurveto
          62 35 -20 -30 20 hvcurveto
          20 -30 7 -39 1 -35 rrcurveto
          1 -24 -25 0 -24 hhcurveto
          -68 -67 -2 -3 -75 hvcurveto
          hintmask 11110110
          225 462 rmoveto
          -46 -5 -19 -44 -58 hhcurveto
          -56 -20 44 46 -5 hvcurveto
          -58 hlineto
          -84 3 44 -64 91 hhcurveto
          92 44 64 84 3 hvcurveto
          endchar
        </CharString>
        <CharString name="ecaron">
          -30 -11 95 156 86 153 101 59 144 hstem
          46 91 283 87 vstem
          489 128 rmoveto
          -28 -49 -51 -16 -57 hhcurveto
          -59 -55 17 42 -35 hvcurveto
          -24 29 -12 39 -6 34 rrcurveto
          -3 65 74 -2 67 hhcurveto
          49 58 1 1 46 hvcurveto
          4 25 3 32 32 vvcurveto
          63 -12 58 -30 44 vhcurveto
          53 -36 -59 31 -81 hhcurveto
          -97 -57 -44 -48 -34 hvcurveto
          -38 -54 -17 -72 -78 vvcurveto
          -73 15 -73 45 -57 vhcurveto
          -54 42 67 -38 93 hhcurveto
          88 56 34 30 37 hvcurveto
          -352 268 rmoveto
          2 44 8 37 18 28 rrcurveto
          33 21 33 16 56 hhcurveto
          62 35 -20 -30 20 hvcurveto
          20 -30 7 -39 1 -35 rrcurveto
          1 -24 -25 0 -24 hhcurveto
          -68 -67 -2 -3 -75 hvcurveto
          292 462 rmoveto
          -82 hlineto
          -23 -28 -22 -28 -21 -30 -21 30 -22 28 -23 28 rrcurveto
          -85 hlineto
          34 -47 36 -48 40 -49 rrcurveto
          79 hlineto
          40 49 36 48 34 47 rrcurveto
          endchar
        </CharString>
        <CharString name="ecircumflex">
          -30 -11 95 156 86 153 101 59 144 hstem
          46 91 283 87 vstem
          489 128 rmoveto
          -28 -49 -51 -16 -57 hhcurveto
          -59 -55 17 42 -35 hvcurveto
          -24 29 -12 39 -6 34 rrcurveto
          -3 65 74 -2 67 hhcurveto
          49 58 1 1 46 hvcurveto
          4 25 3 32 32 vvcurveto
          63 -12 58 -30 44 vhcurveto
          53 -36 -59 31 -81 hhcurveto
          -97 -57 -44 -48 -34 hvcurveto
          -38 -54 -17 -72 -78 vvcurveto
          -73 15 -73 45 -57 vhcurveto
          -54 42 67 -38 93 hhcurveto
          88 56 34 30 37 hvcurveto
          -352 268 rmoveto
          2 44 8 37 18 28 rrcurveto
          33 21 33 16 56 hhcurveto
          62 35 -20 -30 20 hvcurveto
          20 -30 7 -39 1 -35 rrcurveto
          1 -24 -25 0 -24 hhcurveto
          -68 -67 -2 -3 -75 hvcurveto
          75 318 rmoveto
          23 28 22 28 21 30 21 -30 22 -28 23 -28 rrcurveto
          85 hlineto
          -34 47 -36 48 -40 49 rrcurveto
          -79 hlineto
          -40 -49 -36 -48 -34 -47 rrcurveto
          endchar
        </CharString>
        <CharString name="edieresis">
          -30 -11 95 156 86 153 101 83 96 hstemhm
          46 91 -4 98 97 98 -6 87 hintmask 11110110
          489 128 rmoveto
          -28 -49 -51 -16 -57 hhcurveto
          hintmask 11111001
          -59 -55 17 42 -35 hvcurveto
          -24 29 -12 39 -6 34 rrcurveto
          -3 65 74 -2 67 hhcurveto
          49 58 1 1 46 hvcurveto
          4 25 3 32 32 vvcurveto
          63 -12 58 -30 44 vhcurveto
          53 -36 -59 31 -81 hhcurveto
          -97 -57 -44 -48 -34 hvcurveto
          -38 -54 -17 -72 -78 vvcurveto
          -73 15 -73 45 -57 vhcurveto
          -54 42 67 -38 93 hhcurveto
          88 56 34 30 37 hvcurveto
          -352 268 rmoveto
          2 44 8 37 18 28 rrcurveto
          33 21 33 16 56 hhcurveto
          62 35 -20 -30 20 hvcurveto
          20 -30 7 -39 1 -35 rrcurveto
          1 -24 -25 0 -24 hhcurveto
          -68 -67 -2 -3 -75 hvcurveto
          hintmask 11110110
          91 342 rmoveto
          3 30 0 37 29 vvcurveto
          -98 hlineto
          -29 0 -37 2 -30 vhcurveto
          288 hmoveto
          3 30 0 37 29 vvcurveto
          -98 hlineto
          -29 0 -37 3 -30 vhcurveto
          endchar
        </CharString>
        <CharString name="edotaccent">
          -30 -11 95 156 86 153 101 83 96 hstem
          46 91 93 99 91 87 vstem
          489 128 rmoveto
          -28 -49 -51 -16 -57 hhcurveto
          -59 -55 17 42 -35 hvcurveto
          -24 29 -12 39 -6 34 rrcurveto
          -3 65 74 -2 67 hhcurveto
          49 58 1 1 46 hvcurveto
          4 25 3 32 32 vvcurveto
          63 -12 58 -30 44 vhcurveto
          53 -36 -59 31 -81 hhcurveto
          -97 -57 -44 -48 -34 hvcurveto
          -38 -54 -17 -72 -78 vvcurveto
          -73 15 -73 45 -57 vhcurveto
          -54 42 67 -38 93 hhcurveto
          88 56 34 30 37 hvcurveto
          -352 268 rmoveto
          2 44 8 37 18 28 rrcurveto
          33 21 33 16 56 hhcurveto
          62 35 -20 -30 20 hvcurveto
          20 -30 7 -39 1 -35 rrcurveto
          1 -24 -25 0 -24 hhcurveto
          -68 -67 -2 -3 -75 hvcurveto
          189 342 rmoveto
          3 30 0 37 29 vvcurveto
          -99 hlineto
          -29 0 -37 3 -30 vhcurveto
          endchar
        </CharString>
        <CharString name="egrave">
          -30 -11 95 156 86 153 101 59 144 hstem
          46 91 283 87 vstem
          489 128 rmoveto
          -28 -49 -51 -16 -57 hhcurveto
          -59 -55 17 42 -35 hvcurveto
          -24 29 -12 39 -6 34 rrcurveto
          -3 65 74 -2 67 hhcurveto
          49 58 1 1 46 hvcurveto
          4 25 3 32 32 vvcurveto
          63 -12 58 -30 44 vhcurveto
          53 -36 -59 31 -81 hhcurveto
          -97 -57 -44 -48 -34 hvcurveto
          -38 -54 -17 -72 -78 vvcurveto
          -73 15 -73 45 -57 vhcurveto
          -54 42 67 -38 93 hhcurveto
          88 56 34 30 37 hvcurveto
          -352 268 rmoveto
          2 44 8 37 18 28 rrcurveto
          33 21 33 16 56 hhcurveto
          62 35 -20 -30 20 hvcurveto
          20 -30 7 -39 1 -35 rrcurveto
          1 -24 -25 0 -24 hhcurveto
          -68 -67 -2 -3 -75 hvcurveto
          208 318 rmoveto
          -31 49 -32 48 -33 47 rrcurveto
          -103 hlineto
          41 -52 40 -48 41 -44 rrcurveto
          endchar
        </CharString>
        <CharString name="eight">
          -9 -11 92 531 99 hstemhm
          46 93 -80 93 272 92 -78 94 hintmask 11010100
          404 109 rmoveto
          -20 -25 -38 -8 -46 hhcurveto
          hintmask 11100100
          -51 -34 10 18 -26 hvcurveto
          -31 22 -14 31 32 vvcurveto
          65 61 33 74 27 vhcurveto
          109 -41 55 -20 -73 vvcurveto
          hintmask 11010100
          -32 -11 -26 -23 -18 vhcurveto
          -252 413 rmoveto
          27 8 24 22 16 vhcurveto
          18 24 34 5 35 hhcurveto
          hintmask 11011000
          47 36 -9 -16 25 hvcurveto
          26 -17 15 -28 -32 vvcurveto
          -58 -51 -31 -69 -26 vhcurveto
          hintmask 11010100
          -86 29 -66 23 75 vvcurveto
          232 -155 rmoveto
          hintmask 11011000
          83 40 49 49 82 vvcurveto
          60 -27 42 -37 27 vhcurveto
          30 -41 -56 14 -60 hhcurveto
          -71 -58 -20 -37 -43 hvcurveto
          -42 -36 -22 -48 -57 vvcurveto
          -89 53 -40 79 -33 vhcurveto
          -2 vlineto
          hintmask 11100100
          -95 -38 -50 -59 -83 vvcurveto
          -52 20 -43 38 -31 vhcurveto
          -34 41 64 -20 71 hhcurveto
          77 59 23 30 39 hvcurveto
          46 35 31 53 70 vvcurveto
          hintmask 11010100
          89 -51 38 -97 38 vhcurveto
          endchar
        </CharString>
        <CharString name="eight.denominator">
          -216 -7 65 298 71 hstemhm
          30 73 -65 72 149 72 -64 73 hintmask 11100100
          191 58 rmoveto
          -58 -30 25 35 36 32 19 38 14 hvcurveto
          66 -24 28 -11 -38 vvcurveto
          -40 -30 -16 -46 vhcurveto
          hintmask 11011000
          -13 298 rmoveto
          40 41 -13 -40 -32 -27 -17 -35 -13 hvcurveto
          -51 16 -36 12 40 vvcurveto
          34 28 13 40 vhcurveto
          hintmask 11010100
          78 -134 rmoveto
          hintmask 11011000
          47 22 28 30 47 vvcurveto
          77 -73 29 -67 -82 -71 -43 -80 -52 30 -23 47 -20 vhcurveto
          -2 vlineto
          hintmask 11100100
          -56 -21 -29 -35 -48 vvcurveto
          -72 68 -38 79 87 76 45 83 vhcurveto
          hintmask 11010100
          52 -31 26 -53 21 vhcurveto
          endchar
        </CharString>
        <CharString name="eight.inferior">
          -216 -139 65 298 71 hstemhm
          30 73 -65 72 149 72 -64 73 hintmask 11100100
          191 -74 rmoveto
          -58 -30 25 35 36 32 19 38 14 hvcurveto
          66 -24 28 -11 -38 vvcurveto
          -40 -30 -16 -46 vhcurveto
          hintmask 11011000
          -13 298 rmoveto
          40 41 -13 -40 -32 -27 -17 -35 -13 hvcurveto
          -51 16 -36 12 40 vvcurveto
          34 28 13 40 vhcurveto
          hintmask 11010100
          78 -134 rmoveto
          hintmask 11011000
          47 22 28 30 47 vvcurveto
          77 -73 29 -67 -82 -71 -43 -80 -52 30 -23 47 -20 vhcurveto
          -2 vlineto
          hintmask 11100100
          -56 -21 -29 -35 -48 vvcurveto
          -72 68 -38 79 87 76 45 83 vhcurveto
          hintmask 11010100
          52 -31 26 -53 21 vhcurveto
          endchar
        </CharString>
        <CharString name="eight.numerator">
          -216 273 65 298 71 hstemhm
          30 73 -65 72 149 72 -64 73 hintmask 11100100
          191 338 rmoveto
          -58 -30 25 35 36 32 19 38 14 hvcurveto
          66 -24 28 -11 -38 vvcurveto
          -40 -30 -16 -46 vhcurveto
          hintmask 11011000
          -13 298 rmoveto
          40 41 -13 -40 -32 -27 -17 -35 -13 hvcurveto
          -51 16 -36 12 40 vvcurveto
          34 28 13 40 vhcurveto
          hintmask 11010100
          78 -134 rmoveto
          hintmask 11011000
          47 22 28 30 47 vvcurveto
          77 -73 29 -67 -82 -71 -43 -80 -52 30 -23 47 -20 vhcurveto
          -2 vlineto
          hintmask 11100100
          -56 -21 -29 -35 -48 vvcurveto
          -72 68 -38 79 87 76 45 83 vhcurveto
          hintmask 11010100
          52 -31 26 -53 21 vhcurveto
          endchar
        </CharString>
        <CharString name="eight.superior">
          -216 415 65 298 71 hstemhm
          30 73 -65 72 149 72 -64 73 hintmask 11100100
          191 480 rmoveto
          -58 -30 25 35 36 32 19 38 14 hvcurveto
          66 -24 28 -11 -38 vvcurveto
          -40 -30 -16 -46 vhcurveto
          hintmask 11011000
          -13 298 rmoveto
          40 41 -13 -40 -32 -27 -17 -35 -13 hvcurveto
          -51 16 -36 12 40 vvcurveto
          34 28 13 40 vhcurveto
          hintmask 11010100
          78 -134 rmoveto
          hintmask 11011000
          47 22 28 30 47 vvcurveto
          77 -73 29 -67 -82 -71 -43 -80 -52 30 -23 47 -20 vhcurveto
          -2 vlineto
          hintmask 11100100
          -56 -21 -29 -35 -48 vvcurveto
          -72 68 -38 79 87 76 45 83 vhcurveto
          hintmask 11010100
          52 -31 26 -53 21 vhcurveto
          endchar
        </CharString>
        <CharString name="ellipsis">
          201 0 115 hstem
          85 114 138 114 138 114 vstem
          85 hmoveto
          114 hlineto
          2 18 0 21 0 18 0 19 0 21 -2 18 50 flex
          -114 hlineto
          -2 -18 0 -21 0 -19 0 -18 0 -21 2 -18 50 flex
          252 hmoveto
          114 hlineto
          2 18 0 21 0 18 0 19 0 21 -2 18 50 flex
          -114 hlineto
          -2 -18 0 -21 0 -19 0 -18 0 -21 2 -18 50 flex
          252 hmoveto
          114 hlineto
          2 18 0 21 0 18 0 19 0 21 -2 18 50 flex
          -114 hlineto
          -2 -18 0 -21 0 -19 0 -18 0 -21 2 -18 50 flex
          endchar
        </CharString>
        <CharString name="emacron">
          -30 -11 95 156 86 153 101 97 68 hstemhm
          46 91 6 273 4 87 hintmask 11111010
          489 128 rmoveto
          -28 -49 -51 -16 -57 hhcurveto
          -59 -55 17 42 -35 hvcurveto
          -24 29 -12 39 -6 34 rrcurveto
          -3 65 74 -2 67 hhcurveto
          49 58 1 1 46 hvcurveto
          4 25 3 32 32 vvcurveto
          63 -12 58 -30 44 vhcurveto
          53 -36 -59 31 -81 hhcurveto
          -97 -57 -44 -48 -34 hvcurveto
          -38 -54 -17 -72 -78 vvcurveto
          -73 15 -73 45 -57 vhcurveto
          -54 42 67 -38 93 hhcurveto
          88 56 34 30 37 hvcurveto
          -352 268 rmoveto
          2 44 8 37 18 28 rrcurveto
          33 21 33 16 56 hhcurveto
          62 35 -20 -30 20 hvcurveto
          20 -30 7 -39 1 -35 rrcurveto
          1 -24 -25 0 -24 hhcurveto
          -68 -67 -2 -3 -75 hvcurveto
          hintmask 11110100
          6 356 rmoveto
          273 68 -273 hlineto
          endchar
        </CharString>
        <CharString name="emdash">
          208 280 70 hstem
          32 731 vstem
          32 280 rmoveto
          731 70 -731 hlineto
          endchar
        </CharString>
        <CharString name="emdash.cap">
          208 329 70 hstem
          32 731 vstem
          32 329 rmoveto
          731 70 -731 hlineto
          endchar
        </CharString>
        <CharString name="endash">
          -58 275 80 hstem
          47 435 vstem
          47 275 rmoveto
          435 80 -435 hlineto
          endchar
        </CharString>
        <CharString name="endash.cap">
          -58 324 80 hstem
          47 435 vstem
          47 324 rmoveto
          435 80 -435 hlineto
          endchar
        </CharString>
        <CharString name="eng">
          8 -168 -21 210 -21 472 108 -9 -20 hstemhm
          82 95 245 95 hintmask 11011100
          422 -8 rmoveto
          -63 -20 -23 -78 -18 vhcurveto
          19 -77 rlineto
          114 15 60 36 135 vvcurveto
          403 vlineto
          hintmask 11101100
          55 -13 46 -32 33 vhcurveto
          30 -29 -41 16 -49 hhcurveto
          -77 -44 -34 -61 -64 hvcurveto
          -2 hlineto
          hintmask 11011100
          -3 31 -4 29 -3 26 -86 -3 rcurveline
          6 -74 6 -113 -82 vvcurveto
          -299 95 302 vlineto
          hintmask 11101100
          43 -3 48 -4 46 vhcurveto
          19 41 42 14 56 hhcurveto
          32 30 -5 -16 20 hvcurveto
          22 -18 9 -28 -39 vvcurveto
          endchar
        </CharString>
</ttFont>
